<svg xmlns="http://www.w3.org/2000/svg" viewBox="0 0 956.9 467.3"><title>Ресурс 1</title><g id="Слой_2" data-name="Слой 2"><g id="Слой_1-2" data-name="Слой 1"><g id="Слой_1-2-2" data-name="Слой 1-2"><ellipse cx="472.9" cy="224.6" rx="312.6" ry="114.7" fill="#fffc00" stroke="#000" stroke-linecap="round" stroke-miterlimit="10"/><text transform="translate(297.97 212.59)" font-size="56" font-family="GillSans, Gill Sans" style="isolation:isolate">Подключиться</text><text transform="translate(391.97 279.79)" font-size="56" font-family="GillSans, Gill Sans" style="isolation:isolate">к такси</text><path d="M755.1,441.1a48.21,48.21,0,0,1-13,3,56.52,56.52,0,0,1-13,0l.4.1-6.9-1,.4.1-6.8-1.6.4.1-6.8-2.1.4.1-6.7-2.5.4.2c-16.4-6.9-32-15.5-47.5-24.2a162.48,162.48,0,0,1-23-15.5A124.34,124.34,0,0,1,622,387.4a108.35,108.35,0,0,1-9.7-11.6l.2.4-4.3-6.6.2.4-3.8-7,.2.4a67.64,67.64,0,0,1-4.2-10.5,69.92,69.92,0,0,1-3-11.1c-.1-.5-.1-.5-.3,0L597,343c-.2,1.4-.4,2.8-.5,4.3-.3,2.2-.5,4.4-.7,6.6a7.08,7.08,0,0,0,0,2.9c.9,2.6,1.8,5.1,2.8,7.7a95.18,95.18,0,0,0,7.3,14.2,112.45,112.45,0,0,0,14.6,18.4c14,14.6,31.7,24.8,49.7,33.6,15,7.4,30.5,14.4,47,18.4a98.22,98.22,0,0,0,24.1,3,116.89,116.89,0,0,0,26.3-3.9,2.34,2.34,0,0,0-1.2-1c-1.6-1-3.3-2-4.9-2.9s-3.3-1.8-5-2.8A2.3,2.3,0,0,0,755.1,441.1Z" fill="#ff0" opacity="0.11" style="isolation:isolate"/><path d="M756,442.8a49.09,49.09,0,0,1-13,3h.3a73.39,73.39,0,0,1-19.5-.7,110.58,110.58,0,0,1-15.9-4.5c-12.1-4.3-23.5-10.3-34.8-16.3l.3.2c-7.7-4.2-15.6-8.3-23.1-13a177.35,177.35,0,0,1-22.1-16.3l.3.2-5.8-5.6.2.2-5.3-5.9.2.3c-4.7-5.9-9.2-11.9-12.4-18.7l-3-6.9a83.7,83.7,0,0,1-4.3-14.8c-.3-1.4-1.1,3.4-1,2.8-.3,1.8-.7,3.6-1,5.5a14.28,14.28,0,0,0-.3,2.9c1.4,3.9,2.7,7.7,4.4,11.5a68.37,68.37,0,0,0,5.4,10.4,96.45,96.45,0,0,0,9.2,12.8,135.86,135.86,0,0,0,23.4,21.4c10.8,7.8,22.5,14,34.5,19.8,15,7.3,30.3,14.1,46.6,18a86.33,86.33,0,0,0,27.3,2.2c2.2-.2,4.5-.5,6.8-.9a117.42,117.42,0,0,0,13.1-2.8,1.59,1.59,0,0,0-1-.8c-1.3-.7-2.7-1.3-4.1-1.9s-2.8-1.2-4.1-1.8A1.59,1.59,0,0,0,756,442.8Z" fill="#ff0" opacity="0.11" style="isolation:isolate"/><path d="M752.8,438.2a42.35,42.35,0,0,1-12.7,3.2,60.8,60.8,0,0,1-12.8-.1,86.09,86.09,0,0,1-18.8-4.6c-15.1-5.3-29.2-13.4-43.1-21.2-15.7-8.8-31.3-17.9-43.7-31.2a102.29,102.29,0,0,1-13.6-17.8,81.72,81.72,0,0,1-10.2-28.2c-.2-1-.7,1.9-.7,1.4a12.46,12.46,0,0,0-.2,4.3,85.56,85.56,0,0,0,11.6,28.5,101.7,101.7,0,0,0,14.3,17.7,135.29,135.29,0,0,0,21.3,17.1c7.5,5,15.5,9.3,23.4,13.5,14.2,7.5,28.6,15.3,44.1,19.9a96,96,0,0,0,19.2,3.8,62.85,62.85,0,0,0,13-.4,46.72,46.72,0,0,0,12.2-3.2c.7-.2-.5-.9-.6-1C755.1,439.5,753.4,438,752.8,438.2Z" fill="#ff0" opacity="0.11" style="isolation:isolate"/><path d="M751.4,443.6a39.28,39.28,0,0,1-18.5,3.6l-6.4-.5c-12.5-1.2-25.8-7.2-37.3-12.9-6.2-3.1-12.3-6.5-18.4-9.9-6.4-3.5-12.9-7-19.1-10.8-13.1-8-25.8-17.5-35.4-29.6a90.76,90.76,0,0,1-10.1-15.4,65.91,65.91,0,0,1-4.5-10.2,83.57,83.57,0,0,1-3.8-14.7.47.47,0,0,0-.6-.1,2.51,2.51,0,0,0-.2,1,84.93,84.93,0,0,0,3.9,14.8,83.37,83.37,0,0,0,6.4,13.5,104.78,104.78,0,0,0,19,23.4c14.9,13.8,33,23.3,50.7,32.9,12,6.5,24.4,12.9,37.7,16.6a74.79,74.79,0,0,0,19.3,3.1,59.51,59.51,0,0,0,13.3-1.4,27.3,27.3,0,0,0,4.8-2.5C753.1,444,751.9,443.4,751.4,443.6Z" fill="#ff0" opacity="0.11" style="isolation:isolate"/><path d="M755.6,443.5a53.54,53.54,0,0,1-13,3.1h.4a70.2,70.2,0,0,1-25.8-2.2c-9.8-2.5-19.3-6.6-28.4-11-8.5-4.1-16.9-8.7-25.2-13.2-4.5-2.5-9.1-5-13.5-7.7-5.7-3.5-10.9-7.3-16.2-11.3l.3.2-6.2-5.2.3.3-5.8-5.6.3.3a108.09,108.09,0,0,1-9.8-11.5,63.17,63.17,0,0,1-6-9.5,62.75,62.75,0,0,1-4.9-10.1,78.11,78.11,0,0,1-4.3-14.8c-.1-.5-.1-.3-.3,0l-.2,1c-.2,1.2-.4,2.3-.5,3.5-.2,1.8-.5,3.6-.7,5.4a4.87,4.87,0,0,0,0,2.4c2.6,7.1,2,5.9,4.5,11.1,1.7,3.5,3.5,7,5.5,10.3a86.38,86.38,0,0,0,9.6,12.9,134,134,0,0,0,27,23.4c11,7.4,22.7,13.3,34.7,19,14,6.6,28.5,12.8,43.8,16a93.28,93.28,0,0,0,21.1,2.1,113.39,113.39,0,0,0,26.5-4.1,2,2,0,0,0-1.2-.8c-1.7-.7-3.3-1.3-5-2s-3.3-1.2-5-1.8A5.25,5.25,0,0,0,755.6,443.5Z" fill="#ff0" opacity="0.11" style="isolation:isolate"/><path d="M755.6,441.9a36.21,36.21,0,0,1-9.8,2.5,53.33,53.33,0,0,1-9.8.9h.4l-6.9-.3h.4l-6.8-.9.4.1-6.8-1.5.4.1-6.8-2,.4.1-6.7-2.4.4.1-6.7-2.8.4.2c-8.6-4-17.1-8.2-25.4-12.7-6.5-3.5-13-7-19.4-10.7a162.43,162.43,0,0,1-19.6-13.5,124.34,124.34,0,0,1-11.4-10.4,97.73,97.73,0,0,1-9.7-11.6l.2.4-4.4-6.6.2.4-3.8-6.9.2.4a65.34,65.34,0,0,1-4.3-10.6,72.92,72.92,0,0,1-3-11.1c-.1-.4-.1-.5-.3,0l-.3,1.1c-.2,1.4-.4,2.7-.6,4.1-.3,2.1-.6,4.2-.8,6.4a6.61,6.61,0,0,0,0,2.8c.9,2.6,1.9,5.1,2.8,7.7a104.47,104.47,0,0,0,7.3,14.1,118.68,118.68,0,0,0,14.7,18.4c14.1,14.6,31.8,24.7,49.8,33.5,15.2,7.4,30.7,14.5,47.2,18.4a93.77,93.77,0,0,0,24.2,2.9,117,117,0,0,0,26.3-4,2.94,2.94,0,0,0-1.2-1c-1.6-.9-3.3-1.8-5-2.6s-3.3-1.7-5-2.5C756.7,442,756.1,441.9,755.6,441.9Z" fill="#ff0" opacity="0.11" style="isolation:isolate"/><path d="M753.9,443.5a40.72,40.72,0,0,1-9.7,2.5,40.21,40.21,0,0,1-9.8.9l-6.4-.4L696.5,437a189.75,189.75,0,0,1-18.6-9.3l-15.3-8.4c-11.4-6.4-22.5-13.1-32.4-21.7a107.6,107.6,0,0,1-13.5-13.5c-9.8-11.9-15.5-24.6-19.1-40.4-.2-.9-.7,1.5-.7,1.1a10.61,10.61,0,0,0-.3,3.5,86.28,86.28,0,0,0,4.8,14.9,87.44,87.44,0,0,0,7.2,13.5,107.47,107.47,0,0,0,14.5,17.8,142.27,142.27,0,0,0,21.5,17.2c7.6,5,15.6,9.3,23.7,13.6,14.5,7.7,29.4,15.6,45.2,20.1a96.62,96.62,0,0,0,20,3.7c9.1.5,17.6-1.2,26.3-3.5,1-.2-1.7-1.1-1.4-1l-3-.9A6.8,6.8,0,0,0,753.9,443.5Z" fill="#ff0" opacity="0.11" style="isolation:isolate"/><path d="M753.5,439.7a42.35,42.35,0,0,1-12.7,3.2,60.8,60.8,0,0,1-12.8-.1,87.75,87.75,0,0,1-18.8-4.7c-15.1-5.3-29.1-13.4-43.1-21.1-15.7-8.7-31.3-17.9-43.6-31.2A101.74,101.74,0,0,1,609,368a86,86,0,0,1-6.3-13.4,75.94,75.94,0,0,1-3.9-14.7c-.2-.9-.8,1.5-.7,1.2a9.38,9.38,0,0,0-.4,3.7,84.59,84.59,0,0,0,4.6,14.8,81.17,81.17,0,0,0,7,13.4,105.23,105.23,0,0,0,14.2,17.6,139.23,139.23,0,0,0,21.2,17.1,258.2,258.2,0,0,0,23.4,13.5c14.1,7.5,28.5,15.4,43.9,20.1a89.82,89.82,0,0,0,19.2,4,56.57,56.57,0,0,0,13-.3,50.83,50.83,0,0,0,12.2-3.1C756.9,441.5,754.2,439.5,753.5,439.7Z" fill="#ff0" opacity="0.11" style="isolation:isolate"/><path d="M755.3,444.1a50.94,50.94,0,0,1-12.8,3.1,62.77,62.77,0,0,1-13,.1,89.51,89.51,0,0,1-19.1-4.3c-15.3-5.1-29.6-13-43.7-20.7-15.8-8.7-31.6-17.8-44.1-31a109.19,109.19,0,0,1-13.9-17.8,83.32,83.32,0,0,1-6.6-13.4,76.84,76.84,0,0,1-4.2-14.7c-.3-1.1-.9,2.3-.8,1.8l-.6,3.6a6.08,6.08,0,0,0-.1,1.9,88.86,88.86,0,0,0,5.5,14.9,93.16,93.16,0,0,0,7.7,13.4,105.5,105.5,0,0,0,15.2,17.5c13.6,12.8,29.6,21.9,46.1,30.3,14.7,7.5,30,15.1,46.1,19a98.5,98.5,0,0,0,20.3,3,67.67,67.67,0,0,0,13.5-1,68.55,68.55,0,0,0,12.7-2.8c1.1-.3-2.3-1.2-2-1.1-1.3-.4-2.7-.8-4-1.2A6.62,6.62,0,0,0,755.3,444.1Z" fill="#ff0" opacity="0.11" style="isolation:isolate"/><path d="M755.4,442.7a36.21,36.21,0,0,1-9.8,2.5,40.21,40.21,0,0,1-9.8.9h.4l-6.9-.3h.4a89.72,89.72,0,0,1-22.3-5.3,211.09,211.09,0,0,1-22.4-9.8l.4.2q-7.95-4-15.9-8.4c-5.4-3-11-5.8-16.3-9-4.6-2.7-9-5.6-13.3-8.7a150.1,150.1,0,0,1-17.7-15.1l.3.3-5.4-5.9.3.3-4.9-6.2.2.3-4.2-6.2a72.87,72.87,0,0,1-5.2-10,42.6,42.6,0,0,1-2.8-7,62,62,0,0,1-3.1-11.2c-.1-.5-.1-.4-.3,0l-.2,1.1c-.2,1.3-.4,2.5-.5,3.8-.2,2-.5,3.9-.7,5.9a5.71,5.71,0,0,0,0,2.6,114.15,114.15,0,0,0,6.2,14.9,108.29,108.29,0,0,0,13.3,19.5c14.2,16.4,32.6,28.2,51.9,37.7,17.2,8.5,35,16.9,53.9,20.8a103.12,103.12,0,0,0,20.7,2.1,117.89,117.89,0,0,0,26.4-4,2.73,2.73,0,0,0-1.2-.9c-1.7-.8-3.4-1.6-5.1-2.3s-3.4-1.5-5.1-2.2A1.25,1.25,0,0,0,755.4,442.7Z" fill="#ff0" opacity="0.11" style="isolation:isolate"/><path d="M755.6,443.3a50.94,50.94,0,0,1-12.8,3.1,62.77,62.77,0,0,1-13,.1,89.51,89.51,0,0,1-19.1-4.3c-15.3-5.1-29.6-13.1-43.6-20.8-15.8-8.7-31.6-17.8-44.1-31a103.41,103.41,0,0,1-13.8-17.8,87.63,87.63,0,0,1-6.6-13.4,92.81,92.81,0,0,1-4.2-14.8c-.3-1.1-1,2.4-.9,1.9-.3,1.3-.5,2.5-.7,3.8a6.8,6.8,0,0,0-.2,2,90.14,90.14,0,0,0,13.1,28.3,105.5,105.5,0,0,0,15.2,17.5c13.5,12.8,29.5,21.8,46,30.2,14.7,7.5,29.8,15.1,45.9,19a98.56,98.56,0,0,0,20.2,3,76.59,76.59,0,0,0,13.5-.9,67.52,67.52,0,0,0,12.6-2.8c1-.3-1.9-1.3-1.7-1.2-1.2-.5-2.4-.9-3.7-1.4A20.93,20.93,0,0,0,755.6,443.3Z" fill="#ff0" opacity="0.11" style="isolation:isolate"/><path d="M751.9,444a15.57,15.57,0,0,1-8.6,2.9,54.09,54.09,0,0,1-22.3-.8,111.64,111.64,0,0,1-12.5-3.7c-11.8-4.1-23-10.3-34-16.4s-21.9-11.9-32-19a135.62,135.62,0,0,1-15.1-12.1c-14.8-13.8-24.2-29.7-28.7-51.3-.1-.5-.8,0-.7.5.5,2.4,1,5.1,1.6,7.6a55.44,55.44,0,0,0,3.7,10.6,82.86,82.86,0,0,0,6.9,13.2c11.2,17.5,27.8,30.6,45.7,40.9,8.2,4.7,16.5,9.4,24.9,13.9a208.94,208.94,0,0,0,28,13,90.88,90.88,0,0,0,19.3,4.8,69.55,69.55,0,0,0,16.5-.3,12.39,12.39,0,0,0,8.2-3C753,444.4,752.3,443.8,751.9,444Z" fill="#ff0" opacity="0.11" style="isolation:isolate"/><path d="M622.8,363a36.9,36.9,0,0,1-9.2-2.5,42.51,42.51,0,0,1-8-4.6l.4.3-3.9-3.2.3.3a43.68,43.68,0,0,1-6-6.9,41.13,41.13,0,0,1-4.3-8c-.2-.5-.3-.5-.3.1-1.2,16.5-2.3,33-4,49.5-.1.9,4.2,2.9,4.5,3.1a28.17,28.17,0,0,0,3.8,2.1,1.13,1.13,0,0,0,1.1.3c-.2-6.4-.7-12.8-1.3-19.2a173.52,173.52,0,0,1-1-21.6l-.1.4a41.54,41.54,0,0,0,4.6,5.6,51.76,51.76,0,0,0,9.6,7.9,90.85,90.85,0,0,0,8.7,4.7,65.75,65.75,0,0,0,13.7,4.2,2.63,2.63,0,0,0-.7-1.5c-1.1-1.7-2.2-3.4-3.3-5s-2.3-3.3-3.5-5A3.64,3.64,0,0,0,622.8,363Z" fill="#ff0" opacity="0.11" style="isolation:isolate"/><path d="M623.8,365.2a38.1,38.1,0,0,1-9.2-2.5l.3.1-4.5-2.2.3.2c-3.9-2.5-7.7-5.1-10.7-8.7l-2.8-3.6a41.58,41.58,0,0,1-4.4-8c-.2-.4-.3-.4-.3.1q-1.05,12.6-1.8,25.2c-.5,7.8-1.2,15.6-2.2,23.3-.1.7,3.7,1.8,4,1.9-.1,0,4.2,1.6,4.2,1.2-.1-6.3-.5-12.7-1.1-19a175.82,175.82,0,0,1-.8-21.8l-.3.1a39.53,39.53,0,0,0,6,7.5l3.7,3.3a52.71,52.71,0,0,0,6.2,4.3,50.68,50.68,0,0,0,6.5,3.5,65.06,65.06,0,0,0,13.8,4.3,1.85,1.85,0,0,0-.5-1.2c-.8-1.3-1.7-2.5-2.6-3.7s-1.8-2.5-2.8-3.6A2.29,2.29,0,0,0,623.8,365.2Z" fill="#ff0" opacity="0.11" style="isolation:isolate"/><path d="M621.7,359.7a35.23,35.23,0,0,1-9-2.4,29.81,29.81,0,0,1-6-3.4c-7-4.7-11.4-10.9-14.9-18.8.1.2-.5-1.1-.6-.4-1.9,16.9-4.2,33.6-6.6,50.4-.1.5,1.1,1.4,1.2.6,2.2-15.1,4.5-30.2,6.8-45.3l-.3.1c2.9,5.5,6.3,10.6,11.2,14.5a46,46,0,0,0,7.8,5.2,49.87,49.87,0,0,0,13,4.4c.8.2-.3-1.4-.3-1.5-.5-.8-.9-1.5-1.4-2.3A10.63,10.63,0,0,0,621.7,359.7Z" fill="#ff0" opacity="0.11" style="isolation:isolate"/><path d="M620.5,364.2a32.21,32.21,0,0,1-8.2-1.6,27.51,27.51,0,0,1-7.6-4.9,25.13,25.13,0,0,1-6.5-6.1,41.55,41.55,0,0,1-6.6-11.8c-.1-.2-.6-.4-.7,0-.9,8.8-1.8,17.7-2.9,26.5-.9,8.2-2,16.4-3.3,24.5,0,.2.1.4.3.4s.4-.1.4-.3c2.4-16.7,4.5-33.4,6.3-50.3l-.7-.1c1.9,4.2,3.9,8.4,6.9,12a46.37,46.37,0,0,0,4.9,5,27.28,27.28,0,0,0,5.8,4.3l4.2,2.2a30.36,30.36,0,0,0,7.9,1.3C621.3,365.3,621,364.3,620.5,364.2Z" fill="#ff0" opacity="0.11" style="isolation:isolate"/><path d="M623.4,366a38.1,38.1,0,0,1-9.2-2.5l.4.2a40,40,0,0,1-8.1-4.5,28,28,0,0,1-5.2-4.5,31.7,31.7,0,0,1-4.5-5.2,41.26,41.26,0,0,1-4.5-7.9c-.2-.4-.3-.4-.3.1-.6,8.3-1.2,16.7-1.7,25q-.6,11.55-2.1,23.1c-.1.7,5,1.8,5.2,1.8-.1,0,5.4,1.5,5.3,1.1a131.05,131.05,0,0,0-1.8-17.7,129.38,129.38,0,0,1-1.8-21.6l-.3.1a40.46,40.46,0,0,0,6.3,7.4l3.8,3.2a44.06,44.06,0,0,0,6.4,4.2,51.35,51.35,0,0,0,6.6,3.4,67.79,67.79,0,0,0,13.9,4.3,1.85,1.85,0,0,0-.7-1.2c-1.1-1.4-2.2-2.7-3.3-4s-2.2-2.6-3.4-3.9A1.17,1.17,0,0,0,623.4,366Z" fill="#ff0" opacity="0.11" style="isolation:isolate"/><path d="M623.3,364.1a31.66,31.66,0,0,1-6.9-1.7,30.32,30.32,0,0,1-6.4-2.8l.4.2-4.2-2.8.3.2a47.72,47.72,0,0,1-8.2-8,50.6,50.6,0,0,1-5.8-9.8c-.2-.5-.3-.5-.3.1-1.2,16.4-2.3,32.7-3.9,49-.1.9,4.5,2.8,4.8,2.9,1.3.7,2.6,1.4,3.9,2a2.38,2.38,0,0,0,1.2.3c-.4-6.3-1-12.5-1.8-18.8a131,131,0,0,1-1.2-21.7l-.1.4a41.54,41.54,0,0,0,4.6,5.6,49.3,49.3,0,0,0,9.7,7.9,92.52,92.52,0,0,0,8.8,4.7,65.75,65.75,0,0,0,13.7,4.2,2.67,2.67,0,0,0-.7-1.4l-3.3-4.8c-1.1-1.6-2.2-3.2-3.4-4.7A2.94,2.94,0,0,0,623.3,364.1Z" fill="#ff0" opacity="0.11" style="isolation:isolate"/><path d="M622.2,365.3a36.16,36.16,0,0,1-9.1-2.5,24.42,24.42,0,0,1-9.2-6.3,23.57,23.57,0,0,1-7.8-7.9,40.7,40.7,0,0,1-4.2-8c0,.1-.5-.9-.6-.3-.7,8.3-1.5,16.6-2.5,24.9-.8,8.1-1.8,16.1-3.1,24.1-.1.4,3,.5,3.1-.2,1.7-14.7,3-29.3,4.1-44l-.6-.3a50.34,50.34,0,0,0,11.6,14.7,41.91,41.91,0,0,0,8.4,5.5,58.16,58.16,0,0,0,13.5,4.6c.9.2-.7-1.6-.6-1.4-.6-.7-1.2-1.3-1.9-2A4.81,4.81,0,0,0,622.2,365.3Z" fill="#ff0" opacity="0.11" style="isolation:isolate"/><path d="M622.4,361.1l-4.6-.9a23,23,0,0,1-6.3-2.5c-8.8-4.5-14.4-11.1-18.8-21.1-.3-.6-.5-.6-.6.1-2.1,16.7-4.1,33.3-6.5,49.9-.1.5,1,1.1,1.1.4,2.3-15.3,4.2-30.7,6.6-46H593a45.21,45.21,0,0,0,9.3,12.8,39.59,39.59,0,0,0,9.4,6.8l4.3,2a36.23,36.23,0,0,0,8.6,2.2c.7.1-.1-1.1-.1-1.2C623.9,363.1,623.1,361.3,622.4,361.1Z" fill="#ff0" opacity="0.11" style="isolation:isolate"/><path d="M623.4,366.4c-4.7-.9-9-2-13.2-4.5-8.2-4.8-13.4-11-17.8-20.1-.2-.2-.3-.2-.3.1-.6,8.3-1.2,16.5-1.9,24.8a201,201,0,0,1-2.7,23.2c0,.3,6.1.6,6.1-.3a96.67,96.67,0,0,0,.7-19.4c-.3-7.1-.4-14.1-.2-21.2l-.3.1a51.28,51.28,0,0,0,5.6,7.6,49.37,49.37,0,0,0,9.3,7.8,54.55,54.55,0,0,0,8.6,4.6,53.49,53.49,0,0,0,11.2,3.3c1,.2-1.1-2-.9-1.8a34.46,34.46,0,0,0-2.6-2.8A17.72,17.72,0,0,0,623.4,366.4Z" fill="#ff0" opacity="0.11" style="isolation:isolate"/><path d="M623.2,365a26.82,26.82,0,0,1-6.9-1.7,30.32,30.32,0,0,1-6.4-2.8l.4.2c-3.9-2.5-7.7-5.1-10.7-8.6l-2.8-3.6a40.8,40.8,0,0,1-4.4-7.9c-.2-.5-.3-.4-.3.1l-1.8,25.2c-.4,7.8-1.1,15.5-2.1,23.3-.1.8,4.9,2.3,5.1,2.4-.1-.1,5.4,2,5.3,1.7-.3-6.1-.9-12.2-1.8-18.2a129.3,129.3,0,0,1-1.6-21.6l-.3.1c2.5,3.4,3.2,4.6,6.3,7.4,1.3,1.2,2.7,2.4,4.1,3.5a59.49,59.49,0,0,0,12.9,7.5,81.5,81.5,0,0,0,13.8,4.2,2.67,2.67,0,0,0-.7-1.4c-1.1-1.5-2.2-3-3.4-4.4s-2.3-2.9-3.5-4.3A2.13,2.13,0,0,0,623.2,365Z" fill="#ff0" opacity="0.11" style="isolation:isolate"/><path d="M623.4,365.5a33.09,33.09,0,0,1-8.7-2.4,37.67,37.67,0,0,1-8-4.6,44.29,44.29,0,0,1-6.8-6.2,40.17,40.17,0,0,1-7.1-11.5c-.2-.3-.3-.2-.3.1-.7,8.3-1.3,16.6-2,24.9a232.87,232.87,0,0,1-2.7,23.4c-.1.5,5.3,1,5.4.4a131.27,131.27,0,0,0,.9-19.8c-.1-7.1-.1-14.2.2-21.3l-.3.1a58.78,58.78,0,0,0,5.5,7.6,45.82,45.82,0,0,0,9.2,7.8,53.56,53.56,0,0,0,8.5,4.6,54.41,54.41,0,0,0,11.1,3.3c.2,0,.3.1.3-.2a6.6,6.6,0,0,0-1.7-2.4c-.7-.9-1.4-1.8-2.2-2.7C624.2,366.1,623.9,365.6,623.4,365.5Z" fill="#ff0" opacity="0.11" style="isolation:isolate"/><path d="M621,364.6l-4.3-.6a29.45,29.45,0,0,1-13.4-7.3C598,352,595,347,592,340.1c-.1-.3-.7-.2-.7.1-.9,8.8-1.8,17.6-2.9,26.4-.9,8.2-1.9,16.3-3.2,24.4,0,.3.3.9.4.4,2.5-17,4.6-33.9,6.5-51l-.7.1a76.15,76.15,0,0,0,4,8.1,39.91,39.91,0,0,0,15.3,14.1l2.2,1.1a24.63,24.63,0,0,0,8.1,1.4C621.4,365.4,621.5,364.6,621,364.6Z" fill="#ff0" opacity="0.11" style="isolation:isolate"/><path d="M616.1,98.3a163.55,163.55,0,0,1,10.3-17,166.27,166.27,0,0,1,12.2-15.5l-.3.3,7-7.4-.3.3a181.78,181.78,0,0,1,14.6-13.1,177.17,177.17,0,0,1,15.9-11.4A189.86,189.86,0,0,1,710.4,17a182.09,182.09,0,0,1,37.7-9.9,179.43,179.43,0,0,1,19.4-1.9,158.69,158.69,0,0,1,19.5.4c1.4.1-3-2-2.4-1.7l-5.1-2.4c-.9-.4-1.8-.8-2.7-1.1a170.57,170.57,0,0,0-20.2.8l-10,1.2a186.11,186.11,0,0,0-29.5,7,199,199,0,0,0-81,50.3A194.35,194.35,0,0,0,622.6,75a297.39,297.39,0,0,0-19.4,28.9,2.7,2.7,0,0,0,1.5-.3c1.7-.7,3.4-1.4,5.1-2.2s3.3-1.6,5-2.3A2,2,0,0,0,616.1,98.3Z" fill="#ff0" opacity="0.11" style="isolation:isolate"/><path d="M616.8,99.9c3.3-5.8,6.6-11.5,10.4-17a158.38,158.38,0,0,1,15.7-19c4.5-4.7,9.3-9.2,14.3-13.5a232,232,0,0,1,19.7-14.5l-.3.2,8.7-5.2-.3.2,9-4.8-.3.2,9.2-4.3-.3.1,9.4-3.8-.4.1,9.6-3.3-.4.1,9.8-2.8-.4.1,9.9-2.3-.4.1,10-1.8-.4.1,10.1-1.2h-.3a144.06,144.06,0,0,1,14.6-.7,120.37,120.37,0,0,1,14.7.5c.5,0,.3,0,.2-.3l-.8-.6c-1-.6-2-1.2-3.1-1.8L779.9,2a8.49,8.49,0,0,0-2.2-.9,163.09,163.09,0,0,0-19.8.7,174.29,174.29,0,0,0-20.3,3,201.1,201.1,0,0,0-52,18.8,186.71,186.71,0,0,0-44.8,32.5,179.51,179.51,0,0,0-20,22.7c-5.8,8-11.1,16.3-16.2,24.7a2.25,2.25,0,0,0,1.4-.1c1.6-.4,3.3-.9,4.9-1.4l4.8-1.5A1.74,1.74,0,0,0,616.8,99.9Z" fill="#ff0" opacity="0.11" style="isolation:isolate"/><path d="M618.7,95.9a107.7,107.7,0,0,1,7.4-12.7,71.63,71.63,0,0,1,8.8-11.7,99.83,99.83,0,0,1,12.9-14.6l7.2-6.7a176.07,176.07,0,0,1,40.9-26.8A186.69,186.69,0,0,1,761.2,5.6a201.92,201.92,0,0,1,29.1.3c.4,0,.3-.3.2-.6s-1.2-.6-1.5-.6a206.07,206.07,0,0,0-29.4-.1,167.36,167.36,0,0,0-29,4.9,193.51,193.51,0,0,0-50,20.7,179.13,179.13,0,0,0-42.5,34.6c-2.3,2.6-4.5,5.2-6.6,7.9l-6,8a155.47,155.47,0,0,0-10,16.6c-.4.7,1.2,0,1,0C617.1,97,618.4,96.5,618.7,95.9Z" fill="#ff0" opacity="0.11" style="isolation:isolate"/><path d="M619.8,101.6a44.46,44.46,0,0,1,6.6-12.8,113.74,113.74,0,0,1,8.6-12c4.1-5,8.5-9.9,13.1-14.5a174.57,174.57,0,0,1,43.4-31,189.69,189.69,0,0,1,45.6-16.4,192.92,192.92,0,0,1,24-3.6,201.92,201.92,0,0,1,29.1.3c.6,0-.2-.9-.2-.9-.4-.4-1.1-1.2-1.7-1.3-9.8-.5-19.5-.9-29.2.1-6.5.7-12.9,1.6-19.3,2.8a187.77,187.77,0,0,0-90.1,46.3A176.13,176.13,0,0,0,633,76.5l-5.9,7.9a43.35,43.35,0,0,0-8.6,16.8C618.3,102.1,619.6,102,619.8,101.6Z" fill="#ff0" opacity="0.11" style="isolation:isolate"/><path d="M615.7,100.6a186.41,186.41,0,0,1,16.2-24.9c4.1-5.1,8.5-10,13.1-14.7a177.4,177.4,0,0,1,43.5-31.9,189.1,189.1,0,0,1,45.8-17.2,179.61,179.61,0,0,1,24.2-4,206.07,206.07,0,0,1,29.4-.1,2.35,2.35,0,0,0-1.1-1.1c-1.5-1.1-3.1-2.1-4.7-3.2s-3.2-2-4.8-3a2.39,2.39,0,0,0-1.4-.5c-10.2.2-20.2.5-30.3,2.2q-10.05,1.65-19.8,4.2a191.27,191.27,0,0,0-51.1,22,200.36,200.36,0,0,0-39.5,31.5,187.92,187.92,0,0,0-16.4,19.3c-5.8,7.9-11.1,16.3-16.2,24.7a2.2,2.2,0,0,0,1.4-.1c1.7-.4,3.5-.8,5.2-1.3s3.4-.9,5.1-1.4A1.62,1.62,0,0,0,615.7,100.6Z" fill="#ff0" opacity="0.11" style="isolation:isolate"/><path d="M616.3,99a152.34,152.34,0,0,1,10.3-16.9,114.5,114.5,0,0,1,9.1-11.7,128,128,0,0,1,9.9-10.9,181.78,181.78,0,0,1,14.6-13.1l-.3.3,8.1-6.2-.3.2,8.4-5.7-.3.2,8.7-5.3-.3.2,9-4.8-.4.2c7.4-3.5,14.9-6.7,22.6-9.5a160.86,160.86,0,0,1,23.5-6.6c6.4-1.3,12.8-2.2,19.3-2.9a191.09,191.09,0,0,1,29.3-.3c.5,0,.4,0,.2-.3l-.9-.6-3.3-1.8c-1.7-.9-3.4-1.8-5.1-2.6A6.19,6.19,0,0,0,776,.1a193.78,193.78,0,0,0-20.2.9c-6.7.7-13.2,1.8-19.7,3.1a186,186,0,0,0-34,10.6,200.17,200.17,0,0,0-52,31.5,191.24,191.24,0,0,0-25,25.1c-8.3,10.3-15.4,21.5-22.3,32.8a2.06,2.06,0,0,0,1.5-.3c1.8-.6,3.6-1.3,5.4-2s3.5-1.4,5.3-2.1A2.79,2.79,0,0,0,616.3,99Z" fill="#ff0" opacity="0.11" style="isolation:isolate"/><path d="M617.1,100.9C622,92.3,627,84,633.2,76.3c4.1-5.1,8.5-9.9,13.1-14.6a178.59,178.59,0,0,1,43.3-31.5,185.33,185.33,0,0,1,45.6-16.9,178.79,178.79,0,0,1,24-3.8,203.27,203.27,0,0,1,29.2,0c1,.1-1.4-1.7-1.2-1.5-.9-.7-1.9-1.3-2.8-2a5.07,5.07,0,0,0-1.6-.9,209.23,209.23,0,0,0-29.6,1c-6.5.9-13,2-19.4,3.4a191.56,191.56,0,0,0-90,49.3,170.33,170.33,0,0,0-16.5,18.5c-6,7.8-11.1,16.2-16.2,24.7-.4.7,2,.1,2.2.1C614.4,101.8,616.6,101.7,617.1,100.9Z" fill="#ff0" opacity="0.11" style="isolation:isolate"/><path d="M619.3,97.5a136,136,0,0,1,10.1-16.8,166,166,0,0,1,12.3-15.4,171,171,0,0,1,29.4-25.7A186,186,0,0,1,751.8,8a156.86,156.86,0,0,1,19.4-1.5,158.89,158.89,0,0,1,19.5.7c.6,0,.4-.2.2-.5a4.72,4.72,0,0,0-2.5-1.1,188.21,188.21,0,0,0-19.9-.5,123,123,0,0,0-14.8,1.2,169.19,169.19,0,0,0-24.4,4.6,188.21,188.21,0,0,0-28.2,9.8,193.94,193.94,0,0,0-42.3,25.6,181.92,181.92,0,0,0-21.6,20.5,170,170,0,0,0-12.3,15.7,173.92,173.92,0,0,0-10,16.6c-.4.7,1.3,0,1.2.1C617,98.7,618.9,98.3,619.3,97.5Z" fill="#ff0" opacity="0.11" style="isolation:isolate"/><path d="M616.8,101.4l4.8-8.6A148.14,148.14,0,0,1,630,80.5a166.3,166.3,0,0,1,12.7-15.1A175.62,175.62,0,0,1,681,35a188.51,188.51,0,0,1,40.2-18c6.2-1.9,12.6-3.5,19-4.8a189.25,189.25,0,0,1,29.1-3.3h9.5l10.1.6a1.59,1.59,0,0,0-.8-1c-1.2-1-2.4-1.9-3.7-2.8s-2.5-1.8-3.8-2.7a1.66,1.66,0,0,0-1.2-.5,215.46,215.46,0,0,0-30,1.6c-6.6,1-13.1,2.3-19.6,3.8a196.3,196.3,0,0,0-90.1,51.6,173.57,173.57,0,0,0-16.4,18.9,278.12,278.12,0,0,0-16,24.5,1.18,1.18,0,0,0,1,.1c1.3-.2,2.5-.3,3.8-.6C612.8,102.5,616.2,102.4,616.8,101.4Z" fill="#ff0" opacity="0.11" style="isolation:isolate"/><path d="M615.8,99.8A186.41,186.41,0,0,1,632,74.9a178.15,178.15,0,0,1,16.7-18.1,166.59,166.59,0,0,1,18.9-15.6A247.77,247.77,0,0,1,692.8,26l-.4.2,9.2-4.3-.4.1,9.5-3.9-.4.1,9.7-3.4-.4.1,9.8-2.8-.4.1,9.9-2.3-.4.1,10-1.8-.4.1,10.1-1.2h-.4l10.3-.5h-.4l10.2-.1h-.4l10.2.5a2.17,2.17,0,0,0-1.1-1c-1.5-1-3.1-1.9-4.6-2.8s-3.1-1.8-4.7-2.7A2.2,2.2,0,0,0,776,.1c-10.2.2-20.2.5-30.3,2.2Q735.65,4,725.9,6.5a189.28,189.28,0,0,0-51,22,194.49,194.49,0,0,0-39.5,31.6A187.92,187.92,0,0,0,619,79.4c-5.8,7.9-11.1,16.3-16.2,24.8a2,2,0,0,0,1.5-.2c1.7-.5,3.5-1,5.2-1.6s3.5-1.1,5.2-1.8A2.56,2.56,0,0,0,615.8,99.8Z" fill="#ff0" opacity="0.11" style="isolation:isolate"/><path d="M617.4,100.6a146.66,146.66,0,0,1,10.3-16.9l5.9-8c22.8-29.4,57-50.5,92.6-60.7a187.11,187.11,0,0,1,28.7-5.8,141.28,141.28,0,0,1,14.6-1.1,181.38,181.38,0,0,1,19.5.5c.4,0,.3,0,.2-.3l-.7-.6c-.8-.6-1.7-1.2-2.5-1.7-1.3-.9-2.7-1.7-4-2.5a4.55,4.55,0,0,0-1.9-.8,190.79,190.79,0,0,0-20,.5,165.26,165.26,0,0,0-19.8,2.7,189.47,189.47,0,0,0-38.2,11.7A193.83,193.83,0,0,0,659,42.8a184.1,184.1,0,0,0-28.9,27.6c-8.5,10.1-15.5,21.1-22.3,32.4a1.38,1.38,0,0,0,1.1.1c1.3-.2,2.6-.5,3.8-.8s2.6-.6,3.8-.9A1.8,1.8,0,0,0,617.4,100.6Z" fill="#ff0" opacity="0.11" style="isolation:isolate"/><path d="M620.4,102.1a40.74,40.74,0,0,1,6.5-12.8,131.19,131.19,0,0,1,8.7-12,179.89,179.89,0,0,1,13.2-14.5,174.57,174.57,0,0,1,43.4-31,189.69,189.69,0,0,1,45.6-16.4,192.92,192.92,0,0,1,24-3.6,201.92,201.92,0,0,1,29.1.3c.6,0-.2-.9-.2-.9-.4-.4-1.2-1.3-1.8-1.3-9.8-.4-19.5-.8-29.2.2-6.5.7-12.9,1.6-19.3,2.8a188.15,188.15,0,0,0-90,46.2A166.17,166.17,0,0,0,633.7,77l-5.9,7.9a36.36,36.36,0,0,0-8.6,16.9C619,102.5,620.2,102.5,620.4,102.1Z" fill="#ff0" opacity="0.11" style="isolation:isolate"/><path d="M606.9,63.5a45.11,45.11,0,0,1,0,9,51.76,51.76,0,0,1-1.2,8.8l.1-.4-1.5,6,.1-.3-2,5.8.1-.3L600,97.5l.2-.3a36.87,36.87,0,0,1-4.4,6.7,31.17,31.17,0,0,1-5.2,5.7c-.3.3-.3.4.1.3,8.3-1.2,16.7-2.4,25-3.5,7.7-1.2,15.4-2.1,23.1-2.6.7-.1,1.2-4.4,1.2-4.6,0,.1.8-4.9.5-4.8-6.1,1.5-12.1,3.1-18,5.1a155.46,155.46,0,0,1-21.1,5.4h.4a78.29,78.29,0,0,0,4.5-6.7,51.25,51.25,0,0,0,5.3-13.6,139.88,139.88,0,0,0,3.5-29.5,1.9,1.9,0,0,0-1.1.7c-1.1,1.1-2.3,2.2-3.3,3.3s-2.2,2.2-3.2,3.4A1.33,1.33,0,0,0,606.9,63.5Z" fill="#ff0" opacity="0.11" style="isolation:isolate"/><path d="M607.1,65.4a60.21,60.21,0,0,1-.3,12v-.3a62.26,62.26,0,0,1-2.3,11.4,37.79,37.79,0,0,1-3,7.9,37.65,37.65,0,0,1-3.9,7.1,40.56,40.56,0,0,1-6.7,7.6c-.3.3-.2.4.2.3,8.2-1.3,16.4-2.5,24.6-3.5a201.82,201.82,0,0,1,23.3-2.2c1-.1.2-9.4,0-9.4a86.64,86.64,0,0,0-18.2,3.8c-6.8,2.1-13.6,3.9-20.5,5.4l.2.3a45.07,45.07,0,0,0,5.9-9l2.4-5.2a55,55,0,0,0,2.5-8.8A127.14,127.14,0,0,0,614.2,56a1.59,1.59,0,0,0-1,.8c-1,1.2-2,2.4-2.9,3.7s-1.9,2.5-2.8,3.7A2.45,2.45,0,0,0,607.1,65.4Z" fill="#ff0" opacity="0.11" style="isolation:isolate"/><path d="M603.5,65.2a19.27,19.27,0,0,1,.7,11.4,48.56,48.56,0,0,1-5.7,18.6,32,32,0,0,1-4.2,6.8,48.42,48.42,0,0,1-6.9,7.4c-.5.5.2.6.5.5,8.6-1,17.2-1.9,25.9-2.6,8.3-.8,16.6-1.4,25-1.6.5,0,0-.7-.4-.6-8.1.1-16.1.5-24.2,1.4-8.5.7-16.9,1.5-25.4,2.6l.5.5A57.25,57.25,0,0,0,599,97.4a53.27,53.27,0,0,0,4.4-10.1q.9-2.85,1.5-5.7l.9-5.8a12.9,12.9,0,0,0-1.2-11C604.3,64.1,603.4,64.8,603.5,65.2Z" fill="#ff0" opacity="0.11" style="isolation:isolate"/><path d="M604.2,70.3a37,37,0,0,1,.1,8.8,48.78,48.78,0,0,1-4.6,19.2l-2.5,4.9a46,46,0,0,1-10,12c-.1.1-.3.6.1.5,8.8-1.1,17.5-2,26.3-2.8,8.3-.9,16.6-1.4,24.9-1.7.4,0,.7-1.5-.1-1.5-8,.2-16.1.8-24.1,1.6-8.3.7-16.5,1.5-24.8,2.3l.1.5,3.8-3.8a46,46,0,0,0,4.9-6.7,51.21,51.21,0,0,0,6-13c.6-2,1.1-4.1,1.5-6.1,1.3-5.8,1.2-11.7,1-17.6,0-.8-1,.6-1,.5C605.3,68.3,604.2,69.5,604.2,70.3Z" fill="#ff0" opacity="0.11" style="isolation:isolate"/><path d="M606.4,66.2a45.11,45.11,0,0,1,0,9,51.65,51.65,0,0,1-1.1,8.8l.1-.4-1.5,6,.1-.4a64.53,64.53,0,0,1-5.6,12.6,18.43,18.43,0,0,1-3,4.3,30.35,30.35,0,0,1-5.1,5.6c-.4.4-.3.5.2.3,8.2-1.3,16.5-2.5,24.7-3.6a205.91,205.91,0,0,1,23.4-2.3c.7,0,.9-5.7.9-5.8,0,.1.5-6,.1-5.9a109.58,109.58,0,0,0-23.9,6.4l.3-.1-14.2,3.9.2.3c2.8-3.9,3.8-4.9,5.8-9.2a57.87,57.87,0,0,0,2.5-5.7,78.4,78.4,0,0,0,3.9-17.9c.7-5.9,1.1-11.8,1.3-17.7a2.94,2.94,0,0,0-1.2,1c-1.2,1.5-2.5,3-3.7,4.6s-2.4,3.1-3.5,4.7A2.63,2.63,0,0,0,606.4,66.2Z" fill="#ff0" opacity="0.11" style="isolation:isolate"/><path d="M607,64.2a45.11,45.11,0,0,1,0,9,64.13,64.13,0,0,1-1.1,8.8l.1-.4-1.5,6,.1-.4-2,5.8.1-.4L600.2,98l.2-.3a36.87,36.87,0,0,1-4.4,6.7,34.63,34.63,0,0,1-5.1,5.7c-.4.3-.3.4.2.3l24.9-3.6c7.6-1.2,15.3-2,23.1-2.5.7-.1,1-5,1-5.2,0,.1.6-5.4.3-5.3a133.71,133.71,0,0,0-17.5,4.9,167.5,167.5,0,0,1-20.7,5.8h.4a52.78,52.78,0,0,0,4.4-6.8,56.16,56.16,0,0,0,5.2-13.6,140.69,140.69,0,0,0,3.4-29.6,1.55,1.55,0,0,0-1.1.8c-1.2,1.2-2.3,2.5-3.4,3.8s-2.2,2.5-3.3,3.9A1.64,1.64,0,0,0,607,64.2Z" fill="#ff0" opacity="0.11" style="isolation:isolate"/><path d="M605.1,68.1a50,50,0,0,1-.2,11.6,55.05,55.05,0,0,1-2.4,11.4,57.79,57.79,0,0,1-4.3,10.2,44.91,44.91,0,0,1-9.7,12c-.2.2-.1.3.2.3,8.3-1.3,16.7-2.4,25.1-3.1,8-.9,16-1.5,24-1.6.7,0,.5-4.8-.1-4.7a171.58,171.58,0,0,0-21.5,1.8c-7.1.8-14.1,1.8-21.1,3.1l.2.3a59.08,59.08,0,0,0,6.4-8.5,57.7,57.7,0,0,0,5.6-13.3c2.5-8.6,3.1-17.4,3.2-26.3,0-.3,0-.3-.3-.2l-.5.5c-.5.6-1.1,1.3-1.5,1.9a35.53,35.53,0,0,0-2.3,3.1A2.75,2.75,0,0,0,605.1,68.1Z" fill="#ff0" opacity="0.11" style="isolation:isolate"/><path d="M605,66.2a39.56,39.56,0,0,1,0,11.9,47,47,0,0,1-5.8,18.6,36.15,36.15,0,0,1-4.1,6.8,48.42,48.42,0,0,1-6.9,7.4c-.2.2-.2.6.2.6,8.7-1.1,17.5-2,26.2-2.7,8.2-.9,16.5-1.4,24.8-1.7.5,0,.4-1-.2-.9-8.1.2-16.2.7-24.2,1.5-8.3.7-16.7,1.5-25,2.5l.2.6c3.7-3.8,7.2-7.6,9.7-12.3a63,63,0,0,0,4.5-10.3c.5-1.8,1.1-3.9,1.5-5.7l1-5.8a33.45,33.45,0,0,0-.3-11.8C606.5,64.1,604.9,65.6,605,66.2Z" fill="#ff0" opacity="0.11" style="isolation:isolate"/><path d="M606.1,68l.2,6v-.4a75.92,75.92,0,0,1-3.7,20,51.33,51.33,0,0,1-3.3,7.6,48.41,48.41,0,0,1-9.5,12.1c-.2.3-.2.4.2.3,8.2-1.3,16.5-2.5,24.7-3.4a210.21,210.21,0,0,1,23.7-1.9c.7,0,.2-8.6-.3-8.6a84.07,84.07,0,0,0-19.3,2.8c-6.8,1.5-13.6,3-20.4,4.7l.2.3,3.2-4.1a47.73,47.73,0,0,0,4.2-7.3A63.15,63.15,0,0,0,610.7,82,128.41,128.41,0,0,0,613,58a1.76,1.76,0,0,0-1,.9c-1,1.3-1.9,2.6-2.8,3.9s-1.8,2.6-2.6,4A1.85,1.85,0,0,0,606.1,68Z" fill="#ff0" opacity="0.11" style="isolation:isolate"/><path d="M606.6,65.2a45.11,45.11,0,0,1,0,9,64.13,64.13,0,0,1-1.1,8.8l.1-.4-1.5,6,.1-.4-2,5.8.1-.4a55,55,0,0,1-5.1,9.6,38.24,38.24,0,0,1-6.7,7.7c-.4.3-.3.4.2.3,8.3-1.3,16.5-2.5,24.8-3.6a229,229,0,0,1,23.4-2.4c.7-.1,1-5.4,1.1-5.5,0,.2.7-5.7.3-5.6a96.21,96.21,0,0,0-17.5,4.7,164.54,164.54,0,0,1-20.5,5.8l.2.3c3.1-4.2,3.5-4.5,5.8-9.2a44.88,44.88,0,0,0,3.3-8.6c3-10.5,4-21.7,4.3-32.6a2.73,2.73,0,0,0-1.2.9l-3.6,4.2c-1.2,1.4-2.3,2.8-3.5,4.3A1.44,1.44,0,0,0,606.6,65.2Z" fill="#ff0" opacity="0.11" style="isolation:isolate"/><path d="M606.6,67c.3,9-.5,17.2-3.5,25.7a52.48,52.48,0,0,1-3.3,7.7,45.06,45.06,0,0,1-9.5,12.1c-.2.3-.2.4.2.3,8.2-1.3,16.4-2.4,24.7-3.3a210.21,210.21,0,0,1,23.7-1.9c.6,0,0-7.3-.7-7.2a94.39,94.39,0,0,0-19.8,2.7c-6.8,1.4-13.7,2.9-20.5,4.4l.2.3a60.56,60.56,0,0,0,6.2-8.8,56.16,56.16,0,0,0,5.2-13.6c2.3-8.7,2.9-17.8,3.1-26.8a1.6,1.6,0,0,0-.9.7l-2.4,3.3C608.6,63.5,606.5,65.7,606.6,67Z" fill="#ff0" opacity="0.11" style="isolation:isolate"/><path d="M604.7,71a33.47,33.47,0,0,1-.4,11.8,40.41,40.41,0,0,1-2.2,11.3l-2,5.2A46.35,46.35,0,0,1,588,115.6c-.3.3-.7.9,0,.8,8.7-1.1,17.4-2,26.2-2.8,8.2-.9,16.4-1.4,24.7-1.6.6,0,.7-1.4.2-1.3-8.2.2-16.3.7-24.5,1.6s-16.7,1.6-25,2.5l.1.5a59.8,59.8,0,0,0,6.7-7.5,50.86,50.86,0,0,0,6.7-12.6,57.18,57.18,0,0,0,3-11.3,28.68,28.68,0,0,0,.5-3.1,48.19,48.19,0,0,0,0-12c0-.7-.9.4-.9.4C605.4,69.4,604.6,70.3,604.7,71Z" fill="#ff0" opacity="0.11" style="isolation:isolate"/><path d="M378.5,357.7c-4.5,8.9-9.1,17.6-14.9,25.7-3.9,5.3-8,10.5-12.4,15.4a178.46,178.46,0,0,1-41.8,34.1,189.25,189.25,0,0,1-45,19.5,180.1,180.1,0,0,1-24,5.2,205.38,205.38,0,0,1-29.4,1.6,2.91,2.91,0,0,0,1.1,1.1c1.6,1.1,3.2,2.1,4.8,3.1s3.2,2,4.9,3a3.51,3.51,0,0,0,1.4.6c10.1-.7,20.2-1.5,30.1-3.7,6.6-1.4,13.1-3.2,19.6-5.2a192.34,192.34,0,0,0,49.8-24.5,194.39,194.39,0,0,0,37.8-33.5A178.18,178.18,0,0,0,375.9,380c5.4-8.2,10.2-16.8,14.8-25.4a1.7,1.7,0,0,0-1.4,0c-1.7.4-3.3.7-4.9,1.2s-3.3.8-4.9,1.3A2.19,2.19,0,0,0,378.5,357.7Z" fill="#ff0" opacity="0.11" style="isolation:isolate"/><path d="M378.9,359.3A164.18,164.18,0,0,1,358,392.9l.2-.3-6.6,7.8.2-.3-7,7.4.2-.3a163.34,163.34,0,0,1-14.6,13,177.17,177.17,0,0,1-15.9,11.4,182.15,182.15,0,0,1-30.4,15.7,187.06,187.06,0,0,1-32.7,10,179.7,179.7,0,0,1-19.3,2.9,159.83,159.83,0,0,1-19.6.6c-.4,0-.3,0-.2.3l.7.5a24.87,24.87,0,0,0,2.8,1.5c1.4.8,2.9,1.5,4.3,2.2a4.79,4.79,0,0,0,2,.7,233.57,233.57,0,0,0,24.9-2.6,186.56,186.56,0,0,0,24.3-5.8,194.92,194.92,0,0,0,37.2-16.2A198.26,198.26,0,0,0,345,414.8a189.16,189.16,0,0,0,17.5-18.3c10.7-12.8,19.1-27.1,27-41.8a1.64,1.64,0,0,0-1.2.2c-1.4.5-2.8,1.1-4.2,1.6a37.89,37.89,0,0,0-4.2,1.8A3.18,3.18,0,0,0,378.9,359.3Z" fill="#ff0" opacity="0.11" style="isolation:isolate"/><path d="M375,357a71.19,71.19,0,0,1-6.7,13.2,126.07,126.07,0,0,1-8,12.5,181,181,0,0,1-12.4,15.1A177.27,177.27,0,0,1,306.4,431a188,188,0,0,1-44.5,18.9,174.88,174.88,0,0,1-23.7,4.9,200.51,200.51,0,0,1-29,1.4c-.8,0,.7,1.2.6,1.1.6.5,2,1.8,2.8,1.8a189,189,0,0,0,29.1-2.1c6.4-1.1,12.7-2.4,19-4.1a189.33,189.33,0,0,0,86.4-51.3,175.71,175.71,0,0,0,15.7-18.8l5.5-8.2a90.07,90.07,0,0,0,8.9-17.5C377.6,356.3,375.2,356.6,375,357Z" fill="#ff0" opacity="0.11" style="isolation:isolate"/><path d="M374.9,363l-4.3,8.9a96.71,96.71,0,0,1-13.9,20.2,80.59,80.59,0,0,1-12.3,15,74.91,74.91,0,0,1-7,6.8A187.32,187.32,0,0,1,256.7,457c-6.3,1.5-12.7,2.7-19.1,3.6a188.42,188.42,0,0,1-29.1,1.2c-.4,0-.3.4-.2.6a2.92,2.92,0,0,0,1.4.5,222.63,222.63,0,0,0,29.4-1.4,177.18,177.18,0,0,0,28.7-6.3A192.79,192.79,0,0,0,316.5,432a178.89,178.89,0,0,0,40.1-36.1c2.1-2.6,4.2-5.3,6.2-8.1l5.5-8.3a104.24,104.24,0,0,0,9.2-17.5c.3-.6-.9-.1-.9-.1A4.52,4.52,0,0,0,374.9,363Z" fill="#ff0" opacity="0.11" style="isolation:isolate"/><path d="M378.2,360a173.53,173.53,0,0,1-9.4,17.5,146.48,146.48,0,0,1-8.4,12.2,128.3,128.3,0,0,1-9.3,11.4,181,181,0,0,1-13.9,13.8l.3-.3-7.8,6.5.3-.2-8.1,6.1.3-.2-8.5,5.7.3-.2-8.7,5.3.4-.2-9,4.8.4-.2c-5.9,2.8-11.8,5.6-17.9,7.9a186,186,0,0,1-23.4,7.1,179.46,179.46,0,0,1-19.2,3.4,220.31,220.31,0,0,1-24.4,1.3c-.5,0-.4,0-.1.3l.9.5c1.1.5,2.2,1.1,3.4,1.6,1.8.8,3.5,1.6,5.3,2.3a5.13,5.13,0,0,0,2.4.7,194.41,194.41,0,0,0,20.2-1.9,185.88,185.88,0,0,0,19.4-4.1A199.53,199.53,0,0,0,351,411a206.71,206.71,0,0,0,19.9-22.9c8-10.6,14.4-22.3,20.7-33.9a2.54,2.54,0,0,0-1.5.3c-1.8.7-3.5,1.4-5.2,2.2s-3.5,1.5-5.2,2.4A2,2,0,0,0,378.2,360Z" fill="#ff0" opacity="0.11" style="isolation:isolate"/><path d="M378.7,358.4c-4.5,8.9-9.1,17.6-14.9,25.7-3.9,5.3-8,10.5-12.3,15.4a180,180,0,0,1-41.7,34.1,182.94,182.94,0,0,1-44.9,19.5,175.35,175.35,0,0,1-23.9,5.2,204.85,204.85,0,0,1-29.3,1.7,3.46,3.46,0,0,0,1.1,1c1.6,1,3.2,2,4.8,2.9s3.2,1.9,4.9,2.8a2.39,2.39,0,0,0,1.4.5c10.2-.7,20.2-1.6,30.2-3.8,6.6-1.5,13.1-3.2,19.6-5.2a192.94,192.94,0,0,0,49.8-24.7,194.9,194.9,0,0,0,37.8-33.6,198.22,198.22,0,0,0,15.4-20.1c5.4-8.2,10.2-16.9,14.9-25.5a2.2,2.2,0,0,0-1.4.1c-1.7.5-3.4,1-5,1.5s-3.3,1.1-5,1.7A2.44,2.44,0,0,0,378.7,358.4Z" fill="#ff0" opacity="0.11" style="isolation:isolate"/><path d="M376.6,361.1c-4.4,8.9-9,17.6-14.8,25.6q-5.85,7.95-12.3,15.3a175.33,175.33,0,0,1-41.6,33.7,186.23,186.23,0,0,1-44.7,19.2,193.86,193.86,0,0,1-23.8,5.1,203.33,203.33,0,0,1-29.2,1.5c-1,0,1.7,1.2,1.2,1.1,1.2.5,2.9,1.5,4.3,1.5,10-.2,19.9-.6,29.8-2.4,6.6-1.2,13-2.6,19.5-4.4a187.29,187.29,0,0,0,50-22.4,191.69,191.69,0,0,0,38.3-31.8A173.92,173.92,0,0,0,369,383.6,251,251,0,0,0,383.9,358c.5-.9-2.2.5-2,.4-1.2.5-2.3,1.1-3.5,1.7A5.24,5.24,0,0,0,376.6,361.1Z" fill="#ff0" opacity="0.11" style="isolation:isolate"/><path d="M375.8,358.6a74.45,74.45,0,0,1-6.7,13.2,126.07,126.07,0,0,1-8,12.5,181,181,0,0,1-12.4,15.1,175.76,175.76,0,0,1-41.6,33.2,189.75,189.75,0,0,1-44.5,18.9,174.88,174.88,0,0,1-23.7,4.9,200.51,200.51,0,0,1-29,1.4c-.8,0,.6,1,.5,1,.6.4,1.6,1.3,2.4,1.3,9.8-.1,19.4-.4,29.1-2,6.4-1,12.8-2.4,19.1-4a188.9,188.9,0,0,0,87-51.3A163.75,163.75,0,0,0,363.6,384l5.5-8.2a82.77,82.77,0,0,0,9-17.5C378.5,357.6,376.1,358.1,375.8,358.6Z" fill="#ff0" opacity="0.11" style="isolation:isolate"/><path d="M377.7,361.4l-4.4,8.9.2-.3a198.82,198.82,0,0,1-13.4,20.8A165.7,165.7,0,0,1,344,409.2a177.1,177.1,0,0,1-39,29.3,193,193,0,0,1-40.4,16.9,177.26,177.26,0,0,1-23.8,5.2,203.46,203.46,0,0,1-29.2,1.7c-1.2,0,2.4,1.5,1.8,1.2,1.3.5,2.5,1,3.8,1.4a6.64,6.64,0,0,0,2,.6c10.1-.4,20-1,30-3a206.5,206.5,0,0,0,24.3-6.3,189.87,189.87,0,0,0,49.4-24.5,205,205,0,0,0,37.3-33.5c11-12.7,19.4-27.2,27.2-41.9a1.13,1.13,0,0,0-1.1.3c-1.3.6-2.6,1.3-3.9,2s-2.5,1.4-3.8,2.1A1.07,1.07,0,0,0,377.7,361.4Z" fill="#ff0" opacity="0.11" style="isolation:isolate"/><path d="M378.3,359.1a173.53,173.53,0,0,1-9.4,17.5,166.75,166.75,0,0,1-11.4,16.1,180,180,0,0,1-24.1,24.5,186.21,186.21,0,0,1-28.1,19.6,190.78,190.78,0,0,1-17.5,8.8q-9,3.9-18.3,6.9l.4-.1-9.8,2.8.4-.1-9.9,2.3.4-.1-10,1.8h.4l-10.1,1.2h.4l-10.2.6h-9.8a2.15,2.15,0,0,0,1.2.9c1.6.9,3.2,1.8,4.9,2.6s3.3,1.7,5,2.5a2.3,2.3,0,0,0,1.4.4c10.2-.7,20.2-1.6,30.1-3.8,6.6-1.5,13.1-3.2,19.6-5.2a192.94,192.94,0,0,0,49.8-24.7A194.9,194.9,0,0,0,361.5,400a183.72,183.72,0,0,0,15.3-20.1c5.4-8.2,10.2-16.9,14.9-25.6a2.62,2.62,0,0,0-1.5.2c-1.8.6-3.5,1.2-5.2,1.9s-3.5,1.3-5.2,2A2.13,2.13,0,0,0,378.3,359.1Z" fill="#ff0" opacity="0.11" style="isolation:isolate"/><path d="M378.2,360.6a142.66,142.66,0,0,1-12,21.2,64.44,64.44,0,0,1-5.7,8,176.32,176.32,0,0,1-16.1,18.5,180.71,180.71,0,0,1-39,29.4,191.6,191.6,0,0,1-40.5,16.9,175.85,175.85,0,0,1-23.7,5.2,204.3,204.3,0,0,1-29.2,1.7c-1.1,0,2.1,1.5,1.6,1.3,1.2.5,2.3,1.1,3.5,1.6a6,6,0,0,0,1.9.6c10.1-.4,20-1,29.9-2.9,6.5-1.3,13-2.8,19.4-4.7a187.21,187.21,0,0,0,49.9-23.1,190.64,190.64,0,0,0,38.1-32.4,183.91,183.91,0,0,0,15.5-19.7,266.27,266.27,0,0,0,15-25.8,1.23,1.23,0,0,0-1,.2c-1.1.5-2.3,1-3.4,1.6S378.7,359.4,378.2,360.6Z" fill="#ff0" opacity="0.11" style="isolation:isolate"/><path d="M375.4,363.5l-9.1,17.2-5.5,8.2A155.34,155.34,0,0,1,345,407.5a175.47,175.47,0,0,1-34.1,27.3,198,198,0,0,1-35,16.9,184.17,184.17,0,0,1-23.4,6.6c-14.5,3.1-28.1,4-43.4,3.8-.3,0-.2.4-.2.6s.8.3,1,.3c8.6.1,11,.3,19.6-.3a167,167,0,0,0,29-4.7,186.89,186.89,0,0,0,49.8-20.5,180.3,180.3,0,0,0,42-33.8,170.19,170.19,0,0,0,18-23.5l5-8.6a73.63,73.63,0,0,0,4.2-9c.2-.5-.8-.1-.8-.1A2.56,2.56,0,0,0,375.4,363.5Z" fill="#ff0" opacity="0.11" style="isolation:isolate"/><path d="M389.8,391.2a45.32,45.32,0,0,1-.5-9,51.39,51.39,0,0,1,.7-8.8l-.1.4c1.1-5.5,2.2-11,4.8-16.1l2.5-4.7a40.38,40.38,0,0,1,6.3-8l.2-.4c-8.3,1.8-16.6,3.4-24.9,4.9a204.67,204.67,0,0,1-23.3,3.5c-.7.1-.4,5.9-.4,5.9s0,6,.4,5.9a70.25,70.25,0,0,0,17.4-4.8c6.6-2.5,13.2-4.8,19.9-6.9l-.2-.3a59.62,59.62,0,0,0-5.5,9.9,50.24,50.24,0,0,0-2.7,8.3c-2.6,10.7-2.9,21.9-2.6,32.9a2.54,2.54,0,0,0,1.1-1.2c1.1-1.7,2.2-3.3,3.3-5s2.1-3.4,3.2-5.1A2.33,2.33,0,0,0,389.8,391.2Z" fill="#ff0" opacity="0.11" style="isolation:isolate"/><path d="M390.2,393.2a38.82,38.82,0,0,1-.4-9,53.39,53.39,0,0,1,.7-8.9l-.1.4,1.2-6-.1.4a65.93,65.93,0,0,1,5-13,26,26,0,0,1,2.8-4.5,30.75,30.75,0,0,1,4.9-5.9c.3-.3.3-.4-.2-.3-8.3,1.7-16.5,3.4-24.9,4.9a227.82,227.82,0,0,1-23.2,3.5c-.7.1-.8,4.4-.8,4.6,0-.1-.5,4.8,0,4.7a130.44,130.44,0,0,0,18.3-5c6.8-2.3,13.6-4.4,20.5-6.2l-.2-.3c-2.7,4-3.6,4.9-5.5,9.3-.8,1.9-1.6,3.8-2.2,5.7a72.22,72.22,0,0,0-3.1,17.9,172.28,172.28,0,0,0-.3,17.6,1.59,1.59,0,0,0,1-.8c1.1-1.2,2.1-2.5,3.1-3.8l3-3.9A3,3,0,0,0,390.2,393.2Z" fill="#ff0" opacity="0.11" style="isolation:isolate"/><path d="M391.1,388c-.5-5.9-1-11.8.2-17.7l5-15.6a48.65,48.65,0,0,1,9.2-12.5c.1-.1.4-.6,0-.6-8.5,1.4-17.1,2.7-25.6,3.8-8.2,1.2-16.4,2.2-24.6,2.9-.6.1-.7,2.1-.2,2,15.8-1.7,31.6-3.8,47.4-5.7v-.5c-3.5,4.1-6.9,8.4-9.1,13.4a66.06,66.06,0,0,0-3,8.5c-2.5,8.7-2.7,17.5-2.2,26.5,0,.9,1.2-1.1,1.1-.9a25.29,25.29,0,0,0,1.3-2.2A3.94,3.94,0,0,0,391.1,388Z" fill="#ff0" opacity="0.11" style="isolation:isolate"/><path d="M392.1,392.6a43.7,43.7,0,0,1-.6-16.9,53.54,53.54,0,0,1,3-10.9,50.28,50.28,0,0,1,4.9-9.5,53.8,53.8,0,0,1,6.5-7.8c.4-.4-.2-.6-.5-.5-8.6,1.5-17.3,2.9-26,4.1-8.2,1.2-16.5,2.2-24.8,3-.4,0,.1.5.4.5,8.2-.5,16.3-1.4,24.4-2.6,8.5-1.1,17-2.4,25.4-3.9l-.5-.5a55.83,55.83,0,0,0-7.8,10.3,49.32,49.32,0,0,0-5.2,12.6,71.87,71.87,0,0,0-1.8,11.3c-.7,8.1-1.5,4.8,1.5,11.2C391.5,393.5,392.2,393,392.1,392.6Z" fill="#ff0" opacity="0.11" style="isolation:isolate"/><path d="M389.3,394.2a38.82,38.82,0,0,1-.4-9,53.39,53.39,0,0,1,.7-8.9l-.1.4,1.2-6.1-.1.4,1.7-5.9-.1.4,2.2-5.5-.1.4a36.48,36.48,0,0,1,4-6.9,35.11,35.11,0,0,1,4.8-6c.4-.3.3-.4-.2-.3l-16.8,3.4.3-.1c-10.3,2.3-20.7,4-31.1,5.3-.7.1-.7,5.1-.7,5.3,0-.1-.3,5.4,0,5.3a128.77,128.77,0,0,0,17.2-5.8,149.2,149.2,0,0,1,20.5-6.8h-.4a48.61,48.61,0,0,0-4,7,52.57,52.57,0,0,0-4.5,13.9,141.36,141.36,0,0,0-1.9,29.8,2.44,2.44,0,0,0,1.1-.9c1.1-1.3,2.2-2.6,3.2-4s2.1-2.7,3.1-4.1C389,395.1,389.2,394.7,389.3,394.2Z" fill="#ff0" opacity="0.11" style="isolation:isolate"/><path d="M389.9,392.2a45.32,45.32,0,0,1-.5-9,51.39,51.39,0,0,1,.7-8.8l-.1.4,1.2-6.1-.1.4,1.7-5.8-.1.4a51.47,51.47,0,0,1,4.6-9.8,44.42,44.42,0,0,1,6.3-8c.4-.4.3-.5-.2-.3-8.2,1.7-16.4,3.3-24.6,4.9a230.06,230.06,0,0,1-23.3,3.6c-.7.1-.6,5.8-.6,5.9,0-.1-.3,6,.1,5.9a108.62,108.62,0,0,0,23.6-7.7l-.4.1,13.9-4.6-.2-.3c-2.8,4.3-3.3,4.8-5.3,9.5a53.34,53.34,0,0,0-2.9,8.8c-2.5,10.7-2.9,21.9-2.6,32.8a2,2,0,0,0,1.1-1.1c1.2-1.6,2.3-3.2,3.5-4.8s2.2-3.2,3.3-4.9A2.43,2.43,0,0,0,389.9,392.2Z" fill="#ff0" opacity="0.11" style="isolation:isolate"/><path d="M390.2,393.6a94,94,0,0,1-.4-11.9,57.34,57.34,0,0,1,2.6-14.2,52.88,52.88,0,0,1,4.3-10.1,22,22,0,0,1,2.8-4.4,29.55,29.55,0,0,1,4.9-5.7c.1-.2.1-.3-.2-.3-8.2,1.5-16.5,2.8-24.8,4-8,1.3-16,2.2-24,2.8-.5.1-.1,2.3.5,2.2,7.5-.7,15-1.6,22.4-2.8,7.1-1,14.2-2.2,21.2-3.5l-.2-.3a54.5,54.5,0,0,0-5.8,8.4,57,57,0,0,0-5,13.2c-2.1,8.6-2.2,17.3-1.9,26.2,0,.8,1.2-.7,1.2-.6.5-.6,1-1.2,1.5-1.9A1.67,1.67,0,0,0,390.2,393.6Z" fill="#ff0" opacity="0.11" style="isolation:isolate"/><path d="M391.9,389.7a51.88,51.88,0,0,1-.5-11.8,41.45,41.45,0,0,1,1.2-8.6,47.65,47.65,0,0,1,2.3-8.2A44,44,0,0,1,406,344s.6-.7,0-.6c-8.4,1.5-16.9,2.7-25.4,3.7-8.3,1.1-16.6,2.1-24.9,2.8-.4,0-.8,1.8,0,1.7,15.5-1.6,31-3.3,46.5-5.2l.1-.6a57.81,57.81,0,0,0-9,13.5c-4.9,10.9-5.6,22.6-4.8,34.3.1.9,1.2-.8,1.2-.8a24.26,24.26,0,0,0,1.4-2A2.26,2.26,0,0,0,391.9,389.7Z" fill="#ff0" opacity="0.11" style="isolation:isolate"/><path d="M390,394.6a65.63,65.63,0,0,1,2.9-28.5,49.6,49.6,0,0,1,4.6-9.9,40.89,40.89,0,0,1,6.4-8c.2-.2.2-.4-.1-.3-8.2,1.6-16.5,3.1-24.7,4.5a227.22,227.22,0,0,1-23.2,3.3c-.8.1-.2,5.4.2,5.3,4.3-.7,8.5-1.4,12.7-2.4,9-2.5,18.1-4.8,27.3-6.8l-.1-.3-3,4.1a39.35,39.35,0,0,0-3.7,7.4,59.45,59.45,0,0,0-3.9,14.3,122.29,122.29,0,0,0-1,23.4,1,1,0,0,0,.8-.5c.8-.8,1.5-1.6,2.3-2.4C388,397.3,390.1,395.6,390,394.6Z" fill="#ff0" opacity="0.11" style="isolation:isolate"/><path d="M389.4,393.3a45.32,45.32,0,0,1-.5-9,53.39,53.39,0,0,1,.7-8.9l-.1.4,1.2-6.1-.1.4,1.7-5.8-.1.4a49.6,49.6,0,0,1,4.6-9.9,45.11,45.11,0,0,1,6.3-8.1c.4-.4.3-.5-.2-.3-8.2,1.7-16.3,3.3-24.5,4.9a226.23,226.23,0,0,1-23.1,3.6c-.7.1-.6,5.5-.6,5.6,0-.1-.2,5.8.2,5.6a85.27,85.27,0,0,0,17.1-5.5,184,184,0,0,1,20.1-7l-.2-.3c-2.8,4.4-3.3,4.8-5.3,9.5a53,53,0,0,0-2.8,8.8c-2.5,10.6-2.9,21.9-2.5,32.8a2.17,2.17,0,0,0,1.1-1c1.1-1.4,2.2-2.9,3.3-4.4s2.1-3,3.2-4.5A3.34,3.34,0,0,0,389.4,393.3Z" fill="#ff0" opacity="0.11" style="isolation:isolate"/><path d="M390.6,393.6a73.26,73.26,0,0,1-.5-11.5,64,64,0,0,1,2.5-14.3,45.64,45.64,0,0,1,4.2-10.2,26,26,0,0,1,2.8-4.5,30.14,30.14,0,0,1,4.9-5.8c.2-.2.2-.4-.2-.3-8.2,1.6-16.5,3.2-24.8,4.6a202.54,202.54,0,0,1-23.4,3.2c-.8.1-.4,5.5,0,5.5a130.48,130.48,0,0,0,19.6-3.8c6.9-1.7,13.7-3.4,20.6-5l-.2-.3a28.21,28.21,0,0,0-4.3,6.5,42.57,42.57,0,0,0-3.5,7.5,80.94,80.94,0,0,0-3.2,14.6,127.78,127.78,0,0,0-.7,20.5,1.19,1.19,0,0,0,.9-.5c.8-.9,1.6-1.7,2.4-2.6C388.4,396.6,390.7,394.7,390.6,393.6Z" fill="#ff0" opacity="0.11" style="isolation:isolate"/><path d="M392.7,393.2a40.69,40.69,0,0,1-.7-17,51,51,0,0,1,3-10.8,50.28,50.28,0,0,1,4.9-9.5,53.8,53.8,0,0,1,6.5-7.8c.3-.3-.1-.6-.4-.6-8.7,1.5-17.4,2.9-26,4-8.2,1.2-16.5,2.2-24.8,2.9-.4,0,.4.4.5.4,8.2-.5,16.3-1.4,24.5-2.6,8.5-1.1,17-2.3,25.4-3.9l-.4-.5a66.35,66.35,0,0,0-7.8,10.3,47.89,47.89,0,0,0-5.2,12.6l-1.3,5.6-.5,5.7c-.7,8.1-1.4,4.7,1.5,11.3C392.1,393.7,392.9,393.6,392.7,393.2Z" fill="#ff0" opacity="0.11" style="isolation:isolate"/><path d="M210.4,18.4l6.4-2.3-.4.1a79.91,79.91,0,0,1,12.8-2.3,66.32,66.32,0,0,1,12.6.2A107.93,107.93,0,0,1,260.4,18c14,4.2,27.2,10.7,40.2,17.2,15.1,7.6,29.9,16,42.2,27.7a105.19,105.19,0,0,1,14.7,17.2,88.24,88.24,0,0,1,7.2,13.1,83.51,83.51,0,0,1,4.9,14.6c.4,1.3.9-3.3.8-2.7.2-1.8.4-3.5.6-5.3a12.21,12.21,0,0,0,.1-2.7l-3-7.6A66.39,66.39,0,0,0,362.4,79a106.1,106.1,0,0,0-9.3-12.7,134.08,134.08,0,0,0-14.2-14,154.46,154.46,0,0,0-34-21.4c-16-7.6-32.8-14.7-50.3-18.8a100.88,100.88,0,0,0-30-2.7c-8.9.7-17.7,2.9-26.3,5.5a1.43,1.43,0,0,0,1.2.6c1.6.5,3.2,1,4.8,1.4s3.2.9,4.8,1.2A1.26,1.26,0,0,0,210.4,18.4Z" fill="#ff0" opacity="0.11" style="isolation:isolate"/><path d="M211.6,20.1a56.22,56.22,0,0,1,12.9-3.7l-.4.1,6.8-.9h-.4a84.55,84.55,0,0,1,18.8,1.2A116.81,116.81,0,0,1,264.7,21c11.8,4,23.1,9.5,34.2,15l-.3-.2c7,3.5,13.8,7.1,20.6,11l-.3-.2,7,4.4-.3-.2,6.7,4.7-.3-.2,6.4,5-.3-.2c7.6,6.8,14.6,13.8,20.2,22.3a83.93,83.93,0,0,1,7.1,13.2,92.39,92.39,0,0,1,4.8,14.6c.4,1.4.8-3.6.7-2.9.1-1.9.2-3.7.3-5.6a14.05,14.05,0,0,0,0-2.9,68.16,68.16,0,0,0-4.7-11.2,46.37,46.37,0,0,0-3.8-6.9A111.65,111.65,0,0,0,351.1,65a110.42,110.42,0,0,0-11.6-11.1A169.63,169.63,0,0,0,312.9,36a304.34,304.34,0,0,0-34.4-15.6,163.47,163.47,0,0,0-33-9.3,84.16,84.16,0,0,0-16.6-1c-10,.3-19.8,2.5-29.3,5.4a2.1,2.1,0,0,0,1.1.8c1.5.7,3.1,1.3,4.7,1.9l4.8,1.8A2.2,2.2,0,0,0,211.6,20.1Z" fill="#ff0" opacity="0.11" style="isolation:isolate"/><path d="M213.5,18.2a46.09,46.09,0,0,1,12.6-3.9,59.24,59.24,0,0,1,12.6-.7,88.66,88.66,0,0,1,18.4,3.2c14.8,4.2,28.8,11.4,42.4,18.4,15.9,8.2,31.7,16.9,44.4,29.7A106.59,106.59,0,0,1,358,82.2a82,82,0,0,1,11,27.7c.1.3.4.2.6.1s.3-.9.2-1.2a85.88,85.88,0,0,0-4.5-14.7,83.84,83.84,0,0,0-6.9-13.3,99.62,99.62,0,0,0-14.3-17.4c-13-12.3-28.7-21.2-44.8-29.4-13.8-7-28.1-14.3-43.1-18.3a92.26,92.26,0,0,0-18.8-3.1,60.79,60.79,0,0,0-12.8.8,38.76,38.76,0,0,0-12.5,3.9C211,17.8,213.1,18.4,213.5,18.2Z" fill="#ff0" opacity="0.11" style="isolation:isolate"/><path d="M213.4,24.1a43.39,43.39,0,0,1,12.8-4,43,43,0,0,1,9.5-.7,77.73,77.73,0,0,1,18.5,2.5c13.7,3.5,26.6,9.6,39.1,15.9,13.5,6.8,26.9,13.7,39,22.8a117.44,117.44,0,0,1,16.8,15.5A85.75,85.75,0,0,1,358,88a82.45,82.45,0,0,1,11.2,27.7c.2.8.7-1.3.6-1a8.55,8.55,0,0,0,.1-3.2c-.6-2.5-1.4-5.1-2.1-7.5a86.15,86.15,0,0,0-6.1-13.9,106.89,106.89,0,0,0-13.2-18.2c-13-14.4-30.2-24.3-47.4-32.9-14-6.9-28-13.7-42.9-17.9a87.15,87.15,0,0,0-21.5-3.6,67.86,67.86,0,0,0-12.7.9,39.66,39.66,0,0,0-12.6,4.1C210.6,22.7,212.9,24.2,213.4,24.1Z" fill="#ff0" opacity="0.11" style="isolation:isolate"/><path d="M210.7,20.6a56.88,56.88,0,0,1,12.8-3.7,60.83,60.83,0,0,1,12.8-.9h-.4l6.7.5h-.4l6.7,1-.4-.1,6.7,1.4-.4-.1,6.6,1.9-.4-.1,6.6,2.2-.4-.1,6.5,2.6-.4-.2a395.67,395.67,0,0,1,41.9,20.5,152.74,152.74,0,0,1,19.6,13.2,89.39,89.39,0,0,1,8.8,7.5,107.5,107.5,0,0,1,10.1,11.2l-.3-.3,4.6,6.4-.2-.3,4.1,6.8-.2-.4a63.42,63.42,0,0,1,4.6,10.3,60.85,60.85,0,0,1,3.4,11c.1.4.1.4.4,0l.2-1.2c.2-1.4.3-2.7.5-4.1l.6-6.3a6.62,6.62,0,0,0-.1-2.8c-1-2.5-2-5.1-3.1-7.6a89.58,89.58,0,0,0-7.9-13.8,113.79,113.79,0,0,0-15.4-17.8c-14.6-14-32.7-23.6-51.1-31.6-15-6.6-30.5-12.5-46.7-15.2a97.08,97.08,0,0,0-23.5-1.1,131.8,131.8,0,0,0-25.7,5.3,2.73,2.73,0,0,0,1.2.9q2.55,1.35,5.1,2.4c1.7.7,3.4,1.6,5.1,2.3A3.19,3.19,0,0,0,210.7,20.6Z" fill="#ff0" opacity="0.11" style="isolation:isolate"/><path d="M210.7,19.1a56.88,56.88,0,0,1,12.8-3.7l-.4.1a51.19,51.19,0,0,1,9.6-.9,49.28,49.28,0,0,1,9.4.3,90.69,90.69,0,0,1,18.6,4c13,4.1,25.2,9.9,37.4,15.9l-.3-.2c4.6,2.3,9.2,4.6,13.7,7,4.7,2.5,9.2,5.3,13.6,8.2l-.3-.2,6.7,4.6-.3-.2,6.4,5-.3-.2,6,5.3-.3-.2A106.45,106.45,0,0,1,353.2,75a66.64,66.64,0,0,1,6.4,9.3,78.64,78.64,0,0,1,5.3,9.9,83.51,83.51,0,0,1,4.9,14.6c.1.4.2.5.4,0,.2-1,.4-2,.5-3,.2-1.9.4-3.9.5-5.9a15.82,15.82,0,0,0,.1-3.1c-3.1-7.6-6.4-15-11.1-21.7a109.75,109.75,0,0,0-15.1-17.5,150.73,150.73,0,0,0-22.6-17.1c-11.2-7-23.2-12.5-35.4-17.5-15.9-6.6-32.4-12.2-49.7-13.6-13.5-1.1-26.8,1.6-39.6,5.5a2.09,2.09,0,0,0,1.3.7l5.1,1.8c1.7.6,3.4,1.1,5.1,1.6A3.44,3.44,0,0,0,210.7,19.1Z" fill="#ff0" opacity="0.11" style="isolation:isolate"/><path d="M211.8,22a58.58,58.58,0,0,1,18.8-4.4,66.4,66.4,0,0,1,12.6.4,105.75,105.75,0,0,1,18.5,4.3c13.8,4.5,26.9,11.1,39.8,17.8,15,7.7,29.6,16.2,41.8,28a104.17,104.17,0,0,1,14.4,17.3,83.39,83.39,0,0,1,7,13.2,82.52,82.52,0,0,1,4.6,14.6c.3,1.2.9-2.6.8-2,.2-1.4.3-2.7.5-4.1a14.77,14.77,0,0,0,.1-2.1A93.21,93.21,0,0,0,365,90.3a83.43,83.43,0,0,0-8-13.1,113.82,113.82,0,0,0-15.5-17c-13.8-12.3-29.9-20.9-46.6-28.6-14.2-6.6-29-13.2-44.5-16.1a88.6,88.6,0,0,0-19.2-1.8c-8.8.2-17.2,2.4-25.6,5a1,1,0,0,0,.5.6,20.13,20.13,0,0,0,2.5,1.4C209,20.9,210.9,22.3,211.8,22Z" fill="#ff0" opacity="0.11" style="isolation:isolate"/><path d="M214.1,19.5a53.5,53.5,0,0,1,25-4.5,60.21,60.21,0,0,1,9.4,1.1,113.72,113.72,0,0,1,18.4,5.1c13.7,5,26.7,11.8,39.6,18.6,13.9,7.3,27,15.7,38.3,26.6a97.29,97.29,0,0,1,14,17.3,79.75,79.75,0,0,1,11,27.8c.1.4.4.2.6.1a3.72,3.72,0,0,0,.2-1.8,84,84,0,0,0-11.6-28,103.12,103.12,0,0,0-20.1-22.6c-13.6-11.6-29.6-19.8-45.6-27.7-14-6.9-28.5-13.7-44-16.6a72.36,72.36,0,0,0-19.7-1.2c-2.2.2-4.4.5-6.5.9a57.31,57.31,0,0,0-12.2,3.7c-.7.2.7.8.7.7C212.3,19.2,213.5,19.8,214.1,19.5Z" fill="#ff0" opacity="0.11" style="isolation:isolate"/><path d="M211.7,22.1a39.69,39.69,0,0,1,9.6-3,51.85,51.85,0,0,1,9.6-1.5h-.4l6.7-.1h-.4l6.6.5H243a119.07,119.07,0,0,1,18.6,4.2c6.4,2.1,12.6,4.7,18.8,7.4l-.3-.1q14.4,6.75,28.5,14.1c4.7,2.5,9.3,5.1,13.8,8,5.5,3.6,10.7,7.4,15.8,11.5l-.3-.2,6,5.4-.3-.3,5.5,5.7-.3-.3c4.8,5.8,9.5,11.5,12.9,18.2l3.1,6.7a82.52,82.52,0,0,1,4.6,14.6c.1.4.2.5.4,0a15.44,15.44,0,0,0,.4-3c.2-1.9.3-3.9.4-5.8a15,15,0,0,0,0-3,90.9,90.9,0,0,0-6.2-14.8,57.47,57.47,0,0,0-4.2-7.1,102.52,102.52,0,0,0-9.4-12.3c-13.3-14.9-30.5-26-48.5-34.4-15.8-7.5-32-14.8-49.2-18.6a96.26,96.26,0,0,0-26.2-2.4c-8.6.5-17.1,2.6-25.4,5.1a1.42,1.42,0,0,0,.9.8c1.3.8,2.6,1.5,3.9,2.2s2.6,1.4,4,2.1C210.9,22,211.3,22.2,211.7,22.1Z" fill="#ff0" opacity="0.11" style="isolation:isolate"/><path d="M210.5,19.8a41.11,41.11,0,0,1,9.6-3,51.85,51.85,0,0,1,9.6-1.5h-.4l6.8-.2h-.4a74.64,74.64,0,0,1,12.5,1.3,107,107,0,0,1,12.4,3.1,208.21,208.21,0,0,1,25.1,10l-.4-.2c10,4.8,20,9.5,29.6,15a158.66,158.66,0,0,1,13.4,8.5,173.72,173.72,0,0,1,15,12.2l-.3-.3,5.6,5.7-.3-.3,5.1,6-.3-.3,4.6,6.4-.2-.3a84.48,84.48,0,0,1,7.2,13.2,75.63,75.63,0,0,1,4.8,14.6c.1.4.1.4.4,0l.2-1.1c.2-1.3.3-2.5.5-3.8.2-2,.4-3.9.6-5.9a5.72,5.72,0,0,0-.1-2.6,109,109,0,0,0-6.8-14.7,100.67,100.67,0,0,0-14.1-19c-13.8-14.8-31.3-25.7-49.6-34-16.2-7.4-32.9-14.4-50.4-17.7a100.28,100.28,0,0,0-26.8-1.7,126,126,0,0,0-25.8,5.4,2,2,0,0,0,1.2.8c1.7.7,3.3,1.4,5,2.1l5.1,2.1A3.08,3.08,0,0,0,210.5,19.8Z" fill="#ff0" opacity="0.11" style="isolation:isolate"/><path d="M212.2,21.3A56.88,56.88,0,0,1,225,17.6h-.3l6.7-.8h-.3a66.36,66.36,0,0,1,12.6.3l6.2,1a113.81,113.81,0,0,1,21.5,6.6c14.2,5.6,27.8,12.7,41.3,19.8l-.3-.2,7.2,4.2-.3-.2,7,4.4-.3-.2c10.4,7.3,20.5,15.3,28.2,25.6a102.7,102.7,0,0,1,8.1,12.5c3.7,6.8,5.9,13.9,7.9,21.3.4,1.3.7-3.3.7-2.6.1-1.7.2-3.4.3-5a11.29,11.29,0,0,0,0-2.6,135.5,135.5,0,0,0-6.1-14.8,83.92,83.92,0,0,0-10.8-16.1,122.73,122.73,0,0,0-19.8-19C321,41.3,305.5,33.9,290,27s-31.8-13.2-48.8-15a86.11,86.11,0,0,0-13.4-.4c-8.6.4-17.3,2.6-25.5,5.1a1.76,1.76,0,0,0,.9.8c1.3.7,2.6,1.3,3.9,1.9l3.9,1.8A1.67,1.67,0,0,0,212.2,21.3Z" fill="#ff0" opacity="0.11" style="isolation:isolate"/><path d="M214,24.6a47.44,47.44,0,0,1,12.8-3.9,43,43,0,0,1,9.5-.7,76.38,76.38,0,0,1,18.5,2.5c13.7,3.5,26.6,9.7,39.2,16,13.5,6.8,26.8,13.8,38.9,22.8a116.44,116.44,0,0,1,16.7,15.4,85.75,85.75,0,0,1,8.9,11.9,82.26,82.26,0,0,1,11,27.5c.1.6.4.5.6,0a6.87,6.87,0,0,0,.2-3.2c-1.6-6-2.4-9.4-4.9-15.2a89,89,0,0,0-11.6-19.4c-12-15.3-28.4-26.5-45.5-35.4-14.9-7.5-30.2-15.2-46.2-20.3A91.28,91.28,0,0,0,237.3,18a67.86,67.86,0,0,0-12.7.9A41.07,41.07,0,0,0,211.9,23C211.2,23.2,213.5,24.8,214,24.6Z" fill="#ff0" opacity="0.11" style="isolation:isolate"/><path d="M342.9,88l4.7.8-.3-.1a40.38,40.38,0,0,1,8.8,3.2,42.82,42.82,0,0,1,7.7,5.1,39.36,39.36,0,0,1,6.4,6.5,41.21,41.21,0,0,1,4.8,7.7c.2.3.3.3.3-.1.3-8.3.5-16.6.8-24.9.1-7.7.5-15.3,1.3-22.9,0-.6-4.9-1-5-1,.1,0-5.1-.8-5.1-.3a92.05,92.05,0,0,0,2.2,17.4,118.08,118.08,0,0,1,2.6,21.4l.3-.1-3-3.7a43.54,43.54,0,0,0-5.5-5,56.82,56.82,0,0,0-10.5-6.7,72.23,72.23,0,0,0-9.1-3.7,60.87,60.87,0,0,0-9.6-2.2,2.38,2.38,0,0,0,.6,1.1c1,1.2,2.1,2.3,3.2,3.4l3.3,3.3A1.67,1.67,0,0,0,342.9,88Z" fill="#ff0" opacity="0.11" style="isolation:isolate"/><path d="M344.1,90.1a35.34,35.34,0,0,1,9.2,2.2l-.4-.1a35.62,35.62,0,0,1,8.2,4.3,31.17,31.17,0,0,1,5.3,4.3,31,31,0,0,1,4.6,5,38.1,38.1,0,0,1,4.6,7.8c.2.4.3.3.3-.1.3-8.4.6-16.8.9-25.3q.3-11.7,1.5-23.4c0-.7-4.3-1.7-4.5-1.7.1,0-4.7-1.4-4.7-1a131.08,131.08,0,0,0,1.4,18.8,191,191,0,0,1,1.8,21.4l.3-.1a48.94,48.94,0,0,0-18.5-15.7,41.63,41.63,0,0,0-4.8-2.2,74.34,74.34,0,0,0-13.8-3.8,2.28,2.28,0,0,0,.6,1.2c1.1,1.3,2.1,2.6,3.3,3.8s2.2,2.5,3.4,3.7A2.8,2.8,0,0,0,344.1,90.1Z" fill="#ff0" opacity="0.11" style="isolation:isolate"/><path d="M345.7,90c4.6.4,8.5,1,12.5,3.4l13,12a50.53,50.53,0,0,1,4.3,7.9c.1.2.7.6.7.1.5-8.9,1.2-17.7,1.9-26.6.6-8.2,1.4-16.5,2.4-24.6a.4.4,0,0,0-.8,0c-1.7,16.8-3.1,33.4-4.3,50.2l.7.1c-2.9-5.7-6.1-10.9-10.8-15.1a40.33,40.33,0,0,0-7.6-5.4l-4.2-2a27,27,0,0,0-8-1C344.8,89,345.3,90,345.7,90Z" fill="#ff0" opacity="0.11" style="isolation:isolate"/><path d="M344.9,95a30.9,30.9,0,0,1,9,2,27.28,27.28,0,0,1,6.1,3.2,33.12,33.12,0,0,1,11.1,10.6,40.35,40.35,0,0,1,4.3,7.9c.2.5.5.5.6-.1,1.4-17,2.9-34,4.6-50.9a.5.5,0,0,0-1,0c-1.8,15.9-3.2,31.8-4.9,47.7l.6-.1a51.31,51.31,0,0,0-9.7-13,40.87,40.87,0,0,0-9.4-6.6l-4.3-1.8a36.52,36.52,0,0,0-8.7-1.9C342.6,91.8,344.1,94.9,344.9,95Z" fill="#ff0" opacity="0.11" style="isolation:isolate"/><path d="M343.4,90.6a28.23,28.23,0,0,1,7,1.5,30.44,30.44,0,0,1,6.5,2.6l-.4-.2,4.3,2.6-.4-.2a47.75,47.75,0,0,1,8.5,7.7,43.44,43.44,0,0,1,6.1,9.6c.2.5.3.4.3-.1.6-16.4,1.1-32.8,2.1-49.1.1-.8-4.6-2.6-4.9-2.7.1.1-5.2-2.2-5.2-2,.7,6.2,1.5,12.5,2.4,18.6a142.22,142.22,0,0,1,2,21.6l.1-.4a61.68,61.68,0,0,0-4.8-5.4,51.61,51.61,0,0,0-9.9-7.5c-2.9-1.6-5.9-3.1-8.9-4.4a67.05,67.05,0,0,0-13.8-3.7,2.67,2.67,0,0,0,.7,1.4c1.1,1.6,2.3,3.1,3.5,4.7s2.4,3.1,3.6,4.6A6.22,6.22,0,0,0,343.4,90.6Z" fill="#ff0" opacity="0.11" style="isolation:isolate"/><path d="M343.3,88.7a31.74,31.74,0,0,1,9.2,2.2l-.4-.1a39.63,39.63,0,0,1,8.2,4.2,36.38,36.38,0,0,1,5.4,4.3,37.09,37.09,0,0,1,4.7,5,36.13,36.13,0,0,1,4.7,7.7c.2.4.4.4.3-.1.2-5.7.4-11.3.5-17,.1-10.4.6-20.8,1.5-31.1,0-.7-5.1-1.6-5.2-1.6.1,0-5.5-1.2-5.4-.8A130.61,130.61,0,0,0,369.2,79a119.17,119.17,0,0,1,2.6,21.4l.3-.1a37.67,37.67,0,0,0-6.6-7.2L361.6,90a55.18,55.18,0,0,0-6.6-4c-2.2-1.2-4.4-2.2-6.7-3.2a69.77,69.77,0,0,0-14.1-3.7,1.85,1.85,0,0,0,.7,1.2c1.1,1.3,2.3,2.6,3.5,3.9s2.4,2.5,3.5,3.7A3.36,3.36,0,0,0,343.3,88.7Z" fill="#ff0" opacity="0.11" style="isolation:isolate"/><path d="M344,92.5a33.84,33.84,0,0,1,13.1,4,38.64,38.64,0,0,1,7.5,5.2,43,43,0,0,1,6.1,6.7,34,34,0,0,1,4.4,7.9c.2.3.3.3.4-.1q.6-12.75,1.5-25.5c.5-8,1.2-16,2.3-23.9.1-.7-3-1.5-3-1a193.23,193.23,0,0,0-1.9,21.4c-.4,7-.7,14-.8,21l.4-.1-2.5-3.8a40.37,40.37,0,0,0-4.8-5.4,44.86,44.86,0,0,0-9.5-7.2,67.9,67.9,0,0,0-8.7-3.9,42.49,42.49,0,0,0-9.2-2.2,1,1,0,0,0,.2.9l1.8,2.7C341.8,90,342.9,92.4,344,92.5Z" fill="#ff0" opacity="0.11" style="isolation:isolate"/><path d="M346,90.8a34,34,0,0,1,16.8,6.4,41.89,41.89,0,0,1,13.7,17.7.33.33,0,0,0,.6-.2c.6-8.8,1.2-17.6,1.9-26.3.6-8.2,1.4-16.5,2.4-24.7.1-.5-1.1-.8-1.2-.2-1.7,16.5-3,33-4.2,49.6l.6-.2c-3-5.6-6.2-10.7-11-14.9a37.56,37.56,0,0,0-12.1-7.4,35,35,0,0,0-9.1-1.8c-.6-.1.1.8.1.8A4.43,4.43,0,0,0,346,90.8Z" fill="#ff0" opacity="0.11" style="isolation:isolate"/><path d="M344.2,92.5a28.23,28.23,0,0,1,7,1.5,30.44,30.44,0,0,1,6.5,2.6l-.3-.2c4,2.4,7.8,4.9,10.9,8.4l2.9,3.5a38.44,38.44,0,0,1,4.5,7.9c.2.4.3.4.3-.1.3-8.6.7-17.1,1.1-25.7.3-8,.8-16,1.6-23.9.1-.7-2.8-1.8-3.1-1.9.1,0-3.5-1.6-3.5-1.2a188.74,188.74,0,0,0,.2,19.9c.4,7.1.6,14.1.6,21.2l.3-.1a29.33,29.33,0,0,0-4.4-5.6,41.81,41.81,0,0,0-5.3-5,38.07,38.07,0,0,0-4.1-2.9,57.08,57.08,0,0,0-8.8-4.7A70.32,70.32,0,0,0,337,82.4a1.66,1.66,0,0,0,.5,1.2c.9,1.3,1.8,2.7,2.8,4s1.9,2.6,2.9,3.9A2.4,2.4,0,0,0,344.2,92.5Z" fill="#ff0" opacity="0.11" style="isolation:isolate"/><path d="M343.2,89.6a28.23,28.23,0,0,1,7,1.5,30.44,30.44,0,0,1,6.5,2.6l-.4-.2c4,2.4,7.8,4.8,11,8.3l3,3.5a38.51,38.51,0,0,1,4.7,7.8c.2.4.4.4.4-.1.3-8.4.6-16.8.9-25.3.1-7.8.5-15.6,1.2-23.3,0-.8-4.8-2.1-5-2.2.1,0-5.3-1.8-5.3-1.5.6,6.1,1.5,12.1,2.5,18.2a130.88,130.88,0,0,1,2.3,21.6l.3-.1c-2.7-3.3-3.4-4.4-6.6-7.2-1.4-1.2-2.8-2.3-4.2-3.4a61.21,61.21,0,0,0-13.1-7,73,73,0,0,0-13.9-3.7,2.09,2.09,0,0,0,.7,1.3c1.1,1.4,2.2,2.9,3.4,4.2s2.3,2.8,3.5,4.2A2.42,2.42,0,0,0,343.2,89.6Z" fill="#ff0" opacity="0.11" style="isolation:isolate"/><path d="M344.6,91.7a33.36,33.36,0,0,1,9.2,2.2l-.3-.1c4.3,1.9,8.3,3.9,11.8,7.1l3.3,3.2a38.77,38.77,0,0,1,7.4,11.3c.2.3.3.3.3-.1.3-8.5.7-17,1.1-25.4q.45-11.85,1.8-23.7c0-.7-2.9-1.3-3.1-1.4,0,0-3.4-1.2-3.4-.7a148.32,148.32,0,0,0-.1,20c.3,7.1.5,14.1.7,21.2l.3-.1-2.7-3.8a31.37,31.37,0,0,0-5.1-5.2,46.13,46.13,0,0,0-10-7c-1.5-.8-3.1-1.6-4.7-2.3a58.51,58.51,0,0,0-13.6-3.8,1.61,1.61,0,0,0,.5,1.1c.9,1.2,1.8,2.4,2.7,3.5s1.9,2.3,2.8,3.4A3.88,3.88,0,0,0,344.6,91.7Z" fill="#ff0" opacity="0.11" style="isolation:isolate"/><path d="M345.5,95.7a32.3,32.3,0,0,1,9.1,2,25.09,25.09,0,0,1,9.3,6.1,24.22,24.22,0,0,1,7.9,7.7,41.13,41.13,0,0,1,4.3,8c.2.5.5.4.6-.1.7-8.7,1.4-17.5,2-26.2.6-8.4,1.4-16.7,2.5-25,.1-.5-.9-.6-.9,0-1.2,8-2,16-2.6,24.1s-1.3,16.1-2.2,24.1l.6-.1c-3-5.5-6.4-10.7-11.3-14.7a40.76,40.76,0,0,0-7.8-5.2l-4.2-1.9a32.8,32.8,0,0,0-8.8-1.8C343.3,92.6,344.9,95.6,345.5,95.7Z" fill="#ff0" opacity="0.11" style="isolation:isolate"/><path d="M9.8,217c23.7-.3,47.5-.4,71.2-.1s47.5,1.4,71.3,2.6a1.59,1.59,0,0,0-.8-1c-1.2-1-2.5-2-3.7-2.9s-2.5-1.9-3.8-2.8a1.66,1.66,0,0,0-1.2-.5c-23.8-1.1-47.7-2-71.6-2.3-23.6-.3-47.2-.1-70.7-.4a1.59,1.59,0,0,0,.8,1l3.6,3c1.2,1,2.5,2,3.7,2.9A3.34,3.34,0,0,0,9.8,217Z" fill="#ff0" opacity="0.11" style="isolation:isolate"/><path d="M11,219c23.8-.3,47.5-.5,71.3-.1s47.5,1.4,71.3,2.6a1.55,1.55,0,0,0-.8-1.1c-1.2-1.2-2.5-2.3-3.8-3.4l-3.9-3.3a1.85,1.85,0,0,0-1.2-.7c-23.8-1.1-47.7-2-71.5-2.3-23.6-.3-47.1-.1-70.7-.4a1.55,1.55,0,0,0,.8,1.1c1.2,1.2,2.4,2.3,3.7,3.5s2.5,2.3,3.8,3.4C10.1,218.7,10.5,218.9,11,219Z" fill="#ff0" opacity="0.11" style="isolation:isolate"/><path d="M13,218.6a337.13,337.13,0,0,1,34.8-1.1q17.85,0,35.7.3c23.8.4,47.5,1.4,71.2,2.6,1,.1-.4-1.4-.8-1.4-26.7-1.4-53.5-2.4-80.2-2.7-11.9-.1-23.8-.2-35.7-.1-14.1.1-6.7-.1-25.4,1.4C11.8,217.7,12.5,218.7,13,218.6Z" fill="#ff0" opacity="0.11" style="isolation:isolate"/><path d="M12.1,223.9c47.5-1.4,94.9-.2,142.4,2.3.7,0-.1-1-.2-1-.3-.4-1.2-1.9-1.8-1.9-23.7-1.2-47.5-2.2-71.2-2.6-11.9-.2-23.8-.3-35.7-.2-11.7-.1-23.4.1-35.1.8C9.6,221.2,11.5,223.9,12.1,223.9Z" fill="#ff0" opacity="0.11" style="isolation:isolate"/><path d="M10.3,219.5c23.8-.3,47.5-.5,71.2-.1s47.6,1.4,71.3,2.6a3,3,0,0,0-.9-1.3c-1.4-1.4-2.7-2.8-4.1-4.1s-2.8-2.7-4.2-4a3,3,0,0,0-1.3-.9c-23.8-1.1-47.7-2-71.6-2.3-23.5-.3-47-.1-70.5-.5a2.22,2.22,0,0,0,.8,1.3l3.9,4.2c1.3,1.4,2.7,2.8,4,4.1A2.63,2.63,0,0,0,10.3,219.5Z" fill="#ff0" opacity="0.11" style="isolation:isolate"/><path d="M10.1,217.7c23.7-.3,47.5-.5,71.2-.1s47.5,1.4,71.3,2.6a2,2,0,0,0-.9-1.1l-4-3.4c-1.3-1.1-2.7-2.2-4.1-3.2a1.61,1.61,0,0,0-1.3-.6c-23.8-1.1-47.7-2-71.6-2.3-23.6-.3-47.1-.1-70.7-.5a1.67,1.67,0,0,0,.9,1.1c1.3,1.2,2.6,2.3,3.9,3.5s2.7,2.3,4,3.3A1.89,1.89,0,0,0,10.1,217.7Z" fill="#ff0" opacity="0.11" style="isolation:isolate"/><path d="M11,221.3c23.7-.4,47.4-.6,71.2-.2s47.5,1.4,71.3,2.6a.91.91,0,0,0-.4-.8c-.7-.8-1.4-1.6-2.2-2.4-.6-.6-2-2.6-3.1-2.7-23.8-1.1-47.6-2.1-71.4-2.4-23.5-.4-47.1-.1-70.7-.2a1.14,1.14,0,0,0,.3.8c.7.8,1.3,1.7,2,2.4C8.5,219.1,10,221.3,11,221.3Z" fill="#ff0" opacity="0.11" style="isolation:isolate"/><path d="M13.2,219.5c47.5-1.4,94.9-.2,142.3,2.3.7,0-.3-.9-.3-.9a3.87,3.87,0,0,0-1.9-1.2c-23.8-1.2-47.6-2.2-71.4-2.6q-17.85-.3-35.7-.3c-11.6-.1-23.3.1-34.9.8-.6,0,.2.8.2.8C11.9,218.8,12.6,219.5,13.2,219.5Z" fill="#ff0" opacity="0.11" style="isolation:isolate"/><path d="M11.1,221.3c23.7-.3,47.5-.5,71.2-.1s47.5,1.4,71.3,2.6a1.64,1.64,0,0,0-.7-1.1l-3.3-3.6c-1.1-1.2-2.3-2.3-3.4-3.4a1.9,1.9,0,0,0-1.1-.7c-23.8-1.1-47.6-2-71.5-2.4-23.5-.3-47-.1-70.5-.4a2.28,2.28,0,0,0,.6,1.2c1,1.2,2,2.5,3.1,3.7s2.1,2.4,3.2,3.6A2.38,2.38,0,0,0,11.1,221.3Z" fill="#ff0" opacity="0.11" style="isolation:isolate"/><path d="M10,218.5c23.7-.3,47.5-.5,71.2-.1s47.5,1.4,71.3,2.6a2.15,2.15,0,0,0-.9-1.2c-1.3-1.3-2.7-2.5-4-3.7s-2.7-2.4-4.1-3.6a2.22,2.22,0,0,0-1.3-.8c-23.8-1.1-47.7-2-71.6-2.3-23.5-.3-47.1-.1-70.6-.5a2,2,0,0,0,.8,1.2c1.3,1.3,2.5,2.6,3.9,3.8s2.6,2.5,4,3.7A1.85,1.85,0,0,0,10,218.5Z" fill="#ff0" opacity="0.11" style="isolation:isolate"/><path d="M11.5,220.5c23.7-.3,47.5-.5,71.2-.1s47.5,1.4,71.3,2.6a1.45,1.45,0,0,0-.7-1c-1.1-1.1-2.1-2.1-3.2-3.1s-2.2-2-3.4-3a2.38,2.38,0,0,0-1.1-.6c-23.8-1.1-47.6-2-71.5-2.4-23.5-.3-47-.1-70.6-.4a1.7,1.7,0,0,0,.6,1c1,1.1,2,2.2,3.1,3.2s2.1,2.1,3.2,3.1A2.27,2.27,0,0,0,11.5,220.5Z" fill="#ff0" opacity="0.11" style="isolation:isolate"/><path d="M12.7,224.4c47.5-1.2,95-.1,142.5,2.3.7,0-1.2-2.9-1.9-2.9-47.4-2.4-94.9-3.7-142.4-2.1C10.2,221.7,12.1,224.4,12.7,224.4Z" fill="#ff0" opacity="0.11" style="isolation:isolate"/><path d="M139.1,206.6a15,15,0,0,1-7.1-2.7l.4.2a23.75,23.75,0,0,1-5.3-5.2,30.83,30.83,0,0,1-3.2-4.8c-2.4-4-4.4-8.1-6.4-12.3-.2-.4-.2-.4-.3,0V183c.1,1.4.3,2.9.5,4.3l.9,6.6a6.81,6.81,0,0,0,.7,2.8A62.23,62.23,0,0,0,132.1,211a50.56,50.56,0,0,0,6.7,4.7,16.15,16.15,0,0,0,3.5,1.7,17.39,17.39,0,0,0,5.6,1.7,2.63,2.63,0,0,0-.7-1.5c-1.1-1.7-2.2-3.4-3.4-5s-2.3-3.3-3.5-4.9A4.26,4.26,0,0,0,139.1,206.6Z" fill="#ff0" opacity="0.11" style="isolation:isolate"/><path d="M140,208.8l-3.8-.9.3.1a18.22,18.22,0,0,1-6.1-4.1,38.69,38.69,0,0,1-4.8-5.9,124.92,124.92,0,0,1-7.6-13.9c-.6-1.3-.2,3.6-.2,2.9.1,1.8.3,3.7.5,5.5a12.61,12.61,0,0,0,.5,2.8,66.07,66.07,0,0,0,15.5,17,30,30,0,0,0,5.4,3.3A31.24,31.24,0,0,0,147,218a1.61,1.61,0,0,0-.5-1.1c-.9-1.2-1.8-2.5-2.7-3.7s-1.9-2.4-2.8-3.6A1.59,1.59,0,0,0,140,208.8Z" fill="#ff0" opacity="0.11" style="isolation:isolate"/><path d="M137.9,203.3a14.87,14.87,0,0,1-6.8-2.6,31,31,0,0,1-7.8-9.8c-2.3-4.1-4.2-8.5-6.1-12.8-.4-.9-.3,2-.3,1.6a11.08,11.08,0,0,0,.8,4.4c2.7,5.2,5.4,10.4,9.1,15a28.51,28.51,0,0,0,4.1,4.4l3.1,2.2a16,16,0,0,0,6.7,2.5c.8.2-.3-1.5-.3-1.4-.5-.8-.9-1.5-1.4-2.3A14.25,14.25,0,0,0,137.9,203.3Z" fill="#ff0" opacity="0.11" style="isolation:isolate"/><path d="M136.7,207.9l-3.3-.6a29.34,29.34,0,0,1-11.2-13.2c-1.8-3.6-3.5-7.3-5.2-11-.1-.2-.5-.1-.6.1a1.73,1.73,0,0,0,.1,1c2.8,5.8,5.2,12.1,8.9,17.3a22,22,0,0,0,4.1,4.5,6.12,6.12,0,0,0,1.7,1.5,10.37,10.37,0,0,0,5.7,1.5C137.5,208.9,137.2,208,136.7,207.9Z" fill="#ff0" opacity="0.11" style="isolation:isolate"/><path d="M139.7,209.6l-3.8-.9.4.1-3.3-1.7a45.39,45.39,0,0,1-10.7-13.2c-1.6-2.9-3.1-5.8-4.6-8.8-.2-.4-.3-.4-.3.1a16.28,16.28,0,0,0,.3,3.1c.3,2,.6,3.9.9,5.9a15.94,15.94,0,0,0,.6,3,65.18,65.18,0,0,0,14.6,15.5,40.81,40.81,0,0,0,7.2,4.4,32,32,0,0,0,7.4,2.4,1.85,1.85,0,0,0-.7-1.2c-1.1-1.3-2.2-2.7-3.4-4s-2.3-2.6-3.5-3.9A2.1,2.1,0,0,0,139.7,209.6Z" fill="#ff0" opacity="0.11" style="isolation:isolate"/><path d="M139.5,207.7a15.46,15.46,0,0,1-7.1-2.7l.4.2a23.75,23.75,0,0,1-5.3-5.2,40.72,40.72,0,0,1-3.3-4.8c-2.4-4-4.5-8.1-6.5-12.3-.2-.4-.2-.4-.3.1v1.2c.1,1.4.3,2.8.4,4.1.2,2.1.5,4.2.8,6.3a6.37,6.37,0,0,0,.7,2.7,66.36,66.36,0,0,0,14.5,15.4c1.1.8,2.3,1.7,3.5,2.5l3.6,1.9a24.09,24.09,0,0,0,7.3,2.4,2.67,2.67,0,0,0-.7-1.4c-1.1-1.6-2.2-3.2-3.4-4.7s-2.3-3.1-3.5-4.6A2,2,0,0,0,139.5,207.7Z" fill="#ff0" opacity="0.11" style="isolation:isolate"/><path d="M138.4,208.9l-3.8-1a37.27,37.27,0,0,1-13.1-15c-1.5-2.9-2.9-5.9-4.3-8.8-.4-1-.6-.1-.6.5a11,11,0,0,0,.8,4c3.1,5.8,6.2,11.9,10.9,16.6a32.51,32.51,0,0,0,6.1,5,25.14,25.14,0,0,0,7.6,3c.9.2-.8-1.6-.6-1.4-.6-.7-1.3-1.3-1.9-2A10.63,10.63,0,0,0,138.4,208.9Z" fill="#ff0" opacity="0.11" style="isolation:isolate"/><path d="M138.6,204.8a9.54,9.54,0,0,1-7.5-4.2,15.07,15.07,0,0,1-6-6.5,147.23,147.23,0,0,1-7-14.4c-.4-.8-.4,1.7-.4,1.3a8.75,8.75,0,0,0,.5,3.6c2.7,5.1,5.3,10.3,8.9,14.9a25.91,25.91,0,0,0,3.9,4.2,16.58,16.58,0,0,0,3.1,2.3,16.88,16.88,0,0,0,6.5,2.3c.7.2-.1-1.1-.1-1.2C140.1,206.7,139.3,204.9,138.6,204.8Z" fill="#ff0" opacity="0.11" style="isolation:isolate"/><path d="M139.6,210l-3.7-.9a23.46,23.46,0,0,1-9.2-7.9,31,31,0,0,1-4.2-7,75.61,75.61,0,0,1-4.7-8.9c-.5-1-.2,2.5-.3,1.9.1,1.2.3,2.4.5,3.6a9.51,9.51,0,0,0,.4,1.8,69.72,69.72,0,0,0,11.2,14.7,33.8,33.8,0,0,0,6.3,5,18.29,18.29,0,0,0,3.4,1.8,14.66,14.66,0,0,0,5.4,1.6c1,.2-1.2-2-1-1.8-.9-.9-1.7-1.8-2.6-2.7Z" fill="#ff0" opacity="0.11" style="isolation:isolate"/><path d="M139.4,208.6l-3.8-.9.4.2a17.74,17.74,0,0,1-6.1-4.1,32.92,32.92,0,0,1-4.7-5.9,116.59,116.59,0,0,1-7.6-13.9c-.2-.4-.2-.3-.3,0v1.1c.1,1.3.3,2.6.5,3.8.3,2,.6,3.9.9,5.9a7.17,7.17,0,0,0,.7,2.5A67.56,67.56,0,0,0,130.6,210a55.78,55.78,0,0,0,6.9,5.1c1.2.6,2.4,1.3,3.6,1.9a23.79,23.79,0,0,0,7.4,2.4,2.09,2.09,0,0,0-.7-1.3c-1.1-1.5-2.3-2.9-3.4-4.4s-2.4-2.9-3.6-4.3A10,10,0,0,0,139.4,208.6Z" fill="#ff0" opacity="0.11" style="isolation:isolate"/><path d="M139.9,209.2l-3.7-.9a15.27,15.27,0,0,1-8.9-9.2,32.59,32.59,0,0,1-6.6-9.4c-.9-1.7-1.7-3.5-2.6-5.2-.5-1.1-.3,2.6-.3,2,.1,1.3.2,2.5.4,3.8a5.85,5.85,0,0,0,.4,1.9,68.82,68.82,0,0,0,11,14.7,33.15,33.15,0,0,0,6.2,5,18.29,18.29,0,0,0,3.4,1.8,14.74,14.74,0,0,0,5.3,1.6c1,.2-1-2-.8-1.8-.8-1-1.6-2-2.4-2.9A9.24,9.24,0,0,0,139.9,209.2Z" fill="#ff0" opacity="0.11" style="isolation:isolate"/><path d="M137.1,208.2c-7.8-1.3-11.6-7.7-14.5-13.8-1.8-3.6-3.3-7.3-5-10.9-.2-.4-.9-.1-.7.4,3.3,7,6,14.9,11.4,20.7a15.28,15.28,0,0,0,3,2.7c2.3,1.4,3.2,1.3,5.9,1.6C137.6,209.1,137.6,208.3,137.1,208.2Z" fill="#ff0" opacity="0.11" style="isolation:isolate"/><path d="M158.3,303.5a1.59,1.59,0,0,0-.8-1c-1.2-1.1-2.3-2.1-3.5-3.1l-3.6-3a2.38,2.38,0,0,0-1.1-.6,1.59,1.59,0,0,0,.8,1c1.1,1,2.3,2.1,3.5,3.1l3.6,3A1.52,1.52,0,0,0,158.3,303.5Z" fill="#ff0" opacity="0.11" style="isolation:isolate"/><path d="M159.5,305.5a1.55,1.55,0,0,0-.8-1.1c-1.2-1.2-2.4-2.4-3.6-3.5l-3.7-3.4a1.85,1.85,0,0,0-1.2-.7,1.55,1.55,0,0,0,.8,1.1c1.2,1.2,2.4,2.4,3.6,3.5s2.4,2.3,3.7,3.4A1.85,1.85,0,0,0,159.5,305.5Z" fill="#ff0" opacity="0.11" style="isolation:isolate"/><path d="M161.4,305.2c.7,0,.1-1-.4-1C160.3,304.2,160.9,305.2,161.4,305.2Z" fill="#ff0" opacity="0.11" style="isolation:isolate"/><path d="M160.5,310.4c.7,0-1-2.8-1.7-2.8S159.9,310.4,160.5,310.4Z" fill="#ff0" opacity="0.11" style="isolation:isolate"/><path d="M158.8,306a2.22,2.22,0,0,0-.8-1.3c-1.2-1.5-2.5-2.9-3.8-4.3s-2.6-2.8-4-4.2a2.38,2.38,0,0,0-1.3-.9,2.22,2.22,0,0,0,.8,1.3c1.3,1.5,2.5,2.9,3.8,4.3l3.9,4.2A2.43,2.43,0,0,0,158.8,306Z" fill="#ff0" opacity="0.11" style="isolation:isolate"/><path d="M158.6,304.2a1.55,1.55,0,0,0-.8-1.1c-1.2-1.2-2.5-2.4-3.8-3.6s-2.6-2.3-3.9-3.4a2.13,2.13,0,0,0-1.2-.7,1.55,1.55,0,0,0,.8,1.1c1.2,1.2,2.5,2.4,3.8,3.5s2.6,2.3,3.9,3.4A1.85,1.85,0,0,0,158.6,304.2Z" fill="#ff0" opacity="0.11" style="isolation:isolate"/><path d="M159.4,307.9c.2,0-2.4-3.4-2.3-3.4-.4-.5-1.9-2.9-2.9-2.9-.2,0,2.4,3.4,2.3,3.4C157,305.5,158.5,307.9,159.4,307.9Z" fill="#ff0" opacity="0.11" style="isolation:isolate"/><path d="M161.6,306c.6,0-.1-.8-.2-.8a2.92,2.92,0,0,0-1.6-1.1c-.5,0,.1.8.2.8C160.4,305.3,161.1,306,161.6,306Z" fill="#ff0" opacity="0.11" style="isolation:isolate"/><path d="M159.6,307.9a1.74,1.74,0,0,0-.6-1.2c-1-1.3-2-2.5-3-3.7s-2.1-2.5-3.2-3.6a1.55,1.55,0,0,0-1.1-.8,1.74,1.74,0,0,0,.6,1.2c1,1.3,2,2.5,3,3.7s2.1,2.5,3.2,3.6A2.1,2.1,0,0,0,159.6,307.9Z" fill="#ff0" opacity="0.11" style="isolation:isolate"/><path d="M158.5,305.1a2,2,0,0,0-.8-1.2c-1.2-1.3-2.5-2.6-3.8-3.9l-3.8-3.8a2,2,0,0,0-1.2-.8,2,2,0,0,0,.8,1.2c1.2,1.3,2.5,2.6,3.8,3.9s2.6,2.6,3.9,3.8A1.55,1.55,0,0,0,158.5,305.1Z" fill="#ff0" opacity="0.11" style="isolation:isolate"/><path d="M160,307.1a1.74,1.74,0,0,0-.6-1.1l-3-3.3c-1-1.1-2.1-2.1-3.1-3.2a1.33,1.33,0,0,0-1-.6,2.38,2.38,0,0,0,.6,1.1l3,3.3c1,1.1,2.1,2.1,3.1,3.2A2.07,2.07,0,0,0,160,307.1Z" fill="#ff0" opacity="0.11" style="isolation:isolate"/><path d="M161.1,310.9c.7,0-1.1-2.8-1.7-2.8S160.5,310.9,161.1,310.9Z" fill="#ff0" opacity="0.11" style="isolation:isolate"/><path d="M116.8,240.2l1.1-3.6-.2.4a21.61,21.61,0,0,1,9.6-10.2l-2.9,1.7,8.7-4-8,2.4,11.7-3.4-8.1,1.6,11.9-2.2-8,.8,12-.9h-7.9l12,.3-7.7-.8,11.9,1.5c.2,0,1.1.2,1.3,0s-2.1-.8-2.1-.8l-5.1-1.2a20.42,20.42,0,0,0-4.3-.8,52.37,52.37,0,0,0-13.1,2.5,35.46,35.46,0,0,0-12.6,7.6,41.86,41.86,0,0,0-7.6,9.2,43.39,43.39,0,0,0-4,9.1,2.67,2.67,0,0,0,1.4-.7c1.5-1.2,3-2.3,4.5-3.6s3-2.4,4.4-3.7A2.16,2.16,0,0,0,116.8,240.2Z" fill="#ff0" opacity="0.11" style="isolation:isolate"/><path d="M117.3,241.9a16.7,16.7,0,0,1,3-6.8l-.2.3c8.4-10.3,17.1-13.3,35-9.9.4,0,.5-.1.1-.3a13.59,13.59,0,0,0-2.8-1.1c-1.8-.6-3.6-1.3-5.5-1.9a13.79,13.79,0,0,0-2.9-.8,47.84,47.84,0,0,0-13.1,2.1,34.89,34.89,0,0,0-12.7,7.2,40.47,40.47,0,0,0-6.8,7.5,39.63,39.63,0,0,0-4.9,10.4,2.84,2.84,0,0,0,1.3-.4c1.4-.8,2.9-1.7,4.3-2.6l4.2-2.7A2.4,2.4,0,0,0,117.3,241.9Z" fill="#ff0" opacity="0.11" style="isolation:isolate"/><path d="M118.8,237.3a17.9,17.9,0,0,1,7.8-11.2l-2.1,1.6,31.5-4.2c.2,0,1.3.3,1.5,0s-.1-.5-.4-.6c-6.6-1.9-13.2-2.9-20.1-1.6a30.77,30.77,0,0,0-8.8,3.1,29,29,0,0,0-5.8,4.1,21.61,21.61,0,0,0-7,11.4c-.2.8,1.3-.5,1.2-.4C117.3,239,118.5,238.2,118.8,237.3Z" fill="#ff0" opacity="0.11" style="isolation:isolate"/><path d="M119.9,242.7c.5-4.4,2.4-7.8,5.7-10,8.2-6.9,18.7-8,31.4-3.4.5.1.4-.3.3-.5-.1-.4-1.4-.9-1.7-1-5.3-1.3-10.7-2.2-16.2-1.4a31.35,31.35,0,0,0-10.8,3.2c-2.7,1.4-6.8,4.1-8.3,6.9-1.1,2-1.1,4-1.3,6.2C118.8,243.2,119.9,243,119.9,242.7Z" fill="#ff0" opacity="0.11" style="isolation:isolate"/><path d="M116.2,242.8a18.68,18.68,0,0,1,2.9-6.8l-.2.3a22.49,22.49,0,0,1,5-5.2c8.4-6.4,18.4-8.1,30.2-5.1.5.1.3-.1.1-.3l-1-.5c-1.2-.5-2.4-1-3.5-1.5-1.8-.7-3.6-1.5-5.5-2.1a5.42,5.42,0,0,0-2.5-.6,46.38,46.38,0,0,0-12.8,2.7,38.51,38.51,0,0,0-9.5,5.3,41.46,41.46,0,0,0-7.3,7.2,28.53,28.53,0,0,0-2.5,3.3l-2,3.4a25.38,25.38,0,0,0-2.7,6.9,1.84,1.84,0,0,0,1.3-.4c1.5-.8,3-1.7,4.5-2.6s3-1.8,4.4-2.8A4,4,0,0,0,116.2,242.8Z" fill="#ff0" opacity="0.11" style="isolation:isolate"/><path d="M116.9,241a18.68,18.68,0,0,1,2.9-6.8l-.2.4a24,24,0,0,1,11.2-8.7l-3.2,1.3,6.7-2.5-3.2,1,7-1.8-3.3.6,18.4-.1c.3.1,1.1.3,1.4.1s-2.2-.9-2.3-1a56.18,56.18,0,0,0-5.5-1.5c-1.3-.3-3.3-1.2-4.6-1.1-6,.6-11.8,1.5-17.2,4.4a38.18,38.18,0,0,0-10,7.4,59,59,0,0,0-5,6.2,38,38,0,0,0-5,10.8,2.67,2.67,0,0,0,1.4-.7c1.6-1.1,3.2-2.2,4.7-3.4s3.1-2.3,4.7-3.5A2.35,2.35,0,0,0,116.9,241Z" fill="#ff0" opacity="0.11" style="isolation:isolate"/><path d="M117.4,242.8a18.22,18.22,0,0,1,2.9-6.7A28.24,28.24,0,0,1,138.6,226c5.5-.8,10.8,0,16.2,1.2,1.3.3.5-.4-.2-.8s-1.7-.9-2.6-1.3a8.49,8.49,0,0,0-2.2-.9,48.33,48.33,0,0,0-12.6.2,33.23,33.23,0,0,0-11.1,3.8,29.77,29.77,0,0,0-8.6,7.2l-2.1,3a22.89,22.89,0,0,0-2.9,6.6c-.3.8,1.5-.2,1.4-.2.8-.4,1.5-.8,2.3-1.3A2.4,2.4,0,0,0,117.4,242.8Z" fill="#ff0" opacity="0.11" style="isolation:isolate"/><path d="M119.4,239a11.31,11.31,0,0,1,3-6.2,17.51,17.51,0,0,1,11.2-8.3l-2.7,1,25.4-.9c.1,0,1.5.5,1.6.1s-.4-.5-.7-.6a50.27,50.27,0,0,0-12.8-2,34.24,34.24,0,0,0-9,1.2,36.43,36.43,0,0,0-8.9,3.7,23.4,23.4,0,0,0-6.1,5.2c-.8,1-1.5,2-2.3,3a19.72,19.72,0,0,0-2.8,6.5c-.3.8,1.4-.4,1.3-.3C117.4,240.9,119.2,239.9,119.4,239Z" fill="#ff0" opacity="0.11" style="isolation:isolate"/><path d="M117.2,243.4c1.5-4.9,3.6-8.6,7.7-11.5,8.8-6.3,18.7-7,30.3-4.4.4.1.4,0,.2-.3a10.46,10.46,0,0,0-2.3-1.3c-1.5-.8-3-1.5-4.5-2.2a12.23,12.23,0,0,0-2.4-1,51,51,0,0,0-12.9,1.4A35.68,35.68,0,0,0,112.9,239c-.4.6-.8,1.2-1.2,1.9a22.18,22.18,0,0,0-2.6,6.6,1.18,1.18,0,0,0,1-.1c1.1-.5,2.2-1,3.2-1.5C114.1,245.3,116.9,244.4,117.2,243.4Z" fill="#ff0" opacity="0.11" style="isolation:isolate"/><path d="M116.3,241.9a18.68,18.68,0,0,1,2.9-6.8l-.2.3c8.3-10.3,17-13.4,34.9-10.3.5,0,.5-.1.1-.3a18.77,18.77,0,0,0-3-1.2c-1.9-.7-3.9-1.3-5.9-2a15.83,15.83,0,0,0-3.1-.9c-6,.6-11.7,1.7-17.2,4.5a38.18,38.18,0,0,0-10,7.4,50.21,50.21,0,0,0-5,6.2,38.43,38.43,0,0,0-4.9,10.7,2,2,0,0,0,1.4-.6c1.6-1,3.1-2,4.6-3s3-2,4.5-3.1A1.34,1.34,0,0,0,116.3,241.9Z" fill="#ff0" opacity="0.11" style="isolation:isolate"/><path d="M117.8,242.5a18.14,18.14,0,0,1,5-9.2c8.4-8,19.3-10.3,32.9-6.7.4,0,.4-.1.1-.3a11.3,11.3,0,0,0-2.2-1.1c-1.5-.6-3-1.3-4.5-1.9a11.28,11.28,0,0,0-2.4-.8c-5.8,0-11.5.3-16.9,2.6a38.72,38.72,0,0,0-10.3,6.2,33,33,0,0,0-10.2,15.8,1.23,1.23,0,0,0,1-.2c1.1-.5,2.2-1.1,3.3-1.7C114.5,244.7,117.4,243.6,117.8,242.5Z" fill="#ff0" opacity="0.11" style="isolation:isolate"/><path d="M120.5,243.2l4.2-8.9a18,18,0,0,1,4.5-3.1c8.6-4.8,18.4-4.4,28.4-1.4.5.1.4-.3.3-.5-.1-.4-1.3-.9-1.7-1a50.55,50.55,0,0,0-12.2-1.7,32.22,32.22,0,0,0-13,2.7,25.1,25.1,0,0,0-8.9,6.2,3.74,3.74,0,0,0-1.3,1.5,14.07,14.07,0,0,0-1.1,6.1C119.5,243.6,120.5,243.5,120.5,243.2Z" fill="#ff0" opacity="0.11" style="isolation:isolate"/><path d="M946.2,217.9c-23.8.4-47.5.5-71.3.1s-47.5-1.4-71.3-2.6a4.19,4.19,0,0,0,.9,1.4c1.3,1.5,2.7,2.9,4.1,4.4s2.8,2.9,4.2,4.3a2.38,2.38,0,0,0,1.3.9c23.8,1.1,47.7,1.9,71.6,2.2,23.5.3,47,.1,70.5.4a2.85,2.85,0,0,0-.8-1.4l-3.9-4.5c-1.3-1.5-2.7-2.9-4-4.4A2.87,2.87,0,0,0,946.2,217.9Z" fill="#ff0" opacity="0.11" style="isolation:isolate"/><path d="M947.2,219.9c-23.8.3-47.5.5-71.2.1s-47.5-1.4-71.3-2.5a1.45,1.45,0,0,0,.7,1c1.1,1.1,2.2,2.2,3.3,3.2l3.4,3.1a1.74,1.74,0,0,0,1.1.6c23.8,1.1,47.7,2,71.5,2.3,23.5.3,47.1.1,70.6.4a1.9,1.9,0,0,0-.7-1.1c-1-1.1-2.1-2.2-3.2-3.3s-2.2-2.1-3.3-3.1A1.11,1.11,0,0,0,947.2,219.9Z" fill="#ff0" opacity="0.11" style="isolation:isolate"/><path d="M944.5,214.7c-23.6.5-47.3.6-70.9.3s-47.5-1.4-71.3-2.6c-.8,0,.5,1.4.5,1.4.6.7,1.2,1.3,1.8,2a3.13,3.13,0,0,0,1.1.9c23.8,1.2,47.5,2.1,71.3,2.4,23.6.4,47.2.1,70.9-.1.4,0-1.5-2.5-1.4-2.4C946.1,216.1,945.3,214.7,944.5,214.7Z" fill="#ff0" opacity="0.11" style="isolation:isolate"/><path d="M943.4,219.4c-11.6.9-23.1,1.3-34.8,1.2q-17.85,0-35.7-.3c-23.8-.4-47.5-1.4-71.2-2.6-1,0,.2,1.3.7,1.3,23.8,1.2,47.5,2.2,71.3,2.6q17.85.3,35.7.3a245.44,245.44,0,0,0,34.3-1.5C944.5,220.3,943.9,219.4,943.4,219.4Z" fill="#ff0" opacity="0.11" style="isolation:isolate"/><path d="M946.8,220.7c-23.8.3-47.5.5-71.2.1s-47.5-1.3-71.3-2.5a2,2,0,0,0,.9,1.1c1.3,1.2,2.7,2.3,4,3.4s2.7,2.2,4.1,3.3a1.61,1.61,0,0,0,1.3.6c23.8,1.1,47.7,1.9,71.6,2.2,23.6.3,47.1.1,70.7.4a1.55,1.55,0,0,0-.8-1.1c-1.3-1.2-2.6-2.4-3.9-3.5s-2.6-2.3-4-3.4A4.24,4.24,0,0,0,946.8,220.7Z" fill="#ff0" opacity="0.11" style="isolation:isolate"/><path d="M946.7,218.9c-23.8.3-47.5.5-71.2.1s-47.5-1.4-71.3-2.5a2.38,2.38,0,0,0,.9,1.3c1.3,1.4,2.7,2.8,4.1,4.1s2.8,2.7,4.2,4a3,3,0,0,0,1.3.9c23.8,1.1,47.7,1.9,71.6,2.2,23.5.3,47,.1,70.5.5a2.22,2.22,0,0,0-.8-1.3l-3.9-4.2c-1.3-1.4-2.7-2.8-4-4.1A2.46,2.46,0,0,0,946.7,218.9Z" fill="#ff0" opacity="0.11" style="isolation:isolate"/><path d="M945.4,220.2c-23.8.3-47.5.5-71.2.1s-47.5-1.4-71.3-2.6c-.9,0,1.1,1.4.9,1.3l2.3,1.7a3.29,3.29,0,0,0,1.3.7c23.8,1.2,47.6,2.1,71.4,2.4s47.3,0,71,.2c.9,0-1-1.4-.8-1.3-.7-.6-1.5-1.2-2.3-1.8A5.39,5.39,0,0,0,945.4,220.2Z" fill="#ff0" opacity="0.11" style="isolation:isolate"/><path d="M945.4,216.1c-47.5,1.2-94.8.2-142.2-2.2-.8,0,.4,1.1.4,1.2.4.5,1.6,2.1,2.3,2.2,23.8,1.2,47.5,2.1,71.3,2.5,23.5.4,47,.2,70.5-.4.7,0-.2-1-.2-1.1C947.1,217.8,946.1,216.1,945.4,216.1Z" fill="#ff0" opacity="0.11" style="isolation:isolate"/><path d="M946.7,221.2c-23.7.4-47.4.6-71.1.2s-47.5-1.3-71.3-2.5c-1.1,0,1.6,1.8,1.3,1.6a37.12,37.12,0,0,0,3.2,2.3,5.24,5.24,0,0,0,1.8,1c23.8,1.1,47.6,2,71.5,2.4,23.5.3,47.1.1,70.6.2,1,0-1.4-1.8-1.3-1.7-1-.8-2-1.6-3.1-2.4A3.55,3.55,0,0,0,946.7,221.2Z" fill="#ff0" opacity="0.11" style="isolation:isolate"/><path d="M946.6,219.8c-23.8.3-47.5.5-71.2.1s-47.5-1.3-71.3-2.5a2.73,2.73,0,0,0,.9,1.2c1.3,1.3,2.7,2.5,4.1,3.8s2.8,2.5,4.2,3.7a2.22,2.22,0,0,0,1.3.8c23.8,1.1,47.7,1.9,71.6,2.2,23.5.3,47.1.1,70.6.4a2.15,2.15,0,0,0-.9-1.2c-1.3-1.3-2.7-2.6-4-3.9s-2.7-2.5-4.1-3.8A2,2,0,0,0,946.6,219.8Z" fill="#ff0" opacity="0.11" style="isolation:isolate"/><path d="M946.7,220.3c-23.6.4-47.2.6-70.8.2-23.8-.4-47.5-1.3-71.3-2.5-1-.1,1.4,1.8,1.2,1.7l3,2.4a9.91,9.91,0,0,0,1.7,1.1c23.8,1.1,47.6,2,71.5,2.4,23.6.3,47.2.1,70.8.2a1.23,1.23,0,0,0-.4-.8,25,25,0,0,0-2.4-2.2C949.3,222.2,947.7,220.3,946.7,220.3Z" fill="#ff0" opacity="0.11" style="isolation:isolate"/><path d="M943.8,219.8a334.33,334.33,0,0,1-34.7,1.2q-17.85,0-35.7-.3c-23.8-.4-47.5-1.4-71.2-2.6-.7,0-.2,1,.3,1,23.8,1.2,47.5,2.2,71.3,2.6q17.85.3,35.7.3a284.35,284.35,0,0,0,34.5-1.4A.41.41,0,1,0,943.8,219.8Z" fill="#ff0" opacity="0.11" style="isolation:isolate"/><path d="M817,228.1l3.8.9-.3-.1,3.3,1.7a47,47,0,0,1,10.8,13.1c1.6,2.9,3.1,5.8,4.6,8.8.6,1.2,0-3.5.1-2.8-.2-1.8-.5-3.5-.8-5.2a13.1,13.1,0,0,0-.6-2.7,64.35,64.35,0,0,0-14.4-15.5,43.38,43.38,0,0,0-6.8-4.3c-3.3-1.7-4.1-1.7-7.7-2.5a2.38,2.38,0,0,0,.6,1.1c1,1.2,2,2.3,3.1,3.4s2.1,2.2,3.2,3.3A1.48,1.48,0,0,0,817,228.1Z" fill="#ff0" opacity="0.11" style="isolation:isolate"/><path d="M818.1,230.2l3.8.9-.3-.1,3.3,1.8a43.88,43.88,0,0,1,10.5,13.3c1.6,2.9,3,5.8,4.5,8.8.7,1.3-.1-3.8,0-3-.3-1.9-.6-3.8-1-5.6a13.65,13.65,0,0,0-.7-2.9,68.17,68.17,0,0,0-15.5-17.1,27.67,27.67,0,0,0-5.5-3.3,31.24,31.24,0,0,0-7.3-2.4,2.28,2.28,0,0,0,.6,1.2c1,1.3,2.1,2.6,3.2,3.9s2.2,2.5,3.3,3.8A1.44,1.44,0,0,0,818.1,230.2Z" fill="#ff0" opacity="0.11" style="isolation:isolate"/><path d="M819.7,230.2q6.45,0,9,7.2a25.14,25.14,0,0,1,7.4,10.2c1.1,2.5,2.2,4.9,3.4,7.4.1.2.5.1.6,0a2.16,2.16,0,0,0-.1-1.1c-2.8-5.8-5.2-12-9-17.2a27.89,27.89,0,0,0-4-4.4,11.51,11.51,0,0,0-1.7-1.4,10.37,10.37,0,0,0-5.7-1.5C818.8,229.1,819.2,230.2,819.7,230.2Z" fill="#ff0" opacity="0.11" style="isolation:isolate"/><path d="M818.8,235.2A14.32,14.32,0,0,1,828,240a33.11,33.11,0,0,1,4.4,6c2.6,4.5,4.6,9.4,6.8,14.1.4.8.6.2.6-.4a7,7,0,0,0-.5-3.5c-3.2-6.2-6.2-12.9-11-18a18.19,18.19,0,0,0-4.2-3.6,17,17,0,0,0-6.8-2.5c-.7-.2,0,1,0,1C817.5,233.6,818.2,235.1,818.8,235.2Z" fill="#ff0" opacity="0.11" style="isolation:isolate"/><path d="M817.4,230.8a15.46,15.46,0,0,1,7.1,2.7l-.4-.2a23.75,23.75,0,0,1,5.3,5.2,40.72,40.72,0,0,1,3.3,4.8c2.4,4,4.5,8.1,6.5,12.3.2.4.2.4.3,0v-1.2c-.1-1.4-.3-2.7-.5-4.1-.2-2.1-.5-4.2-.8-6.3a6.37,6.37,0,0,0-.7-2.7,64.61,64.61,0,0,0-14.3-15.2c-1.2-.9-2.4-1.8-3.7-2.6l-3.6-1.9a24.09,24.09,0,0,0-7.3-2.4,2.67,2.67,0,0,0,.7,1.4c1.1,1.6,2.2,3.2,3.4,4.7s2.3,3.1,3.5,4.6A9.38,9.38,0,0,0,817.4,230.8Z" fill="#ff0" opacity="0.11" style="isolation:isolate"/><path d="M817.3,228.9l3.8.9-.4-.1,3.3,1.7a44.12,44.12,0,0,1,10.7,13.2c1.6,2.9,3.1,5.8,4.6,8.8.2.4.3.4.3-.1a16.28,16.28,0,0,0-.3-3.1c-.3-2-.6-3.9-.9-5.8a10.88,10.88,0,0,0-.7-3,65.18,65.18,0,0,0-14.6-15.5,40.81,40.81,0,0,0-7.2-4.4,31.77,31.77,0,0,0-7.4-2.3,1.85,1.85,0,0,0,.7,1.2c1.1,1.3,2.2,2.6,3.4,3.9s2.3,2.6,3.5,3.8A2,2,0,0,0,817.3,228.9Z" fill="#ff0" opacity="0.11" style="isolation:isolate"/><path d="M818,232.7a13.52,13.52,0,0,1,8,3.7,26,26,0,0,1,7.9,10.6c1.9,3.5,3.5,7.1,5.2,10.6.5,1.1.3-2.8.3-2.1-.1-1.4-.2-2.7-.4-4a7.79,7.79,0,0,0-.4-2.1c-3.3-5.8-6.9-11.8-11.8-16.3a31.17,31.17,0,0,0-6.2-4.6c-3-1.8-3.9-1.8-7.2-2.6a1,1,0,0,0,.2.9,22,22,0,0,0,1.8,2.8C815.9,230.2,816.9,232.5,818,232.7Z" fill="#ff0" opacity="0.11" style="isolation:isolate"/><path d="M820,231c11.5,2.8,16,16.1,20.2,25.3.2.4.5.1.6-.1a5.84,5.84,0,0,0-.2-1.8c-2.9-5.7-5.4-11.8-9.2-17a28,28,0,0,0-5.6-5.8c-2.6-1.8-4.2-2-7.3-2.7-.6-.1.1.8.1.8A3,3,0,0,0,820,231Z" fill="#ff0" opacity="0.11" style="isolation:isolate"/><path d="M818.2,232.7l3.8.9-.3-.2a19.38,19.38,0,0,1,6,4.1,38.2,38.2,0,0,1,4.6,6,142.87,142.87,0,0,1,7.3,14q.3.6.3,0a15.14,15.14,0,0,0-.2-3c-.2-1.9-.5-3.9-.8-5.8a15.94,15.94,0,0,0-.6-3,64.48,64.48,0,0,0-14.8-17.3,20.26,20.26,0,0,0-5-3.2,27.13,27.13,0,0,0-7.4-2.6,1.66,1.66,0,0,0,.5,1.2c.9,1.4,1.8,2.7,2.7,4.1s1.9,2.7,2.8,4A2.1,2.1,0,0,0,818.2,232.7Z" fill="#ff0" opacity="0.11" style="isolation:isolate"/><path d="M817.2,229.7l3.8.9-.4-.2a16.85,16.85,0,0,1,6.1,4.1,38.69,38.69,0,0,1,4.8,5.9,124.92,124.92,0,0,1,7.6,13.9c.2.4.2.3.3-.1v-1.1c-.1-1.3-.3-2.5-.4-3.8-.2-2-.5-3.9-.8-5.9a5.53,5.53,0,0,0-.7-2.5,67.56,67.56,0,0,0-11.2-12.7,55.78,55.78,0,0,0-6.9-5.1c-1.2-.6-2.4-1.3-3.6-1.9a24.09,24.09,0,0,0-7.3-2.4,2.09,2.09,0,0,0,.7,1.3c1.1,1.5,2.2,2.9,3.3,4.3s2.3,2.8,3.5,4.2A1.84,1.84,0,0,0,817.2,229.7Z" fill="#ff0" opacity="0.11" style="isolation:isolate"/><path d="M818.6,231.8l3.8.9-.3-.1,3.2,1.8a43.32,43.32,0,0,1,10.3,13.4c1.5,2.9,3,5.9,4.4,8.8.6,1.2,0-3.5.1-2.7-.2-1.7-.5-3.4-.8-5.1a11,11,0,0,0-.6-2.6c-3.6-5.9-7.7-11.7-13-16.2a41.79,41.79,0,0,0-6.5-4.5,22.57,22.57,0,0,0-7.4-2.6,1.61,1.61,0,0,0,.5,1.1c.9,1.2,1.7,2.4,2.7,3.6s1.8,2.3,2.8,3.5C817.8,231.5,818.2,231.7,818.6,231.8Z" fill="#ff0" opacity="0.11" style="isolation:isolate"/><path d="M819.5,235.9a14.09,14.09,0,0,1,9.2,4.8,29.17,29.17,0,0,1,4.3,6.1c2.6,4.5,4.6,9.4,6.8,14.2.3.8.6.1.6-.4a7,7,0,0,0-.5-3.2c-3.2-6.3-6.1-13.1-11-18.3a18.6,18.6,0,0,0-4.2-3.7c-2.5-1.6-4-1.8-6.9-2.4-.6-.1,0,.9,0,1C818.3,234.3,818.9,235.7,819.5,235.9Z" fill="#ff0" opacity="0.11" style="isolation:isolate"/><path d="M812.6,209.5a1.59,1.59,0,0,0-.8-1c-1.1-1.1-2.3-2.1-3.5-3.1l-3.6-3a2.38,2.38,0,0,0-1.1-.6,1.59,1.59,0,0,0,.8,1c1.1,1.1,2.3,2.1,3.5,3.1l3.6,3A1.15,1.15,0,0,0,812.6,209.5Z" opacity="0.11" style="isolation:isolate"/><path d="M813.8,211.6a1.55,1.55,0,0,0-.8-1.1l-3.6-3.6c-1.2-1.2-2.4-2.3-3.7-3.4a1.85,1.85,0,0,0-1.2-.7,1.55,1.55,0,0,0,.8,1.1l3.6,3.6c1.2,1.2,2.4,2.3,3.7,3.4A1.85,1.85,0,0,0,813.8,211.6Z" opacity="0.11" style="isolation:isolate"/><path d="M815.7,211.3c.7,0,.1-1-.4-1C814.6,210.3,815.2,211.3,815.7,211.3Z" opacity="0.11" style="isolation:isolate"/><path d="M814.8,216.5c.7,0-1-2.7-1.7-2.7S814.2,216.5,814.8,216.5Z" opacity="0.11" style="isolation:isolate"/><path d="M813.1,212.1a2.22,2.22,0,0,0-.8-1.3c-1.2-1.5-2.5-2.9-3.8-4.3s-2.6-2.8-4-4.2a2.38,2.38,0,0,0-1.3-.9,2.22,2.22,0,0,0,.8,1.3c1.3,1.5,2.5,2.9,3.8,4.3s2.6,2.8,4,4.2A3.81,3.81,0,0,0,813.1,212.1Z" opacity="0.11" style="isolation:isolate"/><path d="M812.9,210.3a1.55,1.55,0,0,0-.8-1.1c-1.2-1.2-2.5-2.4-3.8-3.6s-2.6-2.3-3.9-3.4a2.13,2.13,0,0,0-1.2-.7,1.55,1.55,0,0,0,.8,1.1c1.2,1.2,2.5,2.4,3.8,3.6s2.6,2.3,3.9,3.4A2.13,2.13,0,0,0,812.9,210.3Z" opacity="0.11" style="isolation:isolate"/><path d="M813.7,213.9a33.92,33.92,0,0,0-2.3-3.4c-.4-.5-1.9-2.9-2.9-2.9a33.92,33.92,0,0,0,2.3,3.4C811.3,211.6,812.8,213.9,813.7,213.9Z" opacity="0.11" style="isolation:isolate"/><path d="M815.9,212.1c.6,0-.2-.8-.2-.8a2.92,2.92,0,0,0-1.6-1.1c-.5,0,.2.8.2.8A2.92,2.92,0,0,0,815.9,212.1Z" opacity="0.11" style="isolation:isolate"/><path d="M813.9,214a1.74,1.74,0,0,0-.6-1.2c-1-1.3-2-2.5-3-3.7s-2.1-2.4-3.2-3.6a1.59,1.59,0,0,0-1-.8,1.74,1.74,0,0,0,.6,1.2c1,1.3,2,2.5,3,3.7s2.1,2.4,3.2,3.6A2.72,2.72,0,0,0,813.9,214Z" opacity="0.11" style="isolation:isolate"/><path d="M812.8,211.1a2,2,0,0,0-.8-1.2c-1.2-1.3-2.5-2.6-3.8-3.9s-2.6-2.6-3.9-3.8a2,2,0,0,0-1.2-.8,2,2,0,0,0,.8,1.2c1.2,1.3,2.5,2.6,3.8,3.9s2.6,2.6,3.9,3.8A2,2,0,0,0,812.8,211.1Z" opacity="0.11" style="isolation:isolate"/><path d="M814.3,213.1a2.38,2.38,0,0,0-.6-1.1l-3-3.3c-1-1.1-2-2.1-3.1-3.2a.63.63,0,1,0-.8.4h.4l3,3.3c1,1.1,2,2.1,3.1,3.2A1.45,1.45,0,0,0,814.3,213.1Z" opacity="0.11" style="isolation:isolate"/><path d="M815.4,217c.7,0-1.1-2.8-1.7-2.8S814.8,217,815.4,217Z" opacity="0.11" style="isolation:isolate"/><path d="M840.5,195a18.68,18.68,0,0,1-2.9,6.8l.2-.3-2.3,2.8a20.13,20.13,0,0,1-4.3,3.4,27.56,27.56,0,0,1-8.5,4,39.21,39.21,0,0,1-20.4,0c-.5-.1-.3,0-.1.3l.9.6c1.2.6,2.3,1.1,3.5,1.7,1.8.8,3.6,1.7,5.4,2.4a7.32,7.32,0,0,0,2.5.8c7.3-.7,14.3-2.2,20.5-6.3a39.24,39.24,0,0,0,6.7-5.5,42.19,42.19,0,0,0,6-7.9,37.76,37.76,0,0,0,3.7-8.5,1.94,1.94,0,0,0-1.3.3c-1.5.7-2.9,1.4-4.4,2.2s-2.9,1.6-4.3,2.3Z" fill="#ff0" opacity="0.11" style="isolation:isolate"/><path d="M840.8,196.7l-1.2,3.6.2-.3a17,17,0,0,1-2.9,4.6c-7.2,9.5-18.5,12.4-33.8,8.8-.4,0-.5.1-.1.3a10.89,10.89,0,0,0,2.5,1c1.6.6,3.2,1.2,4.9,1.7a11.07,11.07,0,0,0,2.6.7,52.59,52.59,0,0,0,13.1-2,36.16,36.16,0,0,0,12.7-7.1,39.07,39.07,0,0,0,7.7-9,37.05,37.05,0,0,0,3.9-8.9,1.85,1.85,0,0,0-1.2.5c-1.3.8-2.5,1.7-3.8,2.6s-2.5,1.8-3.7,2.7A1.42,1.42,0,0,0,840.8,196.7Z" fill="#ff0" opacity="0.11" style="isolation:isolate"/><path d="M837.2,195.2a10.66,10.66,0,0,1-3,6.3,11.92,11.92,0,0,1-4.7,5,28.77,28.77,0,0,1-8.3,3.5c-7.2,1.9-14.2,1-21.2-.9-.6-.2-.6.2-.3.5a6.05,6.05,0,0,0,2.7,1.5,52.41,52.41,0,0,0,11.8,1.1,33.71,33.71,0,0,0,12.5-3,23.72,23.72,0,0,0,8.7-6.4,12,12,0,0,0,3.6-8.1C839.3,194,837.3,194.7,837.2,195.2Z" fill="#ff0" opacity="0.11" style="isolation:isolate"/><path d="M837.2,201.1a17.52,17.52,0,0,1-8,11.3l1.7-1.1-30.7,3.5c-.2-.1-1.2-.3-1.3,0s.1.5.4.6a47.5,47.5,0,0,0,12.4,2.2,32.36,32.36,0,0,0,13.1-2.3,32.83,32.83,0,0,0,6.7-3.5,29.16,29.16,0,0,0,4.4-4.2c2.2-2.6,3.1-5.1,4.1-8.3.2-.7-1.1.2-1,.1A3.69,3.69,0,0,0,837.2,201.1Z" fill="#ff0" opacity="0.11" style="isolation:isolate"/><path d="M840.1,197.4a18.68,18.68,0,0,1-2.9,6.8l.2-.4a25.16,25.16,0,0,1-14.7,10l3.2-1-7,1.8,3.3-.6-18.4.1c-.3,0-1.2-.3-1.4-.1s2.2.9,2.3,1c1.8.6,3.6,1.1,5.5,1.6,1.3.3,3.2,1.2,4.6,1.1,6-.6,11.8-1.6,17.2-4.4a38.18,38.18,0,0,0,10-7.4,50.21,50.21,0,0,0,5-6.2,38,38,0,0,0,5-10.8,2.67,2.67,0,0,0-1.4.7c-1.6,1.1-3.2,2.2-4.7,3.3s-3.1,2.3-4.6,3.5A2,2,0,0,0,840.1,197.4Z" fill="#ff0" opacity="0.11" style="isolation:isolate"/><path d="M840.7,195.7a18.68,18.68,0,0,1-2.9,6.8l.2-.3a22.49,22.49,0,0,1-5,5.2c-8.3,6.4-18.4,8.1-30.2,5.1-.5-.1-.3.1-.1.3l1,.5c1.2.5,2.3,1,3.5,1.5,1.8.7,3.6,1.5,5.5,2.2a5.42,5.42,0,0,0,2.5.6,46.38,46.38,0,0,0,12.8-2.7,38.51,38.51,0,0,0,9.5-5.3,41.46,41.46,0,0,0,7.3-7.2,28.53,28.53,0,0,0,2.5-3.3l2-3.4a25.38,25.38,0,0,0,2.7-6.9,1.84,1.84,0,0,0-1.3.4c-1.5.8-3,1.7-4.5,2.6s-3,1.8-4.4,2.7A6.28,6.28,0,0,0,840.7,195.7Z" fill="#ff0" opacity="0.11" style="isolation:isolate"/><path d="M838.6,198.8a13.28,13.28,0,0,1-2,5.1,16.35,16.35,0,0,1-5.9,6.6l1.6-1.2-7.5,4.2,4.6-1.7-8.2,2.9,4.5-1.3-8.3,2,4.5-.8-8.5,1.1,4.4-.3-8.5.3,4.3.1-8.4-.6,4.1.5-8.3-1.5c-1-.2-.7.3-.1.6a13.58,13.58,0,0,0,4.9,1.2c8.4,1,17.5.5,25-3.9a43,43,0,0,0,6.3-4.7,24.72,24.72,0,0,0,4.2-4.9,15,15,0,0,0,1.9-3.2,18.68,18.68,0,0,0,2-5.1c.3-1-2.2,1-2,.8-1.1.8-2.1,1.6-3.2,2.4A9.27,9.27,0,0,0,838.6,198.8Z" fill="#ff0" opacity="0.11" style="isolation:isolate"/><path d="M838.1,196.7a16,16,0,0,1-6.3,10.2c-8.1,6.9-18.4,8.1-31,3.7-.6-.2-.4.3-.3.5.2.5,1.9,1,2.4,1.1,7.7,1.6,15.7,1.9,23.1-.9a26.78,26.78,0,0,0,9.3-5.9c2.9-2.9,3.9-5.7,4.9-9.6C840.3,195.2,838.2,196.2,838.1,196.7Z" fill="#ff0" opacity="0.11" style="isolation:isolate"/><path d="M839.7,199l-1.1,3.6.1-.3a20.62,20.62,0,0,1-6.7,8.2l2.1-1.6-7.8,4.7,6.1-2.6-9.6,3.8,6.1-2-9.8,2.8,6.1-1.3-10,1.7,6-.7-10,.7,5.8-.1-9.9-.3,5.6.5-9.8-1.4c-.2,0-.8-.1-1,.1s1.5.6,1.5.7a31.43,31.43,0,0,0,6.8,1.3c7.2.2,14.3-.7,20.8-4.1a35.24,35.24,0,0,0,9.9-7.7,31.37,31.37,0,0,0,4.5-6.3,27.87,27.87,0,0,0,2.9-7.2,1.38,1.38,0,0,0-1.1.6c-1.2.9-2.4,1.9-3.5,2.9s-2.3,2-3.4,3A2.07,2.07,0,0,0,839.7,199Z" fill="#ff0" opacity="0.11" style="isolation:isolate"/><path d="M840.3,196.5a18.68,18.68,0,0,1-2.9,6.8l.2-.4c-8.3,10.3-17.1,13.4-34.9,10.2-.5,0-.5.1-.1.3a16.59,16.59,0,0,0,3.1,1.2c2,.7,4,1.4,6,2a16.81,16.81,0,0,0,3.2.9c6-.6,11.8-1.7,17.2-4.5a35.39,35.39,0,0,0,8.7-6.2,51.51,51.51,0,0,0,5.3-6.1,25.38,25.38,0,0,0,2.3-3.4,38.51,38.51,0,0,0,3.7-8.6,2,2,0,0,0-1.4.6c-1.6,1-3.2,1.9-4.7,3s-3.1,2-4.6,3.1A2.33,2.33,0,0,0,840.3,196.5Z" fill="#ff0" opacity="0.11" style="isolation:isolate"/><path d="M840.2,197.9a14.4,14.4,0,0,1-2,5.2c-3.4,6.8-9.7,10.8-18.8,11.9l5.4-.9-9.3,1.3,5.4-.3-17.8-1c-1.6-.3-.3.5.5.8a22.67,22.67,0,0,0,6.2,1.6c6.5.2,12.8-.4,18.8-3a33.14,33.14,0,0,0,10.4-6.9,31.88,31.88,0,0,0,5-6,29,29,0,0,0,3.8-8.4c.4-1.1-2.4,1.3-2.2,1.1-1.2.9-2.4,1.9-3.6,2.9A14.06,14.06,0,0,0,840.2,197.9Z" fill="#ff0" opacity="0.11" style="isolation:isolate"/><path d="M837.7,201.6l-37.3,13.5c-.2-.1-.8-.2-1,.1s-.1.4.1.5a.35.35,0,0,0,.2.1c7.9,2.2,16.1,3.3,24.1.6a30.91,30.91,0,0,0,10.1-5.8c.7-.7,1.4-1.4,2-2.1,2.3-2.6,3.1-5.1,4.1-8.3.2-.6-.9.1-.9.1A2.54,2.54,0,0,0,837.7,201.6Z" fill="#ff0" opacity="0.11" style="isolation:isolate"/></g></g></g></svg>