<svg id="Слой_1" data-name="Слой 1" xmlns="http://www.w3.org/2000/svg" viewBox="0 0 956.72 467.12"><title>connect1</title><g id="Слой_2" data-name="Слой 2"><g id="Слой_1-2" data-name="Слой 1-2"><ellipse cx="472.8" cy="224.49" rx="312.58" ry="114.75" fill="#fffc00" stroke="#000" stroke-linecap="round" stroke-miterlimit="10"/><g style="isolation:isolate"><text transform="translate(297.88 212.49)" font-size="56" font-family="GillSans, Gill Sans" style="isolation:isolate">Подключиться</text><text transform="translate(297.88 279.69)" font-size="56" font-family="GillSans, Gill Sans" style="isolation:isolate"><tspan xml:space="preserve">      к такси      </tspan></text></g><path d="M755,441a49.72,49.72,0,0,1-13,3.05,61.4,61.4,0,0,1-13,0l.42.06-6.86-1,.42.09-6.82-1.59.42.11-6.77-2.06.4.14-6.73-2.48.39.17c-16.43-6.91-32-15.46-47.5-24.24a167.81,167.81,0,0,1-23-15.46A124.14,124.14,0,0,1,622,387.41a103.91,103.91,0,0,1-9.67-11.58l.24.37-4.34-6.62.23.38L604.67,363l.21.4a63.62,63.62,0,0,1-4.21-10.47,63.87,63.87,0,0,1-3-11.12c-.11-.46-.14-.46-.35,0l-.26,1.19c-.21,1.42-.39,2.84-.55,4.27-.27,2.2-.52,4.4-.72,6.6a7,7,0,0,0,0,2.89c.89,2.58,1.81,5.14,2.78,7.69a95.6,95.6,0,0,0,7.28,14.16,114,114,0,0,0,14.63,18.43c14,14.59,31.7,24.78,49.68,33.59,15,7.36,30.51,14.36,47,18.36a96.82,96.82,0,0,0,24.14,3,112.84,112.84,0,0,0,26.28-3.93,2.43,2.43,0,0,0-1.17-1c-1.63-1-3.28-1.95-4.93-2.88s-3.32-1.84-5-2.75A2.46,2.46,0,0,0,755,441Z" transform="translate(0.01 0)" fill="#ff0" opacity="0.11" style="isolation:isolate"/><path d="M755.91,442.73a51.49,51.49,0,0,1-13,3l.34-.05a45.51,45.51,0,0,1-9.76.27,51.48,51.48,0,0,1-9.67-1.05,109.93,109.93,0,0,1-15.92-4.45c-12.11-4.33-23.51-10.29-34.84-16.33l.31.17c-7.74-4.23-15.56-8.34-23.07-13A179.68,179.68,0,0,1,628.18,395l.26.24-5.78-5.57.25.25L617.56,384l.24.27c-4.66-5.93-9.15-11.89-12.42-18.73l-3-6.89a86.38,86.38,0,0,1-4.26-14.78c-.33-1.37-1.14,3.39-1,2.77q-.51,2.73-1,5.49a14.79,14.79,0,0,0-.32,2.89c1.36,3.91,2.67,7.7,4.36,11.47a68.17,68.17,0,0,0,5.36,10.36,101.87,101.87,0,0,0,9.23,12.8,135.38,135.38,0,0,0,23.38,21.42c10.79,7.82,22.54,14,34.49,19.82,15,7.31,30.26,14.14,46.56,18a84.54,84.54,0,0,0,27.31,2.16c2.24-.22,4.54-.55,6.76-.88a117.1,117.1,0,0,0,13.09-2.76,1.63,1.63,0,0,0-1-.76q-2-1-4.08-1.93c-1.37-.63-2.75-1.22-4.14-1.78A1.61,1.61,0,0,0,755.91,442.73Z" transform="translate(0.01 0)" fill="#ff0" opacity="0.11" style="isolation:isolate"/><path d="M752.67,438.08A42.72,42.72,0,0,1,740,441.25a56.84,56.84,0,0,1-12.84-.11,86.75,86.75,0,0,1-18.84-4.62c-15.11-5.34-29.18-13.43-43.11-21.22-15.67-8.76-31.31-17.94-43.65-31.25A101.87,101.87,0,0,1,608,366.21,83.42,83.42,0,0,1,597.76,338c-.21-1-.73,1.86-.67,1.42a12.08,12.08,0,0,0-.24,4.32,85.54,85.54,0,0,0,4.61,15,88.31,88.31,0,0,0,7,13.52A102.34,102.34,0,0,0,622.79,390a137.2,137.2,0,0,0,21.27,17.09c7.54,5,15.46,9.26,23.44,13.5,14.15,7.51,28.63,15.34,44.07,19.88a91.71,91.71,0,0,0,19.2,3.8,60.13,60.13,0,0,0,13-.4A48.72,48.72,0,0,0,756,440.71c.67-.22-.46-.94-.59-1C755,439.35,753.29,437.88,752.67,438.08Z" transform="translate(0.01 0)" fill="#ff0" opacity="0.11" style="isolation:isolate"/><path d="M751.32,443.5a40.48,40.48,0,0,1-18.5,3.63l-6.39-.48c-12.47-1.24-25.85-7.22-37.3-12.94-6.22-3.11-12.31-6.47-18.38-9.85-6.36-3.55-12.87-7-19.08-10.82-13.06-8-25.82-17.47-35.4-29.59A97,97,0,0,1,606.14,368a63.76,63.76,0,0,1-4.52-10.17,81.86,81.86,0,0,1-3.77-14.69c-.06-.25-.45-.2-.59-.11a1.52,1.52,0,0,0-.17,1A83.93,83.93,0,0,0,601,358.77a85.87,85.87,0,0,0,6.38,13.55,102.2,102.2,0,0,0,19,23.35c14.87,13.78,33,23.29,50.7,32.85,12,6.49,24.43,12.85,37.65,16.59a75,75,0,0,0,19.34,3.09,60,60,0,0,0,13.29-1.36,24.42,24.42,0,0,0,4.81-2.5C753,443.94,751.75,443.31,751.32,443.5Z" transform="translate(0.01 0)" fill="#ff0" opacity="0.11" style="isolation:isolate"/><path d="M755.48,443.36a50.55,50.55,0,0,1-13,3.06l.4-.05a84.21,84.21,0,0,1-13,.14,80.28,80.28,0,0,1-12.79-2.29c-9.85-2.52-19.31-6.58-28.44-11-8.55-4.14-16.89-8.67-25.23-13.22-4.55-2.5-9.09-5-13.52-7.73C644.25,408.81,639,405,633.68,401l.29.24L627.76,396l.29.26-5.82-5.57.27.27a104.48,104.48,0,0,1-9.81-11.5,70,70,0,0,1-6-9.5,65.32,65.32,0,0,1-4.9-10.14A85.06,85.06,0,0,1,597.44,345c-.11-.46-.1-.28-.35,0l-.25,1c-.21,1.17-.39,2.34-.55,3.52-.25,1.81-.5,3.62-.69,5.44a5.4,5.4,0,0,0,0,2.4c2.58,7.06,2,5.92,4.45,11.14a105.82,105.82,0,0,0,5.55,10.34,98.08,98.08,0,0,0,9.57,12.92,136.91,136.91,0,0,0,27,23.44c11,7.42,22.74,13.3,34.71,19,14,6.62,28.53,12.79,43.76,16a93.9,93.9,0,0,0,21.08,2.15,115.75,115.75,0,0,0,26.48-4.11,2.24,2.24,0,0,0-1.23-.78l-5-2c-1.67-.64-3.35-1.24-5-1.82A2.17,2.17,0,0,0,755.48,443.36Z" transform="translate(0.01 0)" fill="#ff0" opacity="0.11" style="isolation:isolate"/><path d="M755.47,441.81a37.07,37.07,0,0,1-9.77,2.51,47.42,47.42,0,0,1-9.8.9h.41l-6.9-.34h.41L723,444l.41.07-6.81-1.54.41.1-6.77-2,.4.12-6.73-2.42.39.14-6.71-2.77.39.17c-8.63-3.95-17.07-8.19-25.41-12.73-6.48-3.52-13-7-19.36-10.73A164.76,164.76,0,0,1,633.64,399a124.27,124.27,0,0,1-11.41-10.36A103.19,103.19,0,0,1,612.52,377l.24.36-4.36-6.61.22.37-3.8-6.94.2.38A62.88,62.88,0,0,1,600.74,354a63.31,63.31,0,0,1-3-11.15c-.1-.44-.13-.45-.34,0l-.28,1.14c-.24,1.37-.44,2.74-.63,4.12-.29,2.12-.58,4.24-.82,6.36a7,7,0,0,0,0,2.8c.92,2.57,1.86,5.14,2.82,7.69a95.28,95.28,0,0,0,7.35,14.14,114,114,0,0,0,14.72,18.41c14.06,14.57,31.79,24.74,49.82,33.54,15.19,7.42,30.72,14.45,47.24,18.36a96.74,96.74,0,0,0,24.2,2.91,115.05,115.05,0,0,0,26.34-4,2.38,2.38,0,0,0-1.19-.95q-2.44-1.37-5-2.64c-1.66-.86-3.33-1.7-5-2.5A2.31,2.31,0,0,0,755.47,441.81Z" transform="translate(0.01 0)" fill="#ff0" opacity="0.11" style="isolation:isolate"/><path d="M753.8,443.38a38.68,38.68,0,0,1-9.7,2.5,44.5,44.5,0,0,1-9.77.91l-6.43-.38-31.54-9.52c-6.34-2.65-12.58-6.05-18.62-9.31-5.14-2.77-10.24-5.61-15.34-8.44-11.4-6.36-22.49-13.09-32.4-21.65A113.49,113.49,0,0,1,616.55,384c-9.84-11.86-15.53-24.65-19.1-40.39-.2-.87-.74,1.49-.68,1.15a9,9,0,0,0-.26,3.55,86.77,86.77,0,0,0,4.8,14.92,90.14,90.14,0,0,0,7.17,13.52A105.52,105.52,0,0,0,623,394.53a140.93,140.93,0,0,0,21.54,17.19c7.62,5,15.62,9.33,23.69,13.61,14.49,7.68,29.37,15.64,45.23,20.1a93.09,93.09,0,0,0,20,3.66c9.06.5,17.63-1.17,26.34-3.46,1-.25-1.67-1.09-1.41-1-1-.33-2-.65-3-.93A4.84,4.84,0,0,0,753.8,443.38Z" transform="translate(0.01 0)" fill="#ff0" opacity="0.11" style="isolation:isolate"/><path d="M753.43,439.61a43.39,43.39,0,0,1-12.68,3.16,56.84,56.84,0,0,1-12.84-.11A87.69,87.69,0,0,1,709.09,438C694,432.71,680,424.63,666,416.86c-15.66-8.74-31.29-17.9-43.63-31.2a101.44,101.44,0,0,1-13.52-17.81,83.28,83.28,0,0,1-6.34-13.44,82.44,82.44,0,0,1-3.91-14.73c-.2-.9-.8,1.53-.72,1.18a9.33,9.33,0,0,0-.4,3.71,85.71,85.71,0,0,0,4.57,14.84,88.37,88.37,0,0,0,7,13.42,102.77,102.77,0,0,0,14.23,17.64,136.92,136.92,0,0,0,21.19,17.07c7.52,5,15.42,9.27,23.38,13.52,14.12,7.55,28.55,15.42,43.94,20.07a91.19,91.19,0,0,0,19.2,4,60.13,60.13,0,0,0,13-.31,47.29,47.29,0,0,0,12.21-3.14C756.84,441.42,754.09,439.39,753.43,439.61Z" transform="translate(0.01 0)" fill="#ff0" opacity="0.11" style="isolation:isolate"/><path d="M755.22,444a48.57,48.57,0,0,1-12.85,3.06,59.48,59.48,0,0,1-13,.1,88.42,88.42,0,0,1-19.08-4.28c-15.31-5.07-29.6-13-43.69-20.73-15.81-8.67-31.58-17.8-44.13-31A104.44,104.44,0,0,1,608.6,373.4,85.88,85.88,0,0,1,602,360a83.85,83.85,0,0,1-4.23-14.74c-.26-1.1-.93,2.26-.83,1.76-.23,1.19-.42,2.38-.59,3.58a6.26,6.26,0,0,0-.13,1.88,89.71,89.71,0,0,0,5.46,14.89,93.85,93.85,0,0,0,7.72,13.4,110.32,110.32,0,0,0,15.19,17.54c13.57,12.81,29.6,21.85,46.11,30.26,14.73,7.5,30,15.11,46.11,19a94.53,94.53,0,0,0,20.28,3,70.36,70.36,0,0,0,13.52-1,68.27,68.27,0,0,0,12.71-2.83c1.1-.3-2.28-1.23-2-1.13-1.33-.42-2.68-.81-4-1.18A8.34,8.34,0,0,0,755.22,444Z" transform="translate(0.01 0)" fill="#ff0" opacity="0.11" style="isolation:isolate"/><path d="M755.28,442.56a38,38,0,0,1-9.77,2.52,46.6,46.6,0,0,1-9.79.92h.41l-6.88-.3h.41a81.94,81.94,0,0,1-12.81-2.32,88.3,88.3,0,0,1-9.52-3,220.61,220.61,0,0,1-22.42-9.78l.36.18q-8-4.11-15.92-8.41c-5.43-3-11-5.83-16.26-9q-6.84-4.08-13.35-8.66a154.87,154.87,0,0,1-17.68-15.08l.28.3L617,384l.27.31-4.91-6.24.25.33-4.16-6.23a63.84,63.84,0,0,1-5.15-10,42.08,42.08,0,0,1-2.76-7A64.48,64.48,0,0,1,597.43,344c-.11-.46-.11-.36-.35,0l-.25,1.06c-.21,1.27-.39,2.54-.55,3.82-.25,2-.5,3.93-.69,5.91a6,6,0,0,0,0,2.59,107.82,107.82,0,0,0,6.24,14.94,102.41,102.41,0,0,0,13.33,19.48c14.18,16.44,32.64,28.18,51.94,37.71,17.22,8.51,35,16.89,53.93,20.75a95,95,0,0,0,20.73,2.07,115.25,115.25,0,0,0,26.42-4.05,2.26,2.26,0,0,0-1.23-.87c-1.68-.8-3.37-1.58-5.07-2.32s-3.41-1.48-5.14-2.18A2.36,2.36,0,0,0,755.28,442.56Z" transform="translate(0.01 0)" fill="#ff0" opacity="0.11" style="isolation:isolate"/><path d="M755.47,443.24a47.58,47.58,0,0,1-12.83,3.06,59.48,59.48,0,0,1-13,.08,87.87,87.87,0,0,1-19.08-4.3C695.29,437,681,429,666.92,421.3c-15.81-8.67-31.56-17.81-44.1-31A104.09,104.09,0,0,1,609,372.49a85.31,85.31,0,0,1-6.6-13.43,83.94,83.94,0,0,1-4.19-14.76c-.27-1.13-1,2.38-.89,1.88-.26,1.26-.5,2.53-.7,3.8a7.08,7.08,0,0,0-.19,2,90.36,90.36,0,0,0,5.42,14.88,93,93,0,0,0,7.69,13.39,110.44,110.44,0,0,0,15.15,17.52c13.54,12.8,29.52,21.82,46,30.22,14.67,7.48,29.84,15.08,45.91,19a94.16,94.16,0,0,0,20.17,3,69.06,69.06,0,0,0,13.47-.93,65.58,65.58,0,0,0,12.62-2.8c1-.28-1.94-1.29-1.73-1.21-1.21-.48-2.44-.93-3.67-1.36A7.56,7.56,0,0,0,755.47,443.24Z" transform="translate(0.01 0)" fill="#ff0" opacity="0.11" style="isolation:isolate"/><path d="M751.76,443.91a15.57,15.57,0,0,1-8.61,2.87,54.46,54.46,0,0,1-22.34-.84,115.55,115.55,0,0,1-12.5-3.69c-11.85-4.15-23-10.29-34-16.36s-21.86-11.88-32-19a137.49,137.49,0,0,1-15.13-12.09C612.37,381,603,365.07,598.45,343.47c-.11-.5-.84,0-.73.5.51,2.44,1,5.14,1.61,7.56A57.87,57.87,0,0,0,603,362.17a86.36,86.36,0,0,0,6.88,13.22c11.15,17.54,27.83,30.64,45.67,40.9,8.23,4.73,16.53,9.38,24.9,13.86a207.88,207.88,0,0,0,28,13,93.51,93.51,0,0,0,19.3,4.8,39.53,39.53,0,0,0,9.72.33,38.61,38.61,0,0,0,6.78-.63,12.27,12.27,0,0,0,8.2-3C752.94,444.34,752.21,443.69,751.76,443.91Z" transform="translate(0.01 0)" fill="#ff0" opacity="0.11" style="isolation:isolate"/><path d="M622.72,362.91a35.18,35.18,0,0,1-9.17-2.53,38.7,38.7,0,0,1-8-4.64l.36.26L602,352.8l.33.29a42.87,42.87,0,0,1-6-6.9,39.06,39.06,0,0,1-4.31-8c-.22-.51-.33-.48-.34.07-1.18,16.53-2.34,33-4,49.5-.09.88,4.21,2.91,4.54,3.1,1.23.76,2.49,1.47,3.78,2.14a1.51,1.51,0,0,0,1.14.33q-.37-9.61-1.31-19.17a170.8,170.8,0,0,1-1-21.57l-.1.43a53.74,53.74,0,0,0,4.57,5.65,50,50,0,0,0,9.58,7.94,85.57,85.57,0,0,0,8.74,4.72,65.17,65.17,0,0,0,13.66,4.25,2.76,2.76,0,0,0-.65-1.49q-1.62-2.56-3.34-5c-1.12-1.68-2.28-3.33-3.46-5A2.63,2.63,0,0,0,622.72,362.91Z" transform="translate(0.01 0)" fill="#ff0" opacity="0.11" style="isolation:isolate"/><path d="M623.69,365.06a35.43,35.43,0,0,1-9.15-2.53l.32.14-4.51-2.2.32.16c-3.92-2.54-7.66-5.1-10.73-8.68l-2.84-3.58a38.65,38.65,0,0,1-4.39-8c-.19-.39-.3-.37-.35.06q-1,12.61-1.85,25.24-.68,11.7-2.16,23.34c-.08.71,3.74,1.83,3.95,1.91-.11-.05,4.25,1.59,4.23,1.2q-.18-9.51-1.09-19a165,165,0,0,1-.79-21.78l-.34.06a37.61,37.61,0,0,0,6,7.48L604,362.2a45.25,45.25,0,0,0,6.24,4.31,64.07,64.07,0,0,0,6.47,3.5,65.87,65.87,0,0,0,13.78,4.34,1.64,1.64,0,0,0-.48-1.16c-.84-1.26-1.72-2.51-2.63-3.73s-1.81-2.45-2.76-3.64A1.65,1.65,0,0,0,623.69,365.06Z" transform="translate(0.01 0)" fill="#ff0" opacity="0.11" style="isolation:isolate"/><path d="M621.58,359.62a33.44,33.44,0,0,1-9-2.44,28.77,28.77,0,0,1-6-3.37c-7.05-4.74-11.39-10.85-14.87-18.83.07.17-.47-1.1-.56-.39-1.94,16.86-4.15,33.64-6.57,50.44-.06.46,1.12,1.37,1.23.65,2.23-15.11,4.45-30.23,6.76-45.33l-.34.06c2.89,5.47,6.29,10.56,11.16,14.52a50.53,50.53,0,0,0,7.76,5.2,47.41,47.41,0,0,0,13,4.35c.81.17-.26-1.43-.28-1.47-.45-.78-.92-1.55-1.42-2.3A3.41,3.41,0,0,0,621.58,359.62Z" transform="translate(0.01 0)" fill="#ff0" opacity="0.11" style="isolation:isolate"/><path d="M620.39,364.13a30,30,0,0,1-8.23-1.64,25.7,25.7,0,0,1-7.61-4.94,26.32,26.32,0,0,1-6.53-6.1,43,43,0,0,1-6.63-11.78c-.09-.2-.64-.43-.68-.05q-1.31,13.25-2.88,26.46-1.3,12.32-3.28,24.55a.34.34,0,0,0,.68.08c2.42-16.74,4.46-33.44,6.27-50.26l-.68-.06c1.91,4.22,3.88,8.41,6.9,12a46.65,46.65,0,0,0,4.94,5,29,29,0,0,0,5.77,4.27l4.2,2.22a27.25,27.25,0,0,0,7.91,1.26C621.21,365.17,620.89,364.19,620.39,364.13Z" transform="translate(0.01 0)" fill="#ff0" opacity="0.11" style="isolation:isolate"/><path d="M623.33,365.89a35.4,35.4,0,0,1-9.15-2.51l.36.16a38.71,38.71,0,0,1-8.09-4.53,47.58,47.58,0,0,1-9.72-9.64,38.23,38.23,0,0,1-4.45-7.91c-.22-.41-.33-.38-.34.08q-.9,12.51-1.7,25-.59,11.56-2.1,23.06c-.07.69,5,1.81,5.15,1.84-.14,0,5.37,1.49,5.34,1.11a131.72,131.72,0,0,0-1.83-17.72,117.12,117.12,0,0,1-1.75-21.56l-.35.07a39.26,39.26,0,0,0,6.34,7.39l3.81,3.25a47.84,47.84,0,0,0,6.41,4.21,60.88,60.88,0,0,0,20.5,7.73,2,2,0,0,0-.65-1.25c-1.06-1.36-2.16-2.7-3.28-4s-2.23-2.64-3.39-3.92A2,2,0,0,0,623.33,365.89Z" transform="translate(0.01 0)" fill="#ff0" opacity="0.11" style="isolation:isolate"/><path d="M623.19,364a26.77,26.77,0,0,1-6.94-1.74,28.39,28.39,0,0,1-6.4-2.84l.36.22L606,356.85l.35.24a50.65,50.65,0,0,1-8.23-8,47.87,47.87,0,0,1-5.78-9.77c-.22-.49-.33-.47-.35.07-1.18,16.37-2.28,32.71-3.88,49.05-.08.85,4.48,2.76,4.77,2.91,1.29.69,2.61,1.35,3.94,2a1.57,1.57,0,0,0,1.17.27q-.66-9.4-1.75-18.77a141.58,141.58,0,0,1-1.2-21.68l-.1.41a49.89,49.89,0,0,0,14.29,13.51,85.69,85.69,0,0,0,8.77,4.68A64.54,64.54,0,0,0,631.66,376a2.58,2.58,0,0,0-.65-1.43c-1.06-1.62-2.16-3.22-3.28-4.8s-2.25-3.16-3.41-4.71A2.57,2.57,0,0,0,623.19,364Z" transform="translate(0.01 0)" fill="#ff0" opacity="0.11" style="isolation:isolate"/><path d="M622.08,365.22a35.37,35.37,0,0,1-9.08-2.55,24.45,24.45,0,0,1-9.24-6.33,25,25,0,0,1-7.85-7.87,39.68,39.68,0,0,1-4.21-8c0,.08-.5-.89-.56-.28q-1.07,12.48-2.49,24.93-1.18,12.11-3.14,24.11c-.06.44,3,.49,3.11-.25,1.67-14.68,3-29.3,4.07-44l-.56-.28a49.51,49.51,0,0,0,11.64,14.68,42.3,42.3,0,0,0,8.4,5.55,61.53,61.53,0,0,0,13.5,4.62c.9.21-.73-1.57-.59-1.41-.61-.67-1.24-1.33-1.89-2A3.53,3.53,0,0,0,622.08,365.22Z" transform="translate(0.01 0)" fill="#ff0" opacity="0.11" style="isolation:isolate"/><path d="M622.33,361l-4.58-.86a24.22,24.22,0,0,1-6.34-2.5c-8.81-4.45-14.42-11.06-18.84-21.13-.27-.63-.5-.57-.59.09-2.07,16.66-4.14,33.31-6.53,49.93-.06.46,1,1.12,1.11.44,2.28-15.34,4.23-30.71,6.57-46l-.35,0a46.53,46.53,0,0,0,9.27,12.81,39.23,39.23,0,0,0,9.37,6.81l4.27,2a35.68,35.68,0,0,0,8.57,2.16c.71.14-.08-1.1-.12-1.18C623.85,363.05,623,361.17,622.33,361Z" transform="translate(0.01 0)" fill="#ff0" opacity="0.11" style="isolation:isolate"/><path d="M623.27,366.31c-4.66-.92-9-2-13.15-4.45-8.15-4.81-13.4-11-17.81-20.14-.17-.24-.28-.21-.34.08q-.93,12.38-1.89,24.75a205.77,205.77,0,0,1-2.67,23.22c0,.32,6.06.6,6.13-.28a91.21,91.21,0,0,0,.66-19.4q-.5-10.59-.25-21.18l-.34.08a55.62,55.62,0,0,0,5.58,7.56,48.46,48.46,0,0,0,9.3,7.78,53.25,53.25,0,0,0,8.56,4.57,59.73,59.73,0,0,0,11.17,3.32c1,.22-1.08-2-.93-1.8-.83-.95-1.69-1.87-2.56-2.78A6.84,6.84,0,0,0,623.27,366.31Z" transform="translate(0.01 0)" fill="#ff0" opacity="0.11" style="isolation:isolate"/><path d="M623.09,364.93a26.3,26.3,0,0,1-6.93-1.74,29.25,29.25,0,0,1-6.4-2.82l.36.19c-3.91-2.52-7.65-5.07-10.72-8.64l-2.85-3.56a38.9,38.9,0,0,1-4.4-7.93c-.22-.45-.34-.42-.34.08q-.91,12.62-1.75,25.23Q589.42,377.42,588,389c-.08.76,4.87,2.29,5.06,2.37-.14-.06,5.37,2,5.34,1.66q-.46-9.15-1.79-18.21A130.66,130.66,0,0,1,595,353.27l-.34.08c2.53,3.37,3.25,4.57,6.33,7.41,1.32,1.2,2.72,2.44,4.14,3.52A59.84,59.84,0,0,0,618,371.79,76.74,76.74,0,0,0,631.76,376a2.32,2.32,0,0,0-.67-1.35c-1.1-1.5-2.22-3-3.37-4.43s-2.3-2.91-3.49-4.34A2.31,2.31,0,0,0,623.09,364.93Z" transform="translate(0.01 0)" fill="#ff0" opacity="0.11" style="isolation:isolate"/><path d="M623.26,365.4a33.63,33.63,0,0,1-8.71-2.35,39.09,39.09,0,0,1-8-4.56,41.64,41.64,0,0,1-6.76-6.17,40.46,40.46,0,0,1-7.1-11.53c-.17-.26-.28-.23-.34.07q-1,12.45-2,24.9-.75,11.73-2.66,23.36c-.08.55,5.32,1,5.37.37a122.92,122.92,0,0,0,.86-19.84q-.2-10.65.21-21.29l-.35.07a55.13,55.13,0,0,0,5.51,7.56,48.39,48.39,0,0,0,9.23,7.78,52.77,52.77,0,0,0,8.51,4.57,59.15,59.15,0,0,0,11.11,3.32c.24,0,.34.08.28-.22-.19-.88-1.14-1.7-1.67-2.38-.72-.91-1.44-1.82-2.21-2.69C624.12,366,623.78,365.5,623.26,365.4Z" transform="translate(0.01 0)" fill="#ff0" opacity="0.11" style="isolation:isolate"/><path d="M620.87,364.45l-4.28-.56a29,29,0,0,1-13.37-7.29c-5.29-4.72-8.27-9.66-11.31-16.64-.13-.3-.67-.16-.7.13q-1.32,13.21-2.87,26.43-1.29,12.23-3.23,24.37c0,.34.32.87.39.38,2.49-17,4.61-33.9,6.48-50.95l-.71.13a71.35,71.35,0,0,0,4,8.08,40.58,40.58,0,0,0,15.29,14.14l2.15,1.13a27.8,27.8,0,0,0,8.08,1.44A.4.4,0,0,0,620.87,364.45Z" transform="translate(0.01 0)" fill="#ff0" opacity="0.11" style="isolation:isolate"/><path d="M616,98.21a155.89,155.89,0,0,1,10.34-16.95,161,161,0,0,1,12.22-15.48l-.27.3,7-7.43-.28.29A180.76,180.76,0,0,1,659.6,45.88a185.53,185.53,0,0,1,15.9-11.4,188.47,188.47,0,0,1,34.9-17.54A184.27,184.27,0,0,1,748.12,7a175.69,175.69,0,0,1,19.43-1.86,167.48,167.48,0,0,1,19.53.36c1.44.07-3-2-2.43-1.71q-2.55-1.23-5.13-2.38A14.93,14.93,0,0,0,776.78.35a175,175,0,0,0-20.22.78l-10,1.24a187.5,187.5,0,0,0-29.48,7,198.65,198.65,0,0,0-81,50.33A186.4,186.4,0,0,0,622.6,75a293.13,293.13,0,0,0-19.37,28.87,2.27,2.27,0,0,0,1.46-.32c1.71-.67,3.4-1.39,5.08-2.18s3.35-1.56,5-2.31A2.18,2.18,0,0,0,616,98.21Z" transform="translate(0.01 0)" fill="#ff0" opacity="0.11" style="isolation:isolate"/><path d="M616.74,99.75c3.28-5.77,6.56-11.5,10.36-17a165.58,165.58,0,0,1,15.65-19,173.09,173.09,0,0,1,14.3-13.45,231.28,231.28,0,0,1,19.74-14.52l-.32.2,8.74-5.23-.34.18,9-4.77-.34.17,9.23-4.3-.35.15,9.44-3.82-.36.13,9.62-3.32-.36.12,9.77-2.82-.36.1,9.9-2.29-.38.08,10-1.76-.38.07,10.08-1.21H759a130.07,130.07,0,0,1,14.64-.65,125.84,125.84,0,0,1,14.66.47c.47,0,.32,0,.18-.3l-.82-.61c-1-.63-2-1.23-3.06-1.82-1.58-.92-3.17-1.83-4.79-2.69A5.45,5.45,0,0,0,777.59,1a169.46,169.46,0,0,0-19.79.67,183.28,183.28,0,0,0-20.32,3,199.86,199.86,0,0,0-52,18.81A191.61,191.61,0,0,0,640.66,56a186.88,186.88,0,0,0-20,22.72c-5.82,8-11.08,16.31-16.2,24.74a1.91,1.91,0,0,0,1.37-.09c1.63-.42,3.26-.87,4.87-1.36s3.22-1,4.82-1.52A2,2,0,0,0,616.74,99.75Z" transform="translate(0.01 0)" fill="#ff0" opacity="0.11" style="isolation:isolate"/><path d="M618.64,95.77a100.07,100.07,0,0,1,7.41-12.65,75.42,75.42,0,0,1,8.78-11.72,107.39,107.39,0,0,1,12.89-14.64l7.22-6.66A178.39,178.39,0,0,1,695.8,23.28,192.74,192.74,0,0,1,737.1,9.11a176.76,176.76,0,0,1,24-3.57,201.76,201.76,0,0,1,29.09.28c.39,0,.32-.35.22-.56a3.36,3.36,0,0,0-1.49-.59,202.16,202.16,0,0,0-29.43-.07,170.52,170.52,0,0,0-29,4.86,194.43,194.43,0,0,0-50,20.68A179.55,179.55,0,0,0,638,64.69c-2.29,2.56-4.53,5.16-6.64,7.87l-6,8a150.49,150.49,0,0,0-10,16.61c-.36.65,1.15,0,1,0C617.05,96.91,618.27,96.45,618.64,95.77Z" transform="translate(0.01 0)" fill="#ff0" opacity="0.11" style="isolation:isolate"/><path d="M619.68,101.47a44.45,44.45,0,0,1,6.56-12.75,112.8,112.8,0,0,1,8.63-12A193.66,193.66,0,0,1,648,62.23a174.54,174.54,0,0,1,43.43-31,185.57,185.57,0,0,1,45.62-16.38,175.18,175.18,0,0,1,24-3.56,201.76,201.76,0,0,1,29.09.29c.64,0-.19-.88-.2-.89-.36-.4-1.14-1.25-1.74-1.28-9.78-.53-19.45-.85-29.22.12q-9.71,1-19.28,2.81a188,188,0,0,0-90.08,46.27,165.61,165.61,0,0,0-16.69,17.94L627,84.46a42.18,42.18,0,0,0-8.58,16.85C618.22,102,619.5,101.89,619.68,101.47Z" transform="translate(0.01 0)" fill="#ff0" opacity="0.11" style="isolation:isolate"/><path d="M615.64,100.48c4.92-8.65,10-17.1,16.25-24.87A196.8,196.8,0,0,1,645,60.9a177.82,177.82,0,0,1,43.45-31.85,187.2,187.2,0,0,1,45.84-17.17,179.7,179.7,0,0,1,24.17-4,204.19,204.19,0,0,1,29.37-.13,2.31,2.31,0,0,0-1.09-1.07c-1.54-1.08-3.11-2.13-4.69-3.15s-3.17-2-4.78-3A2.37,2.37,0,0,0,775.88,0c-10.18.15-20.24.5-30.32,2.16q-10,1.67-19.81,4.21a192.28,192.28,0,0,0-51.07,22,197.16,197.16,0,0,0-39.51,31.55A191.82,191.82,0,0,0,618.78,79.2c-5.84,7.92-11.06,16.29-16.17,24.69a2.16,2.16,0,0,0,1.44-.07c1.73-.39,3.46-.81,5.17-1.27s3.42-.93,5.13-1.42A2.14,2.14,0,0,0,615.64,100.48Z" transform="translate(0.01 0)" fill="#ff0" opacity="0.11" style="isolation:isolate"/><path d="M616.15,98.91A153.8,153.8,0,0,1,626.49,82a119.38,119.38,0,0,1,9.06-11.73,123.52,123.52,0,0,1,9.93-10.9A177.68,177.68,0,0,1,660.1,46.29l-.32.26,8.14-6.16-.33.24L676,34.91l-.34.22,8.73-5.27-.35.21,9-4.81-.36.19A233.61,233.61,0,0,1,715.27,16a171,171,0,0,1,23.52-6.59q9.59-1.9,19.31-2.92a195,195,0,0,1,29.3-.28c.45,0,.37,0,.16-.31l-.88-.59c-1.09-.61-2.18-1.2-3.29-1.76-1.7-.88-3.4-1.75-5.13-2.58a5.77,5.77,0,0,0-2.37-.84c-7.56.11-12.68.12-20.25.88A194.33,194.33,0,0,0,736,4a183.77,183.77,0,0,0-34,10.59,199.27,199.27,0,0,0-52,31.54,193.59,193.59,0,0,0-25,25.08c-8.33,10.29-15.43,21.5-22.33,32.79a2.4,2.4,0,0,0,1.51-.26c1.8-.61,3.59-1.27,5.36-2s3.55-1.37,5.31-2.1A2.46,2.46,0,0,0,616.15,98.91Z" transform="translate(0.01 0)" fill="#ff0" opacity="0.11" style="isolation:isolate"/><path d="M617,100.77c4.88-8.55,9.88-16.93,16.1-24.6q6.2-7.62,13.12-14.6a176.58,176.58,0,0,1,43.33-31.5A186.59,186.59,0,0,1,735.16,13.2a177.8,177.8,0,0,1,24.05-3.82,203.41,203.41,0,0,1,29.21,0c1,.06-1.38-1.67-1.15-1.49-.92-.67-1.86-1.33-2.82-2A5.6,5.6,0,0,0,782.88,5c-9.92-.22-19.72-.24-29.59,1Q743.5,7.26,733.85,9.4a186.33,186.33,0,0,0-50.47,19.73,188.43,188.43,0,0,0-39.49,29.55,173.41,173.41,0,0,0-16.52,18.48c-6,7.81-11.09,16.24-16.2,24.65-.44.72,2,.13,2.23.09C614.26,101.73,616.46,101.64,617,100.77Z" transform="translate(0.01 0)" fill="#ff0" opacity="0.11" style="isolation:isolate"/><path d="M619.17,97.45a134,134,0,0,1,10.12-16.83,158,158,0,0,1,12.3-15.37A173.2,173.2,0,0,1,671,39.52a186,186,0,0,1,80.7-31.6,175.23,175.23,0,0,1,19.41-1.53,166.91,166.91,0,0,1,19.49.69c.59,0,.42-.21.24-.54a5.19,5.19,0,0,0-2.45-1.09A173.22,173.22,0,0,0,768.53,5a130,130,0,0,0-14.75,1.2,179.31,179.31,0,0,0-24.43,4.55,188.67,188.67,0,0,0-28.21,9.8,195.2,195.2,0,0,0-42.33,25.59,177.7,177.7,0,0,0-21.57,20.48,161.67,161.67,0,0,0-12.3,15.66,168,168,0,0,0-10,16.58c-.4.7,1.32,0,1.25.06C616.88,98.64,618.77,98.18,619.17,97.45Z" transform="translate(0.01 0)" fill="#ff0" opacity="0.11" style="isolation:isolate"/><path d="M616.65,101.35l4.83-8.55a124.88,124.88,0,0,1,8.4-12.27A163.32,163.32,0,0,1,642.6,65.45,179.61,179.61,0,0,1,680.94,35a188.37,188.37,0,0,1,40.18-18c6.23-1.94,12.59-3.5,19-4.83,9.64-2,19.32-2.75,29.12-3.31h9.41l10.13.59a1.67,1.67,0,0,0-.82-1c-1.2-1-2.43-1.88-3.68-2.77s-2.5-1.8-3.78-2.65a1.69,1.69,0,0,0-1.17-.48c-10.05,0-20,.15-30,1.64Q739.45,5.66,729.72,8A188.76,188.76,0,0,0,679,29a193,193,0,0,0-39.4,30.57,181,181,0,0,0-16.42,18.89,284.46,284.46,0,0,0-16,24.5,1.18,1.18,0,0,0,1,.12c1.26-.15,2.52-.33,3.77-.55C612.67,102.41,616.14,102.26,616.65,101.35Z" transform="translate(0.01 0)" fill="#ff0" opacity="0.11" style="isolation:isolate"/><path d="M615.68,99.73c4.91-8.66,10-17.11,16.24-24.89A182.82,182.82,0,0,1,648.6,56.77a170.18,170.18,0,0,1,18.91-15.61A242.93,242.93,0,0,1,692.72,26l-.36.17,9.25-4.32-.37.15,9.46-3.85-.38.14L720,14.93l-.39.11,9.8-2.83-.39.09,9.9-2.3-.39.07,10-1.77-.4,0,10.12-1.22h-.4L768,6.49h-.4l10.19-.09h-.4l10.19.51a2.21,2.21,0,0,0-1.09-1c-1.52-1-3.06-1.9-4.62-2.8s-3.11-1.81-4.7-2.67A2.18,2.18,0,0,0,775.82,0c-10.18.15-20.24.5-30.31,2.18q-10,1.65-19.81,4.21a191.7,191.7,0,0,0-51,22A197.28,197.28,0,0,0,635.16,60a191.73,191.73,0,0,0-16.38,19.28c-5.85,7.94-11.08,16.34-16.21,24.75a2.2,2.2,0,0,0,1.47-.16c1.74-.5,3.48-1,5.2-1.61s3.45-1.14,5.16-1.76A2.19,2.19,0,0,0,615.68,99.73Z" transform="translate(0.01 0)" fill="#ff0" opacity="0.11" style="isolation:isolate"/><path d="M617.28,100.54a148.9,148.9,0,0,1,10.28-16.87l5.91-8c22.83-29.36,57-50.53,92.59-60.68a181.09,181.09,0,0,1,28.71-5.75,134.61,134.61,0,0,1,14.6-1.15,169.89,169.89,0,0,1,19.54.51c.41,0,.29,0,.19-.29l-.66-.57q-1.26-.88-2.55-1.71c-1.32-.86-2.65-1.71-4-2.51a4.17,4.17,0,0,0-1.9-.83q-10-.27-20,.45a181.13,181.13,0,0,0-19.8,2.7A189.43,189.43,0,0,0,702,17.54a195.83,195.83,0,0,0-43.13,25.17A188.36,188.36,0,0,0,630,70.31c-8.51,10.08-15.55,21.13-22.33,32.4a1.32,1.32,0,0,0,1.08.07q1.93-.34,3.84-.78c1.28-.28,2.56-.59,3.82-.94A1.26,1.26,0,0,0,617.28,100.54Z" transform="translate(0.01 0)" fill="#ff0" opacity="0.11" style="isolation:isolate"/><path d="M620.26,102a39.27,39.27,0,0,1,6.5-12.79,132.62,132.62,0,0,1,8.69-12,193.9,193.9,0,0,1,13.17-14.47,174.54,174.54,0,0,1,43.43-31,185.18,185.18,0,0,1,45.63-16.36,175.18,175.18,0,0,1,24-3.56,200.47,200.47,0,0,1,29.1.3c.64,0-.21-.89-.21-.9-.36-.41-1.16-1.27-1.76-1.3C779,9.36,769.35,9,759.59,10q-9.71,1-19.27,2.8a187.87,187.87,0,0,0-90,46.21,168.29,168.29,0,0,0-16.68,17.92l-5.88,7.91a37.66,37.66,0,0,0-8.64,16.92C618.89,102.41,620.08,102.41,620.26,102Z" transform="translate(0.01 0)" fill="#ff0" opacity="0.11" style="isolation:isolate"/><path d="M606.77,63.42a41,41,0,0,1,0,9,59.34,59.34,0,0,1-1.15,8.81l.09-.36-1.5,6,.11-.35-2,5.76.13-.34L600,97.36l.17-.33a36,36,0,0,1-4.39,6.72,30,30,0,0,1-5.16,5.69c-.35.28-.31.39.14.32q12.51-1.8,25-3.53,11.5-1.78,23.14-2.57c.74-.07,1.2-4.4,1.24-4.63,0,.13.85-4.86.51-4.77q-9.08,2.19-18,5.06a157.13,157.13,0,0,1-21.14,5.41h.37A56.92,56.92,0,0,0,606.3,98a54.5,54.5,0,0,0,5.33-13.6,138.82,138.82,0,0,0,3.48-29.5,1.72,1.72,0,0,0-1.09.68c-1.14,1.07-2.26,2.16-3.35,3.29s-2.19,2.25-3.24,3.41A1.74,1.74,0,0,0,606.77,63.42Z" transform="translate(0.01 0)" fill="#ff0" opacity="0.11" style="isolation:isolate"/><path d="M607,65.3a58,58,0,0,1-.26,12V77a62.66,62.66,0,0,1-2.29,11.44,42.55,42.55,0,0,1-3,7.87,36.37,36.37,0,0,1-3.93,7.09A41.16,41.16,0,0,1,590.8,111c-.29.3-.23.41.17.3q12.3-2,24.63-3.51a207.3,207.3,0,0,1,23.33-2.19c1-.07.23-9.44,0-9.4A78.79,78.79,0,0,0,620.78,100q-10.17,3.08-20.54,5.45l.18.3a43.8,43.8,0,0,0,5.93-9l2.38-5.22a56.53,56.53,0,0,0,2.55-8.84,129.24,129.24,0,0,0,2.9-26.81,1.77,1.77,0,0,0-1,.8c-1,1.2-2,2.41-2.9,3.65s-1.88,2.48-2.78,3.75A1.74,1.74,0,0,0,607,65.3Z" transform="translate(0.01 0)" fill="#ff0" opacity="0.11" style="isolation:isolate"/><path d="M603.37,65.12a19.13,19.13,0,0,1,.68,11.42,48,48,0,0,1-5.73,18.6,36.47,36.47,0,0,1-4.15,6.81,44.77,44.77,0,0,1-6.94,7.42c-.49.46.17.58.53.54q12.91-1.55,25.88-2.61,12.45-1.26,25-1.63c.46,0,0-.65-.4-.63q-12.13.12-24.18,1.36-12.72,1-25.4,2.56l.53.54a57.92,57.92,0,0,0,9.67-12.21,58.42,58.42,0,0,0,4.42-10.13,49.33,49.33,0,0,0,1.52-5.73l.92-5.79a12.68,12.68,0,0,0-1.25-11C604.2,64,603.27,64.67,603.37,65.12Z" transform="translate(0.01 0)" fill="#ff0" opacity="0.11" style="isolation:isolate"/><path d="M604.14,70.18a40.29,40.29,0,0,1,.08,8.85,49,49,0,0,1-4.64,19.25l-2.5,4.9a46.33,46.33,0,0,1-10,12c-.07.07-.28.57.06.53q13.13-1.68,26.29-2.78,12.44-1.29,24.94-1.65c.4,0,.7-1.51-.07-1.47q-12.07.36-24.08,1.56-12.39,1-24.77,2.35l.06.53,3.75-3.79a41.58,41.58,0,0,0,4.88-6.7,52.9,52.9,0,0,0,6-13c.59-2,1.12-4.09,1.55-6.08,1.26-5.81,1.19-11.68,1-17.57,0-.76-1,.58-1,.52C605.22,68.22,604.1,69.4,604.14,70.18Z" transform="translate(0.01 0)" fill="#ff0" opacity="0.11" style="isolation:isolate"/><path d="M606.3,66.07a41,41,0,0,1,0,9,54.35,54.35,0,0,1-1.14,8.8l.1-.42-1.52,6,.12-.41a65.67,65.67,0,0,1-5.58,12.64,24,24,0,0,1-3,4.34,31.05,31.05,0,0,1-5.11,5.63c-.37.36-.3.46.19.3q12.35-2,24.74-3.57A219,219,0,0,1,638.52,106c.7,0,.88-5.73.88-5.83,0,.14.53-6,.14-5.91a107.72,107.72,0,0,0-23.93,6.44l.35-.11-14.16,3.92.18.3c2.79-3.88,3.75-4.93,5.8-9.24.87-1.83,1.78-3.8,2.46-5.71A79.46,79.46,0,0,0,614.13,72c.66-5.87,1.14-11.75,1.27-17.65a2.53,2.53,0,0,0-1.19,1q-1.87,2.25-3.66,4.57c-1.2,1.54-2.38,3.09-3.53,4.67A2.53,2.53,0,0,0,606.3,66.07Z" transform="translate(0.01 0)" fill="#ff0" opacity="0.11" style="isolation:isolate"/><path d="M606.91,64.1a39.83,39.83,0,0,1,0,9,58,58,0,0,1-1.13,8.81l.08-.38-1.49,6,.1-.37-2,5.76.13-.36L600.1,98l.16-.35a36.12,36.12,0,0,1-4.37,6.71,30.08,30.08,0,0,1-5.13,5.68c-.36.31-.31.41.16.31q12.44-1.87,24.91-3.59,11.46-1.79,23.06-2.48c.72-.06,1-5,1-5.21,0,.14.63-5.39.27-5.3a127.06,127.06,0,0,0-17.45,4.94A151.72,151.72,0,0,1,602,104.47h.39a56.69,56.69,0,0,0,4.41-6.75A55,55,0,0,0,612,84.08a143.4,143.4,0,0,0,3.44-29.63,2,2,0,0,0-1.12.81c-1.18,1.23-2.32,2.49-3.44,3.77s-2.25,2.55-3.33,3.86A2,2,0,0,0,606.91,64.1Z" transform="translate(0.01 0)" fill="#ff0" opacity="0.11" style="isolation:isolate"/><path d="M605.05,68a51,51,0,0,1-.18,11.58A57.8,57.8,0,0,1,602.5,91a57,57,0,0,1-4.34,10.25,45.59,45.59,0,0,1-9.67,12c-.18.25-.11.35.19.29q12.48-2,25.07-3.1,12-1.38,24-1.62c.66,0,.46-4.75-.12-4.71a175.58,175.58,0,0,0-21.48,1.78q-10.59,1.19-21.08,3.14l.19.3a62.29,62.29,0,0,0,6.4-8.49,55.65,55.65,0,0,0,5.56-13.3c2.47-8.59,3.11-17.43,3.2-26.33,0-.33,0-.26-.28-.21l-.52.48c-.54.63-1.06,1.28-1.55,1.94-.78,1-1.56,2-2.28,3.08C605.49,66.92,605,67.45,605.05,68Z" transform="translate(0.01 0)" fill="#ff0" opacity="0.11" style="isolation:isolate"/><path d="M604.87,66.05a40.29,40.29,0,0,1,0,11.91,48.15,48.15,0,0,1-5.76,18.63A36.81,36.81,0,0,1,595,103.4a45.73,45.73,0,0,1-6.94,7.44c-.23.22-.17.6.21.56q13.1-1.61,26.25-2.72,12.36-1.28,24.79-1.66c.45,0,.39-1-.21-.92q-12.14.3-24.22,1.51-12.52,1-25,2.52l.22.56c3.7-3.8,7.18-7.61,9.72-12.33a57,57,0,0,0,4.48-10.3c.53-1.76,1.11-3.89,1.49-5.69l1-5.85a33.79,33.79,0,0,0-.27-11.78C606.43,64,604.83,65.54,604.87,66.05Z" transform="translate(0.01 0)" fill="#ff0" opacity="0.11" style="isolation:isolate"/><path d="M606,67.89l.21,6v-.36c-.51,6.91-1.36,13.41-3.71,20a44,44,0,0,1-3.31,7.62,45.61,45.61,0,0,1-9.53,12.09c-.25.32-.19.41.2.28q12.32-2,24.73-3.37a209.46,209.46,0,0,1,23.73-1.92c.74,0,.18-8.6-.32-8.55a87.61,87.61,0,0,0-19.33,2.76q-10.24,2.19-20.43,4.71l.21.29,3.24-4.13A44.06,44.06,0,0,0,605.86,96a58.69,58.69,0,0,0,4.65-14.07,136.2,136.2,0,0,0,2.34-24,1.78,1.78,0,0,0-1,.87q-1.44,1.92-2.77,3.9c-.91,1.31-1.78,2.64-2.63,4A1.8,1.8,0,0,0,606,67.89Z" transform="translate(0.01 0)" fill="#ff0" opacity="0.11" style="isolation:isolate"/><path d="M606.45,65.07a41,41,0,0,1,0,9,56.79,56.79,0,0,1-1.14,8.81l.1-.4-1.52,6,.12-.39-2,5.75.14-.38A49.6,49.6,0,0,1,597,103.1a40.63,40.63,0,0,1-6.72,7.74c-.37.33-.31.44.17.3q12.38-1.9,24.78-3.57,11.63-1.8,23.36-2.44c.72-.06,1-5.38,1.06-5.53,0,.15.66-5.7.3-5.62a100.27,100.27,0,0,0-17.53,4.67,180,180,0,0,1-20.5,5.84l.17.3c3.08-4.25,3.49-4.5,5.79-9.22a50.87,50.87,0,0,0,3.3-8.6c3-10.49,4-21.72,4.28-32.6a2.33,2.33,0,0,0-1.17.93c-1.24,1.37-2.45,2.77-3.63,4.18s-2.35,2.84-3.51,4.28A2.31,2.31,0,0,0,606.45,65.07Z" transform="translate(0.01 0)" fill="#ff0" opacity="0.11" style="isolation:isolate"/><path d="M606.49,66.94c.32,9-.48,17.23-3.5,25.65a41.84,41.84,0,0,1-3.32,7.65,45.58,45.58,0,0,1-9.54,12.12c-.21.28-.15.38.2.29q12.28-2,24.67-3.33a210.84,210.84,0,0,1,23.68-1.87c.59,0,0-7.29-.66-7.23a94.08,94.08,0,0,0-19.76,2.68Q608,105,597.75,107.32l.19.29a62.14,62.14,0,0,0,6.17-8.75,57.14,57.14,0,0,0,5.24-13.6c2.27-8.74,2.93-17.77,3.08-26.78a1.35,1.35,0,0,0-.87.71c-.83,1.08-1.64,2.18-2.41,3.3C608.49,63.43,606.44,65.59,606.49,66.94Z" transform="translate(0.01 0)" fill="#ff0" opacity="0.11" style="isolation:isolate"/><path d="M604.59,70.9a34.36,34.36,0,0,1-.37,11.75A37.72,37.72,0,0,1,602,93.91l-2,5.17a47,47,0,0,1-12.11,16.32c-.31.3-.65.86,0,.78q13.07-1.67,26.18-2.81,12.28-1.34,24.65-1.59c.56,0,.73-1.37.18-1.35q-12.27.24-24.47,1.55-12.51,1.14-25,2.46l.12.5a70.06,70.06,0,0,0,6.72-7.48A50.71,50.71,0,0,0,603,94.87a58.51,58.51,0,0,0,3-11.34c.19-1,.36-2,.52-3.06a48.19,48.19,0,0,0,0-12c0-.68-.9.41-.88.39C605.3,69.29,604.55,70.24,604.59,70.9Z" transform="translate(0.01 0)" fill="#ff0" opacity="0.11" style="isolation:isolate"/><path d="M378.39,357.63c-4.46,8.9-9.07,17.59-14.93,25.68q-5.79,8-12.36,15.39a178.15,178.15,0,0,1-41.8,34.07,187.12,187.12,0,0,1-44.95,19.5,178.63,178.63,0,0,1-24,5.16A204.2,204.2,0,0,1,211,459.05a2.49,2.49,0,0,0,1.13,1.07q2.37,1.62,4.8,3.15t4.89,3a2.47,2.47,0,0,0,1.44.57c10.15-.66,20.17-1.51,30.14-3.68Q263.32,461,273,458a191.57,191.57,0,0,0,49.82-24.52A196.48,196.48,0,0,0,360.61,400,187,187,0,0,0,376,379.92c5.41-8.19,10.17-16.79,14.81-25.43a1.9,1.9,0,0,0-1.37,0q-2.47.52-4.92,1.16c-1.64.41-3.26.84-4.88,1.32A1.91,1.91,0,0,0,378.39,357.63Z" transform="translate(0.01 0)" fill="#ff0" opacity="0.11" style="isolation:isolate"/><path d="M378.79,359.2a165.6,165.6,0,0,1-20.87,33.58l.22-.27-6.6,7.76.24-.26-7,7.37.24-.26a177.73,177.73,0,0,1-14.65,13.05A186.83,186.83,0,0,1,284,447.33a182.35,182.35,0,0,1-32.72,10,175.39,175.39,0,0,1-19.34,2.85,168.23,168.23,0,0,1-19.57.62c-.43,0-.3,0-.17.31l.74.53c.91.54,1.84,1.06,2.78,1.55,1.43.77,2.88,1.54,4.34,2.25a4.5,4.5,0,0,0,2,.71A221,221,0,0,0,247,463.57a186.12,186.12,0,0,0,24.31-5.83,193,193,0,0,0,37.24-16.22A197.61,197.61,0,0,0,345,414.94a192.07,192.07,0,0,0,17.55-18.31c10.7-12.82,19.09-27.08,27-41.75a1.63,1.63,0,0,0-1.24.17c-1.42.51-2.84,1.06-4.24,1.64s-2.81,1.15-4.19,1.78A1.6,1.6,0,0,0,378.79,359.2Z" transform="translate(0.01 0)" fill="#ff0" opacity="0.11" style="isolation:isolate"/><path d="M374.87,356.94a75.72,75.72,0,0,1-6.66,13.25,119.37,119.37,0,0,1-8,12.46,193.22,193.22,0,0,1-12.39,15.14A175.94,175.94,0,0,1,306.3,431a185.86,185.86,0,0,1-44.47,18.87,178.87,178.87,0,0,1-23.69,4.93,203.6,203.6,0,0,1-29,1.38c-.82,0,.74,1.19.63,1.1.62.5,2,1.82,2.84,1.8,9.77-.14,19.4-.48,29.06-2.09q9.57-1.61,19-4.08a184.36,184.36,0,0,0,48.76-21.13A186.41,186.41,0,0,0,347,401.56a169.31,169.31,0,0,0,15.7-18.84l5.47-8.23a86.33,86.33,0,0,0,8.94-17.55C377.48,356.19,375.08,356.5,374.87,356.94Z" transform="translate(0.01 0)" fill="#ff0" opacity="0.11" style="isolation:isolate"/><path d="M374.81,362.92l-4.27,8.89A98.09,98.09,0,0,1,356.64,392a81.55,81.55,0,0,1-12.28,15,86.17,86.17,0,0,1-7,6.78,186.51,186.51,0,0,1-80.7,43.08,192.77,192.77,0,0,1-19.07,3.56c-9.69,1.34-19.32,1.4-29.07,1.25-.36,0-.3.37-.19.56a3.11,3.11,0,0,0,1.42.5,203.13,203.13,0,0,0,29.38-1.44A173.14,173.14,0,0,0,267.85,455a193.43,193.43,0,0,0,48.69-23.19,179,179,0,0,0,40.11-36.14c2.14-2.63,4.23-5.3,6.17-8.08l5.52-8.26a105.12,105.12,0,0,0,9.18-17.48c.28-.59-.91-.1-.9-.1A3.66,3.66,0,0,0,374.81,362.92Z" transform="translate(0.01 0)" fill="#ff0" opacity="0.11" style="isolation:isolate"/><path d="M378.12,359.85a152.16,152.16,0,0,1-9.43,17.46,121.31,121.31,0,0,1-8.44,12.19,124.54,124.54,0,0,1-9.33,11.42A181.25,181.25,0,0,1,337,414.72l.31-.27L329.5,421l.32-.25-8.14,6.15.33-.23-8.45,5.72.34-.22-8.73,5.27.35-.2-9,4.82.36-.19c-5.91,2.79-11.8,5.57-17.92,7.89a183.5,183.5,0,0,1-23.38,7.08,176.5,176.5,0,0,1-19.22,3.4A210.87,210.87,0,0,1,212,461.5c-.46,0-.38,0-.15.32l.91.55c1.11.55,2.24,1.09,3.37,1.6,1.75.8,3.5,1.59,5.27,2.34a5.82,5.82,0,0,0,2.4.72,195.52,195.52,0,0,0,20.2-1.94A187.93,187.93,0,0,0,263.38,461a199.49,199.49,0,0,0,87.31-50.07A205.79,205.79,0,0,0,370.6,388c8-10.6,14.41-22.29,20.7-33.94a2.41,2.41,0,0,0-1.51.33c-1.76.7-3.5,1.44-5.24,2.2s-3.46,1.54-5.17,2.35A2.46,2.46,0,0,0,378.12,359.85Z" transform="translate(0.01 0)" fill="#ff0" opacity="0.11" style="isolation:isolate"/><path d="M378.65,358.26c-4.46,8.9-9.06,17.6-14.92,25.69-3.85,5.34-8,10.46-12.34,15.39a178.11,178.11,0,0,1-41.71,34.11A187.58,187.58,0,0,1,264.8,453a179.37,179.37,0,0,1-23.93,5.22,204.11,204.11,0,0,1-29.34,1.68,2.34,2.34,0,0,0,1.13,1c1.59,1,3.2,2,4.81,2.92s3.23,1.88,4.88,2.77a2.39,2.39,0,0,0,1.43.5C234,466.4,244,465.53,254,463.33q9.9-2.19,19.56-5.25a191.36,191.36,0,0,0,49.84-24.67,198,198,0,0,0,37.79-33.58,190.69,190.69,0,0,0,15.35-20.11c5.41-8.22,10.18-16.85,14.85-25.5a2.11,2.11,0,0,0-1.42.13c-1.69.47-3.37,1-5,1.51s-3.34,1.08-5,1.66A2.12,2.12,0,0,0,378.65,358.26Z" transform="translate(0.01 0)" fill="#ff0" opacity="0.11" style="isolation:isolate"/><path d="M376.48,361c-4.4,8.91-9,17.57-14.82,25.63a184.26,184.26,0,0,1-12.34,15.28,176.75,176.75,0,0,1-41.64,33.72A186.44,186.44,0,0,1,263,454.83a174.27,174.27,0,0,1-23.82,5.06A201.86,201.86,0,0,1,210,461.41c-1,0,1.66,1.24,1.25,1.06,1.21.52,2.93,1.49,4.29,1.46,10-.22,19.91-.64,29.81-2.38q9.83-1.74,19.46-4.36a186.13,186.13,0,0,0,50-22.37A189.12,189.12,0,0,0,353.11,403a176.59,176.59,0,0,0,15.66-19.48,253.12,253.12,0,0,0,14.89-25.6c.49-.93-2.21.47-2,.38-1.16.53-2.31,1.09-3.45,1.67A6.89,6.89,0,0,0,376.48,361Z" transform="translate(0.01 0)" fill="#ff0" opacity="0.11" style="isolation:isolate"/><path d="M375.74,358.48a76.76,76.76,0,0,1-6.66,13.21,119.37,119.37,0,0,1-8,12.46,192.57,192.57,0,0,1-12.35,15.13,175,175,0,0,1-41.57,33.25,185.68,185.68,0,0,1-44.51,18.85,178.77,178.77,0,0,1-23.71,4.91,203.6,203.6,0,0,1-29,1.38c-.75,0,.6,1,.5.95.59.43,1.63,1.33,2.41,1.32,9.79-.09,19.45-.38,29.14-1.95q9.62-1.56,19.06-4a189.21,189.21,0,0,0,87-51.3,167.37,167.37,0,0,0,15.65-18.8l5.45-8.2a84.93,84.93,0,0,0,9-17.5C378.37,357.5,376,358,375.74,358.48Z" transform="translate(0.01 0)" fill="#ff0" opacity="0.11" style="isolation:isolate"/><path d="M377.64,361.27l-4.4,8.85.16-.3A203.85,203.85,0,0,1,360,390.57,170,170,0,0,1,343.88,409a180.12,180.12,0,0,1-38.95,29.33,194.31,194.31,0,0,1-40.44,16.93,179.13,179.13,0,0,1-23.81,5.19,205,205,0,0,1-29.19,1.7c-1.21,0,2.35,1.45,1.8,1.23,1.27.5,2.54,1,3.83,1.42a7.73,7.73,0,0,0,2,.56c10.08-.42,20-1,30-3a197.06,197.06,0,0,0,24.27-6.31,189.37,189.37,0,0,0,49.39-24.51A204.46,204.46,0,0,0,360.05,398c11-12.69,19.35-27.18,27.23-41.92a1.48,1.48,0,0,0-1.15.28c-1.3.63-2.59,1.29-3.85,2s-2.53,1.38-3.77,2.12A1.54,1.54,0,0,0,377.64,361.27Z" transform="translate(0.01 0)" fill="#ff0" opacity="0.11" style="isolation:isolate"/><path d="M378.19,359.05a152.87,152.87,0,0,1-9.43,17.45,163.79,163.79,0,0,1-11.42,16.14,175.68,175.68,0,0,1-24.09,24.46,186.71,186.71,0,0,1-28.14,19.62,191.22,191.22,0,0,1-17.54,8.77,187.38,187.38,0,0,1-18.34,6.9l.39-.11-9.8,2.82.4-.09-9.93,2.29.4-.07-10,1.75.4-.05L231,460.11h.41l-10.18.61h-9.8a2.28,2.28,0,0,0,1.18.94c1.61.9,3.24,1.76,4.89,2.6s3.29,1.67,5,2.46a2.33,2.33,0,0,0,1.45.4c10.16-.69,20.18-1.57,30.15-3.77q9.9-2.18,19.56-5.25a191.71,191.71,0,0,0,49.82-24.67,198,198,0,0,0,37.79-33.58,191.63,191.63,0,0,0,15.34-20.11c5.43-8.24,10.2-16.9,14.89-25.57a2.33,2.33,0,0,0-1.49.23c-1.76.59-3.51,1.22-5.24,1.87s-3.46,1.32-5.19,2A2.3,2.3,0,0,0,378.19,359.05Z" transform="translate(0.01 0)" fill="#ff0" opacity="0.11" style="isolation:isolate"/><path d="M378.06,360.45a135.45,135.45,0,0,1-12,21.25,82.37,82.37,0,0,1-5.7,8.05,170.55,170.55,0,0,1-16.12,18.48,180.18,180.18,0,0,1-39,29.35,194.3,194.3,0,0,1-40.5,16.94A180,180,0,0,1,241,459.7a203.89,203.89,0,0,1-29.22,1.68c-1.15,0,2.07,1.52,1.62,1.3,1.16.55,2.33,1.08,3.52,1.58a7.12,7.12,0,0,0,1.9.65c10.05-.4,20-1,29.87-2.89q9.82-1.89,19.45-4.67A188.29,188.29,0,0,0,318,434.21a191.44,191.44,0,0,0,38.11-32.41,180.85,180.85,0,0,0,15.54-19.68,280.3,280.3,0,0,0,15-25.83,1.22,1.22,0,0,0-1,.17c-1.15.49-2.29,1-3.41,1.57S378.62,359.31,378.06,360.45Z" transform="translate(0.01 0)" fill="#ff0" opacity="0.11" style="isolation:isolate"/><path d="M375.32,363.43l-9.13,17.24-5.51,8.18a153.44,153.44,0,0,1-15.8,18.63,174.63,174.63,0,0,1-34.14,27.32,194.22,194.22,0,0,1-35,16.89,182,182,0,0,1-23.35,6.61c-14.5,3.1-28.12,4-43.4,3.76-.27,0-.25.42-.19.57s.77.32,1,.32c8.58.1,11,.31,19.6-.34a169.36,169.36,0,0,0,29-4.68,192.15,192.15,0,0,0,49.83-20.46,178.12,178.12,0,0,0,42-33.79,162.58,162.58,0,0,0,18-23.54l5-8.64a93.18,93.18,0,0,0,4.21-9c.24-.52-.77-.15-.79-.14A2.79,2.79,0,0,0,375.32,363.43Z" transform="translate(0.01 0)" fill="#ff0" opacity="0.11" style="isolation:isolate"/><path d="M389.72,391.14a41.08,41.08,0,0,1-.48-9,52.16,52.16,0,0,1,.66-8.82l-.06.42c1.08-5.51,2.25-11,4.76-16.12l2.52-4.66a41.39,41.39,0,0,1,6.26-8l.19-.36q-12.4,2.67-24.91,4.92A206.54,206.54,0,0,1,355.32,353c-.67.09-.37,5.88-.37,5.94,0-.12-.05,6,.39,5.94a70.11,70.11,0,0,0,17.4-4.79q9.84-3.7,19.85-6.92l-.21-.28a62.56,62.56,0,0,0-5.5,9.9,55.48,55.48,0,0,0-2.74,8.32c-2.6,10.67-2.94,21.93-2.6,32.85a2.52,2.52,0,0,0,1.11-1.17q1.69-2.48,3.3-5c1.08-1.68,2.14-3.37,3.16-5.09A2.64,2.64,0,0,0,389.72,391.14Z" transform="translate(0.01 0)" fill="#ff0" opacity="0.11" style="isolation:isolate"/><path d="M390.11,393.07a43,43,0,0,1-.43-9,55.86,55.86,0,0,1,.68-8.85l-.06.37,1.19-6-.08.36a65,65,0,0,1,5-13,23.75,23.75,0,0,1,2.77-4.51,30.13,30.13,0,0,1,4.85-5.89c.32-.33.26-.43-.18-.31q-12.39,2.61-24.87,4.86-11.5,2.34-23.19,3.55c-.7.09-.8,4.39-.82,4.58,0-.12-.46,4.76-.05,4.66a116.06,116.06,0,0,0,18.29-5.05q10.13-3.49,20.49-6.24l-.17-.3c-2.7,4-3.56,4.9-5.46,9.31a60.26,60.26,0,0,0-2.23,5.68,76.35,76.35,0,0,0-3.14,17.93c-.38,5.85-.53,11.7-.33,17.57a1.86,1.86,0,0,0,1-.83q1.62-1.86,3.14-3.79t3-3.88A1.85,1.85,0,0,0,390.11,393.07Z" transform="translate(0.01 0)" fill="#ff0" opacity="0.11" style="isolation:isolate"/><path d="M391,387.94c-.55-5.86-1-11.83.18-17.67l5-15.63a46.5,46.5,0,0,1,9.2-12.45c.08-.08.4-.65,0-.58q-12.78,2.11-25.62,3.81-12.27,1.83-24.63,2.85c-.63.06-.7,2.06-.18,2,15.84-1.72,31.61-3.81,47.44-5.68V344c-3.52,4.12-6.86,8.35-9.07,13.36a66.54,66.54,0,0,0-3,8.47c-2.54,8.72-2.72,17.47-2.16,26.5,0,.9,1.24-1.07,1.12-.9.45-.73.88-1.48,1.29-2.24A3.44,3.44,0,0,0,391,387.94Z" transform="translate(0.01 0)" fill="#ff0" opacity="0.11" style="isolation:isolate"/><path d="M392,392.47a41.58,41.58,0,0,1-.59-16.88,55.25,55.25,0,0,1,3-10.85,48.92,48.92,0,0,1,4.9-9.48,46.28,46.28,0,0,1,6.54-7.77c.36-.38-.21-.57-.48-.52q-12.94,2.32-26,4.06-12.33,1.86-24.75,3c-.36,0,.15.48.4.45q12.27-.83,24.44-2.63,12.75-1.61,25.39-3.9l-.48-.52a60.15,60.15,0,0,0-7.79,10.31,51.47,51.47,0,0,0-5.24,12.62,70.21,70.21,0,0,0-1.77,11.34c-.73,8.09-1.46,4.8,1.55,11.21C391.38,393.41,392.1,392.92,392,392.47Z" transform="translate(0.01 0)" fill="#ff0" opacity="0.11" style="isolation:isolate"/><path d="M389.18,394.12a40.45,40.45,0,0,1-.44-9,58.34,58.34,0,0,1,.67-8.86l-.07.38,1.18-6.07-.08.38,1.68-5.85-.12.36,2.2-5.55-.14.36a35.59,35.59,0,0,1,4-6.92,30.35,30.35,0,0,1,4.82-6c.35-.33.29-.43-.17-.3l-16.8,3.38.34-.07q-15.45,3.39-31.14,5.28c-.71.1-.73,5.12-.74,5.28,0-.14-.34,5.44,0,5.33a123.46,123.46,0,0,0,17.17-5.82A153.54,153.54,0,0,1,392,353.63h-.39a54.68,54.68,0,0,0-8.6,20.9,143.48,143.48,0,0,0-1.87,29.78,2.08,2.08,0,0,0,1.08-.88c1.11-1.31,2.19-2.63,3.25-4s2.11-2.69,3.13-4.07A2.08,2.08,0,0,0,389.18,394.12Z" transform="translate(0.01 0)" fill="#ff0" opacity="0.11" style="isolation:isolate"/><path d="M389.78,392.09a41.7,41.7,0,0,1-.47-9,53.38,53.38,0,0,1,.67-8.84l-.08.42,1.2-6.07-.1.4,1.7-5.84-.12.41a48.79,48.79,0,0,1,4.59-9.82,41.24,41.24,0,0,1,6.29-8c.35-.38.28-.48-.2-.29Q391,348,378.71,350.31a220.46,220.46,0,0,1-23.29,3.58c-.7.09-.63,5.78-.64,5.89,0-.15-.27,6,.12,5.92a109.14,109.14,0,0,0,23.62-7.7l-.35.13,13.94-4.64-.2-.29c-2.78,4.3-3.3,4.83-5.31,9.53a51.84,51.84,0,0,0-2.86,8.76c-2.51,10.66-2.89,21.93-2.56,32.84a2.59,2.59,0,0,0,1.15-1.12c1.18-1.57,2.34-3.17,3.46-4.79s2.25-3.24,3.33-4.89A2.52,2.52,0,0,0,389.78,392.09Z" transform="translate(0.01 0)" fill="#ff0" opacity="0.11" style="isolation:isolate"/><path d="M390.08,393.55a87,87,0,0,1-.35-11.86,60,60,0,0,1,2.57-14.18,51.54,51.54,0,0,1,4.27-10.13,23.5,23.5,0,0,1,2.82-4.42,30.61,30.61,0,0,1,4.86-5.73c.12-.19.07-.29-.16-.31q-12.34,2.26-24.78,4-11.94,1.92-24,2.83c-.54.06-.09,2.31.55,2.24q11.25-1,22.39-2.79,10.67-1.51,21.25-3.49l-.16-.31a59.23,59.23,0,0,0-5.84,8.38,55,55,0,0,0-5,13.24c-2.14,8.65-2.18,17.34-1.89,26.2,0,.83,1.25-.68,1.22-.65.53-.62,1.05-1.25,1.55-1.9A3.12,3.12,0,0,0,390.08,393.55Z" transform="translate(0.01 0)" fill="#ff0" opacity="0.11" style="isolation:isolate"/><path d="M391.77,389.61a52.26,52.26,0,0,1-.48-11.79,43.47,43.47,0,0,1,1.23-8.64,42.11,42.11,0,0,1,2.33-8.17,44.12,44.12,0,0,1,11.09-17.1s.58-.7.05-.61q-12.63,2.2-25.35,3.74-12.4,1.71-24.89,2.8c-.4,0-.81,1.8,0,1.72q23.29-2.37,46.51-5.23l.06-.61a56.38,56.38,0,0,0-9,13.55c-4.87,10.9-5.57,22.57-4.8,34.3.06.85,1.24-.83,1.18-.76.5-.67,1-1.33,1.44-2A3.22,3.22,0,0,0,391.77,389.61Z" transform="translate(0.01 0)" fill="#ff0" opacity="0.11" style="isolation:isolate"/><path d="M389.93,394.46A65.21,65.21,0,0,1,392.8,366a48.14,48.14,0,0,1,4.64-9.88,40,40,0,0,1,6.36-8c.24-.24.19-.35-.15-.32q-12.34,2.35-24.72,4.54a211,211,0,0,1-23.2,3.3c-.78.09-.22,5.4.2,5.32q6.38-1,12.7-2.35,13.56-3.77,27.32-6.79l-.15-.32-3,4.06a42.34,42.34,0,0,0-3.68,7.38,59.12,59.12,0,0,0-3.85,14.26,117.49,117.49,0,0,0-1,23.41,1,1,0,0,0,.8-.45c.79-.76,1.55-1.56,2.28-2.37C387.91,397.23,390,395.46,389.93,394.46Z" transform="translate(0.01 0)" fill="#ff0" opacity="0.11" style="isolation:isolate"/><path d="M389.3,393.18a41.69,41.69,0,0,1-.46-9,57,57,0,0,1,.67-8.85l-.06.4,1.18-6.07-.09.39,1.69-5.84-.12.38a49.58,49.58,0,0,1,4.58-9.89,41.32,41.32,0,0,1,6.28-8.08c.35-.35.28-.45-.18-.29q-12.23,2.55-24.48,4.86a220.4,220.4,0,0,1-23.14,3.62c-.7.1-.57,5.51-.57,5.62,0-.14-.21,5.76.18,5.65a87.18,87.18,0,0,0,17.12-5.5,180,180,0,0,1,20.08-7l-.19-.3c-2.81,4.36-3.26,4.75-5.29,9.52a51.74,51.74,0,0,0-2.83,8.76c-2.49,10.64-2.9,21.91-2.55,32.79a2.23,2.23,0,0,0,1.1-1c1.13-1.43,2.22-2.89,3.29-4.38s2.12-3,3.17-4.47A2.2,2.2,0,0,0,389.3,393.18Z" transform="translate(0.01 0)" fill="#ff0" opacity="0.11" style="isolation:isolate"/><path d="M390.49,393.53a69.64,69.64,0,0,1-.45-11.46,64.05,64.05,0,0,1,2.53-14.27,51.85,51.85,0,0,1,4.19-10.24,24.75,24.75,0,0,1,2.79-4.49,31,31,0,0,1,4.88-5.83c.25-.25.19-.36-.16-.31q-12.37,2.44-24.82,4.57a211,211,0,0,1-23.35,3.21c-.84.1-.39,5.53,0,5.47a126.2,126.2,0,0,0,19.64-3.82q10.29-2.6,20.64-4.95l-.16-.31a28.58,28.58,0,0,0-4.3,6.47,43.86,43.86,0,0,0-3.51,7.55,76.92,76.92,0,0,0-3.17,14.61,116.28,116.28,0,0,0-.66,20.52,1.09,1.09,0,0,0,.85-.5c.83-.85,1.63-1.71,2.4-2.61C388.34,396.55,390.6,394.59,390.49,393.53Z" transform="translate(0.01 0)" fill="#ff0" opacity="0.11" style="isolation:isolate"/><path d="M392.63,393.06a41.19,41.19,0,0,1-.69-17.05,56.57,56.57,0,0,1,3-10.84,48.84,48.84,0,0,1,4.9-9.47,45.29,45.29,0,0,1,6.54-7.75c.31-.33-.14-.6-.42-.56q-13,2.31-26,4-12.33,1.85-24.76,2.93c-.36,0,.35.38.51.36q12.29-.8,24.45-2.58,12.75-1.58,25.4-3.85l-.43-.55a59.35,59.35,0,0,0-7.75,10.3,51.08,51.08,0,0,0-5.25,12.56l-1.26,5.65-.5,5.67c-.73,8.14-1.43,4.69,1.52,11.32C392,393.56,392.77,393.46,392.63,393.06Z" transform="translate(0.01 0)" fill="#ff0" opacity="0.11" style="isolation:isolate"/><path d="M210.29,18.28,216.7,16l-.36.09a72.16,72.16,0,0,1,12.8-2.29,68.77,68.77,0,0,1,12.59.18,105.39,105.39,0,0,1,18.6,3.93c14,4.25,27.19,10.71,40.22,17.21,15.15,7.57,29.85,16,42.24,27.71A106.41,106.41,0,0,1,357.47,80a86.62,86.62,0,0,1,7.25,13.14,85.1,85.1,0,0,1,4.9,14.59c.38,1.33.92-3.3.84-2.66.22-1.75.42-3.5.59-5.26a13.22,13.22,0,0,0,.13-2.74l-3-7.58A71.08,71.08,0,0,0,362.45,79a101.62,101.62,0,0,0-9.27-12.65,124.78,124.78,0,0,0-14.25-14,158.24,158.24,0,0,0-34-21.42C288.77,23.25,272,16.06,254.51,12a99,99,0,0,0-30-2.66c-8.95.7-17.72,2.91-26.27,5.54a1.83,1.83,0,0,0,1.18.64c1.58.51,3.16,1,4.75,1.41s3.18.86,4.79,1.25A2,2,0,0,0,210.29,18.28Z" transform="translate(0.01 0)" fill="#ff0" opacity="0.11" style="isolation:isolate"/><path d="M211.5,20a58.13,58.13,0,0,1,12.85-3.7l-.38.06,6.77-.85h-.38a84.25,84.25,0,0,1,18.83,1.19,121.38,121.38,0,0,1,15.44,4.18c11.83,4,23.06,9.47,34.24,15l-.34-.16c7,3.52,13.81,7.09,20.58,11l-.32-.19,7,4.42-.31-.2,6.71,4.71-.3-.22,6.37,5L338,60c7.59,6.76,14.63,13.75,20.25,22.28a85.67,85.67,0,0,1,7.13,13.15A83,83,0,0,1,370.13,110c.39,1.4.76-3.63.7-2.88.14-1.87.25-3.74.33-5.62a15.82,15.82,0,0,0,0-2.92,68.64,68.64,0,0,0-4.69-11.16,45.69,45.69,0,0,0-3.78-6.94,106.71,106.71,0,0,0-11.63-15.69,109.49,109.49,0,0,0-11.6-11.09,161.33,161.33,0,0,0-26.64-17.89,301,301,0,0,0-34.44-15.59,166,166,0,0,0-33-9.32,88.74,88.74,0,0,0-16.61-1c-10,.29-19.77,2.53-29.3,5.43a2,2,0,0,0,1.15.77c1.55.67,3.12,1.31,4.71,1.94s3.17,1.22,4.77,1.79A2,2,0,0,0,211.5,20Z" transform="translate(0.01 0)" fill="#ff0" opacity="0.11" style="isolation:isolate"/><path d="M213.43,18.15a43.7,43.7,0,0,1,12.63-3.86,59.89,59.89,0,0,1,12.62-.67,82.36,82.36,0,0,1,18.43,3.25c14.82,4.23,28.75,11.39,42.39,18.43,15.86,8.17,31.74,16.93,44.42,29.74A101.15,101.15,0,0,1,358,82.38a82,82,0,0,1,11,27.73c.07.27.42.23.59.1a1.91,1.91,0,0,0,.21-1.16,82.76,82.76,0,0,0-4.5-14.66,84.25,84.25,0,0,0-6.92-13.29,98.72,98.72,0,0,0-14.3-17.41C331,51,315.31,42.11,299.19,33.9c-13.83-7-28.06-14.34-43.14-18.28a87.72,87.72,0,0,0-18.83-3.08,61.81,61.81,0,0,0-12.82.78,40,40,0,0,0-12.53,3.93C210.86,17.67,213,18.32,213.43,18.15Z" transform="translate(0.01 0)" fill="#ff0" opacity="0.11" style="isolation:isolate"/><path d="M213.28,24a45.08,45.08,0,0,1,12.77-4,44.33,44.33,0,0,1,9.48-.67A74.81,74.81,0,0,1,254,21.84c13.71,3.47,26.57,9.58,39.15,15.92,13.48,6.79,26.85,13.74,39,22.79A118.49,118.49,0,0,1,348.87,76a90.48,90.48,0,0,1,8.94,11.86A82.54,82.54,0,0,1,369,115.6c.21.81.68-1.33.64-1a8.36,8.36,0,0,0,.12-3.19c-.65-2.53-1.37-5-2.14-7.54a83.46,83.46,0,0,0-6.13-13.93,98.17,98.17,0,0,0-13.25-18.18c-13-14.44-30.21-24.3-47.42-32.86C287,32,273,25.18,258.13,21a89,89,0,0,0-21.54-3.65,62.73,62.73,0,0,0-12.69.89,40.93,40.93,0,0,0-12.65,4.08C210.53,22.6,212.78,24.14,213.28,24Z" transform="translate(0.01 0)" fill="#ff0" opacity="0.11" style="isolation:isolate"/><path d="M210.61,20.5a55.6,55.6,0,0,1,12.83-3.7,64.2,64.2,0,0,1,12.76-.94h-.41l6.71.46-.41-.05,6.67,1-.41-.07L255,18.65l-.4-.1,6.6,1.88-.4-.12,6.58,2.24-.4-.14L273.52,25l-.39-.16A396.19,396.19,0,0,1,315,45.31a157.46,157.46,0,0,1,19.6,13.16A94.08,94.08,0,0,1,343.39,66a104.47,104.47,0,0,1,10.15,11.19l-.26-.34,4.62,6.43-.24-.35,4.06,6.78-.21-.37a62.71,62.71,0,0,1,4.63,10.31,62.28,62.28,0,0,1,3.42,11c.13.43.15.44.35,0l.24-1.15c.18-1.37.33-2.74.46-4.11.21-2.12.41-4.23.56-6.35a6.68,6.68,0,0,0-.07-2.78c-1-2.54-2-5.06-3.1-7.58a94.68,94.68,0,0,0-7.88-13.85A113.27,113.27,0,0,0,344.71,57C330.11,43,312,33.44,293.63,25.42c-15-6.57-30.45-12.5-46.7-15.16a95.13,95.13,0,0,0-23.47-1.13,127.63,127.63,0,0,0-25.73,5.34,2.35,2.35,0,0,0,1.23.89c1.67.85,3.35,1.66,5.06,2.44s3.4,1.56,5.12,2.29A2.33,2.33,0,0,0,210.61,20.5Z" transform="translate(0.01 0)" fill="#ff0" opacity="0.11" style="isolation:isolate"/><path d="M210.63,19a56.7,56.7,0,0,1,12.82-3.71l-.4.07a49.49,49.49,0,0,1,9.56-.93,52.13,52.13,0,0,1,9.43.29,94,94,0,0,1,18.61,4c13,4.08,25.25,9.9,37.44,15.87l-.34-.17q6.88,3.4,13.7,7,7,3.8,13.64,8.17l-.32-.21L331.51,54l-.3-.23,6.4,5-.3-.24,6,5.33-.28-.25a102.53,102.53,0,0,1,10.23,11.12A67.53,67.53,0,0,1,359.65,84a64.33,64.33,0,0,1,5.28,9.94,84.89,84.89,0,0,1,4.87,14.58c.08.45.2.46.35,0a16,16,0,0,0,.46-3q.3-2.92.53-5.86a15.64,15.64,0,0,0,.09-3.06c-3.1-7.64-6.37-15-11.13-21.74A110.71,110.71,0,0,0,345,57.33a149.94,149.94,0,0,0-22.56-17.08c-11.23-7-23.16-12.47-35.35-17.55-15.93-6.64-32.42-12.18-49.73-13.55-13.46-1.07-26.82,1.63-39.63,5.54a2.25,2.25,0,0,0,1.26.73q2.53.93,5.1,1.76c1.71.55,3.43,1.09,5.14,1.61A2.12,2.12,0,0,0,210.63,19Z" transform="translate(0.01 0)" fill="#ff0" opacity="0.11" style="isolation:isolate"/><path d="M211.66,21.88a61.07,61.07,0,0,1,18.83-4.41,66.75,66.75,0,0,1,12.56.37,104.72,104.72,0,0,1,18.5,4.27c13.84,4.49,26.9,11.14,39.82,17.75,15,7.68,29.6,16.19,41.8,28a104.63,104.63,0,0,1,14.35,17.28,84.17,84.17,0,0,1,7,13.2,82.74,82.74,0,0,1,4.57,14.58c.31,1.17.85-2.63.77-2,.18-1.36.33-2.72.46-4.08a8.52,8.52,0,0,0,.06-2.14A88.13,88.13,0,0,0,364.65,90a90,90,0,0,0-7.95-13.13,107.89,107.89,0,0,0-15.53-17C327.39,47.57,311.22,39,294.6,31.28c-14.22-6.61-29-13.18-44.53-16.08a90.13,90.13,0,0,0-19.25-1.77c-8.82.25-17.21,2.43-25.59,5a.8.8,0,0,0,.53.62c.82.51,1.65,1,2.51,1.43C208.91,20.83,210.77,22.19,211.66,21.88Z" transform="translate(0.01 0)" fill="#ff0" opacity="0.11" style="isolation:isolate"/><path d="M214,19.41a53.31,53.31,0,0,1,25-4.5,55.72,55.72,0,0,1,9.37,1.1,107.18,107.18,0,0,1,18.43,5.12c13.7,5,26.74,11.84,39.64,18.62,13.87,7.3,27,15.65,38.34,26.57a97.06,97.06,0,0,1,14,17.34,82,82,0,0,1,11.05,27.76c.1.42.4.24.59.06a3,3,0,0,0,.18-1.79,83.9,83.9,0,0,0-11.61-28A103.1,103.1,0,0,0,338.89,59.1c-13.65-11.61-29.63-19.8-45.6-27.68-14-6.9-28.54-13.66-44-16.61a72.35,72.35,0,0,0-19.7-1.22q-3.27.36-6.53.88a57.54,57.54,0,0,0-12.23,3.71c-.66.25.74.76.69.74C212.17,19.14,213.37,19.66,214,19.41Z" transform="translate(0.01 0)" fill="#ff0" opacity="0.11" style="isolation:isolate"/><path d="M211.63,22a41.56,41.56,0,0,1,9.55-3,49.64,49.64,0,0,1,9.61-1.48h-.35l6.7-.12h-.36l6.64.49h-.35a117.48,117.48,0,0,1,18.6,4.21c6.4,2.11,12.59,4.69,18.78,7.37l-.34-.15Q294.56,36,308.64,43.45c4.71,2.48,9.3,5.13,13.79,8a186.58,186.58,0,0,1,15.76,11.49l-.28-.25,6,5.38-.27-.26,5.53,5.7-.26-.27c4.82,5.75,9.48,11.53,12.94,18.25L365,98.23a83.37,83.37,0,0,1,4.65,14.56c.08.45.2.46.35,0a16,16,0,0,0,.4-3q.25-2.91.42-5.82a16.7,16.7,0,0,0,0-3,89.53,89.53,0,0,0-6.19-14.75,58.08,58.08,0,0,0-4.16-7.06A100.45,100.45,0,0,0,351,66.84c-13.3-14.91-30.53-26-48.5-34.38-15.8-7.46-32-14.75-49.23-18.58a94.62,94.62,0,0,0-26.25-2.4c-8.65.52-17.12,2.57-25.38,5.07a1.6,1.6,0,0,0,.9.83q1.92,1.17,3.9,2.23c1.3.73,2.63,1.42,4,2.09A1.62,1.62,0,0,0,211.63,22Z" transform="translate(0.01 0)" fill="#ff0" opacity="0.11" style="isolation:isolate"/><path d="M210.41,19.68a42,42,0,0,1,9.61-3,53,53,0,0,1,9.61-1.52h-.41L236,15h-.4a77.63,77.63,0,0,1,12.54,1.3,106.13,106.13,0,0,1,12.41,3.09,212.8,212.8,0,0,1,25.09,10l-.36-.18c10,4.76,20,9.53,29.56,15,4.6,2.63,9.05,5.43,13.38,8.47a166.63,166.63,0,0,1,15,12.16l-.28-.28,5.6,5.71-.27-.3,5.14,6-.26-.31,4.63,6.39-.23-.32a85.57,85.57,0,0,1,7.18,13.16,83.17,83.17,0,0,1,4.83,14.59c.13.45.12.36.35,0l.23-1.07c.18-1.26.34-2.54.47-3.81.21-2,.42-3.93.57-5.9a5.91,5.91,0,0,0-.06-2.58,107.47,107.47,0,0,0-6.79-14.7,102.16,102.16,0,0,0-14.07-19c-13.77-14.76-31.31-25.68-49.58-34C284.47,21.07,267.82,14,250.26,10.68A98.05,98.05,0,0,0,223.45,9a128.42,128.42,0,0,0-25.8,5.4,2.29,2.29,0,0,0,1.23.81q2.49,1.09,5,2.1t5.12,2.1A2.23,2.23,0,0,0,210.41,19.68Z" transform="translate(0.01 0)" fill="#ff0" opacity="0.11" style="isolation:isolate"/><path d="M212.13,21.25a55,55,0,0,1,12.76-3.69l-.33.05,6.73-.83H231a68,68,0,0,1,12.6.33l6.22,1a114.89,114.89,0,0,1,21.54,6.55c14.2,5.57,27.76,12.68,41.26,19.75l-.3-.17,7.2,4.15-.3-.18,7,4.42-.29-.18c10.39,7.34,20.5,15.34,28.22,25.58a107.62,107.62,0,0,1,8.13,12.48c3.74,6.76,5.89,13.91,7.89,21.31.36,1.33.72-3.31.67-2.59.11-1.69.2-3.37.26-5a11.65,11.65,0,0,0,0-2.64A135.35,135.35,0,0,0,365,86.84,89.11,89.11,0,0,0,354.2,70.7a122.57,122.57,0,0,0-19.77-19C321,41.21,305.43,33.76,290,26.9s-31.79-13.21-48.77-15a90.16,90.16,0,0,0-13.45-.37c-8.65.38-17.27,2.59-25.49,5.09a1.52,1.52,0,0,0,.9.75c1.28.67,2.57,1.3,3.87,1.9s2.61,1.2,3.94,1.75A1.49,1.49,0,0,0,212.13,21.25Z" transform="translate(0.01 0)" fill="#ff0" opacity="0.11" style="isolation:isolate"/><path d="M213.87,24.46a46.13,46.13,0,0,1,12.78-3.9,45,45,0,0,1,9.49-.67,75.11,75.11,0,0,1,18.51,2.5c13.73,3.49,26.63,9.65,39.23,16,13.46,6.8,26.82,13.76,38.92,22.83a117.59,117.59,0,0,1,16.74,15.42,91.42,91.42,0,0,1,8.92,11.88,81.28,81.28,0,0,1,11,27.51c.15.58.36.48.6,0a6.51,6.51,0,0,0,.23-3.19c-1.64-6-2.44-9.42-4.92-15.15a88.46,88.46,0,0,0-11.63-19.38c-12-15.31-28.41-26.49-45.55-35.37C293.28,35.26,278,27.56,262,22.47a91.12,91.12,0,0,0-24.8-4.64,62.73,62.73,0,0,0-12.69.88,41.87,41.87,0,0,0-12.66,4.07C211.1,23.08,213.36,24.66,213.87,24.46Z" transform="translate(0.01 0)" fill="#ff0" opacity="0.11" style="isolation:isolate"/><path d="M342.83,87.88l4.74.79-.34-.1A40.38,40.38,0,0,1,356,91.82a44.65,44.65,0,0,1,7.69,5.07,42.05,42.05,0,0,1,6.39,6.54,39.1,39.1,0,0,1,4.76,7.73c.22.35.33.32.34-.1q.44-12.45.75-24.9.12-11.5,1.33-22.94c.05-.62-4.93-1-5-1,.1,0-5.12-.75-5.08-.28a93.4,93.4,0,0,0,2.2,17.39A115.38,115.38,0,0,1,372,100.76l.33-.09-3-3.71a38.69,38.69,0,0,0-5.47-5,54.3,54.3,0,0,0-10.48-6.65,68.94,68.94,0,0,0-9.1-3.67,73.07,73.07,0,0,0-9.58-2.21,1.78,1.78,0,0,0,.64,1.1c1,1.15,2.09,2.29,3.17,3.39s2.16,2.22,3.28,3.29A1.7,1.7,0,0,0,342.83,87.88Z" transform="translate(0.01 0)" fill="#ff0" opacity="0.11" style="isolation:isolate"/><path d="M344,90a35.08,35.08,0,0,1,9.24,2.2l-.35-.14a39.13,39.13,0,0,1,8.22,4.27,31.13,31.13,0,0,1,5.32,4.32,31.66,31.66,0,0,1,4.61,5,39.1,39.1,0,0,1,4.63,7.77c.23.38.34.35.34-.09q.4-12.64.88-25.27.28-11.73,1.47-23.42c.05-.7-4.31-1.65-4.47-1.7.11,0-4.71-1.38-4.69-1a129.86,129.86,0,0,0,1.43,18.79,202,202,0,0,1,1.83,21.41l.34-.09a53.61,53.61,0,0,0-10.14-10.49,55.7,55.7,0,0,0-8.43-5.2,51.89,51.89,0,0,0-4.78-2.23,72.08,72.08,0,0,0-13.83-3.79,1.89,1.89,0,0,0,.65,1.2c1.06,1.31,2.14,2.59,3.26,3.85s2.22,2.52,3.37,3.74A2,2,0,0,0,344,90Z" transform="translate(0.01 0)" fill="#ff0" opacity="0.11" style="isolation:isolate"/><path d="M345.65,89.94c4.56.45,8.5,1,12.51,3.42l13,12a47.69,47.69,0,0,1,4.33,7.94c.09.19.66.55.69.09q.81-13.29,1.91-26.56.86-12.36,2.39-24.64c0-.53-.79-.53-.84,0-1.73,16.75-3.15,33.43-4.3,50.22l.69.08c-2.85-5.65-6.06-10.89-10.84-15.14A39.48,39.48,0,0,0,357.6,92l-4.24-2a27.7,27.7,0,0,0-8-1C344.69,88.87,345.16,89.89,345.65,89.94Z" transform="translate(0.01 0)" fill="#ff0" opacity="0.11" style="isolation:isolate"/><path d="M344.75,94.94a33.44,33.44,0,0,1,9,2,28.25,28.25,0,0,1,6.1,3.16A33.16,33.16,0,0,1,371,110.73a42.4,42.4,0,0,1,4.3,7.88c.24.52.53.47.58-.11,1.42-17,2.85-34,4.63-50.93.05-.48-.89-.69-1,0-1.79,15.89-3.2,31.79-4.88,47.69l.59-.11a49.22,49.22,0,0,0-9.7-13,38.2,38.2,0,0,0-9.43-6.55l-4.28-1.82a35.31,35.31,0,0,0-8.68-1.87C342.5,91.74,344.05,94.83,344.75,94.94Z" transform="translate(0.01 0)" fill="#ff0" opacity="0.11" style="isolation:isolate"/><path d="M343.31,90.51a26.66,26.66,0,0,1,7,1.49,28.72,28.72,0,0,1,6.49,2.61l-.36-.21,4.33,2.6-.35-.23a51.53,51.53,0,0,1,8.5,7.66,47.76,47.76,0,0,1,6.14,9.56c.23.47.34.44.34-.08.59-16.4,1.1-32.75,2.11-49.12.06-.85-4.61-2.56-4.89-2.7.12.06-5.24-2.22-5.22-2q1,9.36,2.42,18.65a139.83,139.83,0,0,1,2,21.61l.08-.42a52.94,52.94,0,0,0-4.82-5.44A49.62,49.62,0,0,0,357.16,87a84.9,84.9,0,0,0-8.94-4.37,65.64,65.64,0,0,0-13.83-3.74,2.55,2.55,0,0,0,.69,1.4c1.13,1.57,2.28,3.12,3.47,4.65s2.36,3.06,3.59,4.55A2.47,2.47,0,0,0,343.31,90.51Z" transform="translate(0.01 0)" fill="#ff0" opacity="0.11" style="isolation:isolate"/><path d="M343.17,88.64a36.17,36.17,0,0,1,9.23,2.17l-.37-.13a38.28,38.28,0,0,1,8.25,4.23,31.64,31.64,0,0,1,5.37,4.28,31.21,31.21,0,0,1,4.68,5,38.5,38.5,0,0,1,4.73,7.73c.24.4.35.37.34-.09q.28-8.52.55-17,.14-15.58,1.53-31.1c0-.68-5.14-1.56-5.25-1.59.14,0-5.45-1.23-5.41-.85a121.36,121.36,0,0,0,2.41,17.59,118.92,118.92,0,0,1,2.58,21.44l.33-.09A39.67,39.67,0,0,0,365.55,93l-3.92-3.12a49.32,49.32,0,0,0-6.56-4,68.47,68.47,0,0,0-6.7-3.19A70.51,70.51,0,0,0,334.29,79a2,2,0,0,0,.71,1.22c1.12,1.33,2.27,2.63,3.45,3.88s2.36,2.5,3.55,3.73A2.06,2.06,0,0,0,343.17,88.64Z" transform="translate(0.01 0)" fill="#ff0" opacity="0.11" style="isolation:isolate"/><path d="M343.85,92.43a34.17,34.17,0,0,1,13.07,4,40.19,40.19,0,0,1,7.54,5.21,41.25,41.25,0,0,1,6.14,6.73,38.83,38.83,0,0,1,4.44,7.87c.17.28.29.26.35-.06q.54-12.75,1.53-25.46.7-12,2.28-23.89c.08-.74-3-1.46-3-1a197,197,0,0,0-1.91,21.42q-.62,10.48-.8,21l.35-.07-2.46-3.82A34.71,34.71,0,0,0,366.61,99a44,44,0,0,0-9.49-7.18,59.07,59.07,0,0,0-8.71-3.9,44.38,44.38,0,0,0-9.23-2.23,1,1,0,0,0,.24.88c.57.93,1.16,1.83,1.79,2.72C341.66,89.91,342.84,92.26,343.85,92.43Z" transform="translate(0.01 0)" fill="#ff0" opacity="0.11" style="isolation:isolate"/><path d="M345.94,90.68a33.85,33.85,0,0,1,16.83,6.39,41.08,41.08,0,0,1,13.67,17.72c.16.32.56.13.58-.16q.87-13.17,1.93-26.33.85-12.37,2.39-24.68c.06-.55-1.12-.79-1.18-.25-1.7,16.53-3,33-4.21,49.61l.58-.16c-2.95-5.62-6.21-10.7-11-14.92a39.44,39.44,0,0,0-12.08-7.4,39,39,0,0,0-9.06-1.83c-.59-.08.07.8.09.83A3.08,3.08,0,0,0,345.94,90.68Z" transform="translate(0.01 0)" fill="#ff0" opacity="0.11" style="isolation:isolate"/><path d="M344.1,92.42a26.58,26.58,0,0,1,7,1.49,28.1,28.1,0,0,1,6.46,2.63l-.33-.17c4,2.42,7.75,4.88,10.88,8.4l2.91,3.5a39.05,39.05,0,0,1,4.51,7.86c.21.4.33.38.34-.08q.51-12.85,1.12-25.7.4-12,1.64-23.86c.06-.72-2.84-1.76-3.15-1.9.1,0-3.47-1.64-3.47-1.22a186.24,186.24,0,0,0,.19,19.91q.56,10.59.64,21.19l.34-.07a27.59,27.59,0,0,0-4.37-5.6,37.17,37.17,0,0,0-5.34-5,44.16,44.16,0,0,0-4.13-2.94,57.13,57.13,0,0,0-8.78-4.65A69.46,69.46,0,0,0,337,82.36a1.82,1.82,0,0,0,.51,1.23c.89,1.33,1.81,2.67,2.76,4s1.91,2.64,2.89,3.93A1.8,1.8,0,0,0,344.1,92.42Z" transform="translate(0.01 0)" fill="#ff0" opacity="0.11" style="isolation:isolate"/><path d="M343.06,89.5a26.25,26.25,0,0,1,7,1.48,29.24,29.24,0,0,1,6.5,2.6l-.36-.19c4,2.39,7.83,4.81,11,8.26l3,3.46a38.28,38.28,0,0,1,4.7,7.78c.23.43.35.41.35-.09q.48-12.63.85-25.28.22-11.68,1.21-23.34c.05-.77-4.83-2.14-5-2.21.14.05-5.33-1.79-5.29-1.5q.93,9.14,2.55,18.17a125.35,125.35,0,0,1,2.26,21.61l.34-.08c-2.67-3.31-3.37-4.42-6.59-7.17-1.35-1.16-2.8-2.34-4.25-3.37a60.07,60.07,0,0,0-13.14-7,77.2,77.2,0,0,0-13.85-3.73,2.23,2.23,0,0,0,.68,1.31c1.11,1.44,2.25,2.86,3.4,4.25s2.33,2.78,3.52,4.16A2.21,2.21,0,0,0,343.06,89.5Z" transform="translate(0.01 0)" fill="#ff0" opacity="0.11" style="isolation:isolate"/><path d="M344.49,91.56a34.53,34.53,0,0,1,9.18,2.18l-.32-.12c4.26,1.92,8.28,3.93,11.8,7.08l3.3,3.18a40.48,40.48,0,0,1,7.42,11.31c.22.35.33.32.34-.09q.45-12.72,1.1-25.42.4-11.9,1.76-23.73c.05-.65-2.91-1.32-3.13-1.39.05,0-3.35-1.15-3.36-.67a145.1,145.1,0,0,0-.09,20q.47,10.58.66,21.16l.33-.09-2.69-3.83a37.56,37.56,0,0,0-5.09-5.23,47.93,47.93,0,0,0-10-7c-1.51-.79-3.11-1.58-4.67-2.26a59.48,59.48,0,0,0-13.6-3.85,1.57,1.57,0,0,0,.5,1.11q1.32,1.8,2.73,3.53c.92,1.17,1.87,2.31,2.84,3.44A1.57,1.57,0,0,0,344.49,91.56Z" transform="translate(0.01 0)" fill="#ff0" opacity="0.11" style="isolation:isolate"/><path d="M345.42,95.57a33.48,33.48,0,0,1,9.06,2,23.41,23.41,0,0,1,9.28,6.11,24.29,24.29,0,0,1,7.89,7.7,42.9,42.9,0,0,1,4.32,8c.23.5.54.42.58-.11q1-13.09,2.05-26.17.88-12.55,2.49-25c.06-.49-.85-.61-.92,0q-1.73,12-2.61,24.1t-2.21,24.07l.59-.11c-3-5.5-6.37-10.69-11.28-14.7a39.25,39.25,0,0,0-7.77-5.18l-4.22-1.86a35.71,35.71,0,0,0-8.8-1.77C343.19,92.5,344.75,95.47,345.42,95.57Z" transform="translate(0.01 0)" fill="#ff0" opacity="0.11" style="isolation:isolate"/><path d="M9.69,216.89c23.74-.28,47.48-.45,71.23-.06s47.54,1.37,71.3,2.57a1.74,1.74,0,0,0-.81-1c-1.22-1-2.46-2-3.72-2.93s-2.52-1.9-3.81-2.8a1.69,1.69,0,0,0-1.18-.52c-23.84-1.1-47.68-2-71.55-2.3-23.57-.31-47.15-.12-70.72-.43a1.7,1.7,0,0,0,.78,1c1.18,1,2.39,2,3.61,3s2.46,2,3.71,2.89A1.78,1.78,0,0,0,9.69,216.89Z" transform="translate(0.01 0)" fill="#ff0" opacity="0.11" style="isolation:isolate"/><path d="M10.88,218.92c23.76-.29,47.51-.48,71.27-.07s47.54,1.38,71.3,2.58a2,2,0,0,0-.83-1.11q-1.86-1.74-3.8-3.39c-1.28-1.11-2.59-2.2-3.91-3.26a2,2,0,0,0-1.22-.66c-23.84-1.11-47.67-2-71.54-2.32-23.56-.33-47.13-.1-70.7-.42a2,2,0,0,0,.79,1.13q1.8,1.77,3.67,3.47t3.78,3.36A2,2,0,0,0,10.88,218.92Z" transform="translate(0.01 0)" fill="#ff0" opacity="0.11" style="isolation:isolate"/><path d="M12.89,218.53a347.58,347.58,0,0,1,34.76-1.13q17.85,0,35.69.27c23.77.42,47.5,1.42,71.24,2.64,1,.06-.35-1.35-.82-1.37-26.73-1.37-53.46-2.41-80.23-2.74q-17.85-.22-35.7-.08c-14.13.11-6.67-.11-25.36,1.39C11.71,217.57,12.4,218.55,12.89,218.53Z" transform="translate(0.01 0)" fill="#ff0" opacity="0.11" style="isolation:isolate"/><path d="M12,223.75c47.49-1.37,94.94-.17,142.38,2.27.67,0-.11-1-.17-1-.32-.43-1.21-1.87-1.84-1.9-23.74-1.19-47.48-2.16-71.24-2.55q-17.85-.28-35.69-.24-17.58-.18-35.13.79C9.53,221.11,11.37,223.77,12,223.75Z" transform="translate(0.01 0)" fill="#ff0" opacity="0.11" style="isolation:isolate"/><path d="M10.18,219.41c23.75-.32,47.49-.49,71.24-.09s47.55,1.39,71.31,2.59a2.46,2.46,0,0,0-.89-1.28c-1.35-1.4-2.71-2.77-4.11-4.11s-2.79-2.69-4.22-4a2.43,2.43,0,0,0-1.31-.86c-23.85-1.1-47.69-2-71.57-2.29-23.51-.31-47-.11-70.54-.49a2.53,2.53,0,0,0,.84,1.31c1.29,1.43,2.6,2.84,3.93,4.21s2.67,2.76,4.05,4.11A2.41,2.41,0,0,0,10.18,219.41Z" transform="translate(0.01 0)" fill="#ff0" opacity="0.11" style="isolation:isolate"/><path d="M10,217.63c23.74-.29,47.49-.46,71.23-.07s47.55,1.37,71.31,2.57a2.1,2.1,0,0,0-.9-1.11c-1.32-1.15-2.67-2.27-4-3.37s-2.74-2.19-4.14-3.25a2,2,0,0,0-1.27-.64c-23.85-1.1-47.69-2-71.56-2.28-23.56-.31-47.12-.12-70.68-.47a2.15,2.15,0,0,0,.86,1.13q1.92,1.77,3.91,3.47c1.32,1.14,2.66,2.26,4,3.34A2.07,2.07,0,0,0,10,217.63Z" transform="translate(0.01 0)" fill="#ff0" opacity="0.11" style="isolation:isolate"/><path d="M10.85,221.23c23.72-.42,47.43-.58,71.16-.17s47.53,1.39,71.28,2.61a1,1,0,0,0-.38-.83q-1-1.22-2.16-2.37c-.59-.62-2-2.62-3.08-2.68-23.8-1.14-47.59-2.06-71.41-2.42-23.55-.35-47.1-.06-70.65-.22a.94.94,0,0,0,.32.83c.65.84,1.32,1.66,2,2.45C8.4,219,9.89,221.24,10.85,221.23Z" transform="translate(0.01 0)" fill="#ff0" opacity="0.11" style="isolation:isolate"/><path d="M13.1,219.35c47.45-1.44,94.87-.19,142.27,2.26.66,0-.31-.91-.29-.88a3.89,3.89,0,0,0-1.89-1.21c-23.78-1.21-47.55-2.19-71.37-2.59q-17.86-.31-35.73-.26-17.45-.19-34.87.8c-.6,0,.16.79.21.83C11.78,218.66,12.54,219.37,13.1,219.35Z" transform="translate(0.01 0)" fill="#ff0" opacity="0.11" style="isolation:isolate"/><path d="M11,221.24c23.74-.34,47.47-.51,71.21-.11s47.54,1.4,71.3,2.61a1.83,1.83,0,0,0-.68-1.13c-1.09-1.22-2.2-2.4-3.33-3.57s-2.27-2.32-3.44-3.45a1.86,1.86,0,0,0-1.11-.72c-23.83-1.12-47.64-2-71.49-2.35-23.49-.33-47-.08-70.47-.41a1.87,1.87,0,0,0,.62,1.16c1,1.24,2,2.46,3.11,3.66s2.12,2.39,3.22,3.55A1.75,1.75,0,0,0,11,221.24Z" transform="translate(0.01 0)" fill="#ff0" opacity="0.11" style="isolation:isolate"/><path d="M9.92,218.44c23.75-.3,47.49-.47,71.23-.07s47.55,1.38,71.31,2.58a2.26,2.26,0,0,0-.88-1.2c-1.33-1.27-2.67-2.52-4-3.73s-2.71-2.42-4.13-3.61a2.25,2.25,0,0,0-1.28-.75c-23.84-1.09-47.69-2-71.56-2.28-23.53-.31-47.06-.12-70.59-.49a2.21,2.21,0,0,0,.83,1.22q1.89,1.95,3.86,3.83c1.31,1.25,2.65,2.49,4,3.72A2.14,2.14,0,0,0,9.92,218.44Z" transform="translate(0.01 0)" fill="#ff0" opacity="0.11" style="isolation:isolate"/><path d="M11.45,220.41c23.74-.34,47.47-.51,71.2-.11s47.54,1.39,71.29,2.6a1.63,1.63,0,0,0-.67-1q-1.58-1.59-3.24-3.11c-1.11-1-2.22-2-3.35-3a1.63,1.63,0,0,0-1.07-.59c-23.82-1.13-47.64-2-71.48-2.37-23.53-.33-47-.08-70.57-.37a1.52,1.52,0,0,0,.61,1q1.5,1.65,3.06,3.22t3.18,3.1A1.57,1.57,0,0,0,11.45,220.41Z" transform="translate(0.01 0)" fill="#ff0" opacity="0.11" style="isolation:isolate"/><path d="M12.58,224.28c47.55-1.23,95-.12,142.51,2.33.67,0-1.19-2.89-1.9-2.92C105.78,221.3,58.3,220,10.84,221.57,10.09,221.6,12,224.29,12.58,224.28Z" transform="translate(0.01 0)" fill="#ff0" opacity="0.11" style="isolation:isolate"/><path d="M139,206.53a15,15,0,0,1-7.07-2.73l.37.24a23.1,23.1,0,0,1-5.28-5.21,38.7,38.7,0,0,1-3.21-4.81c-2.38-4-4.38-8.13-6.4-12.29-.21-.43-.25-.41-.35,0V183q.19,2.15.48,4.29c.27,2.2.56,4.4.89,6.59a6.9,6.9,0,0,0,.7,2.82A65.06,65.06,0,0,0,131.93,211a45.3,45.3,0,0,0,6.74,4.68,21.73,21.73,0,0,0,3.53,1.72,16.43,16.43,0,0,0,5.55,1.67,2.73,2.73,0,0,0-.68-1.48c-1.11-1.69-2.24-3.35-3.41-5s-2.33-3.29-3.54-4.9A2.67,2.67,0,0,0,139,206.53Z" transform="translate(0.01 0)" fill="#ff0" opacity="0.11" style="isolation:isolate"/><path d="M139.92,208.67l-3.8-.95.33.14a19,19,0,0,1-6.11-4.09,39.09,39.09,0,0,1-4.75-5.9A116,116,0,0,1,118,183.93c-.63-1.29-.2,3.59-.25,2.89.15,1.83.33,3.66.54,5.47a14.18,14.18,0,0,0,.46,2.82,65.93,65.93,0,0,0,15.46,17,32.39,32.39,0,0,0,5.39,3.32,31.72,31.72,0,0,0,7.27,2.43,1.65,1.65,0,0,0-.49-1.15c-.87-1.25-1.77-2.47-2.7-3.68s-1.86-2.41-2.83-3.59A1.61,1.61,0,0,0,139.92,208.67Z" transform="translate(0.01 0)" fill="#ff0" opacity="0.11" style="isolation:isolate"/><path d="M137.78,203.25a13.93,13.93,0,0,1-6.84-2.65,31.93,31.93,0,0,1-7.77-9.78c-2.28-4.15-4.18-8.48-6.12-12.8-.41-.9-.3,2-.34,1.57a12.75,12.75,0,0,0,.75,4.37c2.68,5.2,5.42,10.43,9.1,15a23.48,23.48,0,0,0,4.13,4.38l3.05,2.2a16.23,16.23,0,0,0,6.68,2.49c.82.21-.31-1.47-.3-1.45-.46-.77-.94-1.52-1.44-2.26A3.43,3.43,0,0,0,137.78,203.25Z" transform="translate(0.01 0)" fill="#ff0" opacity="0.11" style="isolation:isolate"/><path d="M136.56,207.79l-3.28-.55A28.93,28.93,0,0,1,122.05,194c-1.82-3.63-3.46-7.31-5.17-11-.11-.23-.5-.05-.6.07a1.68,1.68,0,0,0,.12,1c2.77,5.77,5.19,12.09,8.95,17.32a25.19,25.19,0,0,0,4.05,4.52,8,8,0,0,0,1.66,1.46,10.13,10.13,0,0,0,5.68,1.47C137.41,208.84,137.05,207.87,136.56,207.79Z" transform="translate(0.01 0)" fill="#ff0" opacity="0.11" style="isolation:isolate"/><path d="M139.56,209.48l-3.79-.93.35.15-3.27-1.7a45.36,45.36,0,0,1-10.68-13.18c-1.63-2.88-3.12-5.81-4.6-8.76-.19-.43-.3-.41-.35.05a16.8,16.8,0,0,0,.28,3.08c.27,2,.57,3.92.88,5.88a16.19,16.19,0,0,0,.64,3A65.81,65.81,0,0,0,133.6,212.6a38.65,38.65,0,0,0,7.22,4.41,35.32,35.32,0,0,0,7.38,2.38,2.1,2.1,0,0,0-.68-1.23q-1.64-2-3.35-4c-1.14-1.33-2.29-2.6-3.48-3.86A2,2,0,0,0,139.56,209.48Z" transform="translate(0.01 0)" fill="#ff0" opacity="0.11" style="isolation:isolate"/><path d="M139.42,207.59a15,15,0,0,1-7.07-2.7l.36.22a23.68,23.68,0,0,1-5.31-5.17,37.07,37.07,0,0,1-3.26-4.79c-2.42-4-4.46-8.11-6.5-12.27-.2-.41-.24-.39-.35.05v1.17c.12,1.38.26,2.76.43,4.13.25,2.12.5,4.23.81,6.34a6.71,6.71,0,0,0,.66,2.71,64.86,64.86,0,0,0,14.5,15.39c1.13.83,2.29,1.74,3.49,2.47l3.56,1.91a22.42,22.42,0,0,0,7.33,2.41,2.54,2.54,0,0,0-.67-1.42q-1.64-2.4-3.36-4.74c-1.13-1.57-2.3-3.11-3.49-4.64A2.49,2.49,0,0,0,139.42,207.59Z" transform="translate(0.01 0)" fill="#ff0" opacity="0.11" style="isolation:isolate"/><path d="M138.29,208.84l-3.75-1a38,38,0,0,1-13.12-15c-1.49-2.9-2.87-5.85-4.26-8.8-.45-1-.58-.13-.55.52a10.35,10.35,0,0,0,.84,4c3.14,5.75,6.24,11.87,10.89,16.57a32,32,0,0,0,6.07,5,25.17,25.17,0,0,0,7.57,3c.92.24-.8-1.61-.62-1.4-.62-.68-1.27-1.34-1.93-2A3.78,3.78,0,0,0,138.29,208.84Z" transform="translate(0.01 0)" fill="#ff0" opacity="0.11" style="isolation:isolate"/><path d="M138.51,204.66A9.54,9.54,0,0,1,131,200.5a15.38,15.38,0,0,1-6-6.48,153.32,153.32,0,0,1-7-14.35c-.37-.82-.4,1.67-.41,1.3a9.43,9.43,0,0,0,.52,3.65c2.67,5.15,5.34,10.3,8.9,14.89a26.36,26.36,0,0,0,3.9,4.21,17.93,17.93,0,0,0,3.14,2.34,15.19,15.19,0,0,0,6.49,2.26c.72.16-.11-1.14-.13-1.18C140,206.59,139.23,204.82,138.51,204.66Z" transform="translate(0.01 0)" fill="#ff0" opacity="0.11" style="isolation:isolate"/><path d="M139.5,209.92l-3.71-.89a23.33,23.33,0,0,1-9.17-7.86,32.51,32.51,0,0,1-4.2-7,83.34,83.34,0,0,1-4.74-8.9c-.49-1-.2,2.49-.26,1.93.14,1.2.31,2.39.51,3.58a6.18,6.18,0,0,0,.44,1.84,71.61,71.61,0,0,0,11.19,14.72,36.43,36.43,0,0,0,6.27,5,15.45,15.45,0,0,0,3.38,1.8,14.73,14.73,0,0,0,5.38,1.62c1,.25-1.18-2-1-1.79-.85-.93-1.73-1.84-2.62-2.74A7.34,7.34,0,0,0,139.5,209.92Z" transform="translate(0.01 0)" fill="#ff0" opacity="0.11" style="isolation:isolate"/><path d="M139.32,208.53l-3.8-.94.37.18a18.5,18.5,0,0,1-6.09-4.05,39.49,39.49,0,0,1-4.74-5.88,117.79,117.79,0,0,1-7.6-13.85c-.21-.43-.21-.3-.35,0v1.09c.14,1.29.3,2.57.49,3.84.27,2,.56,3.94.9,5.9a6.44,6.44,0,0,0,.69,2.5A67.1,67.1,0,0,0,130.35,210a54.39,54.39,0,0,0,6.87,5.11c1.18.65,2.37,1.28,3.57,1.9a22.31,22.31,0,0,0,7.37,2.4,2.39,2.39,0,0,0-.7-1.34c-1.12-1.48-2.27-2.93-3.45-4.37s-2.35-2.87-3.56-4.27A2.25,2.25,0,0,0,139.32,208.53Z" transform="translate(0.01 0)" fill="#ff0" opacity="0.11" style="isolation:isolate"/><path d="M139.76,209.06l-3.71-.88a15.27,15.27,0,0,1-8.88-9.25,32,32,0,0,1-6.59-9.35q-1.32-2.61-2.55-5.25c-.5-1.05-.28,2.58-.32,2,.1,1.26.24,2.52.4,3.78a6.75,6.75,0,0,0,.38,1.94,71.77,71.77,0,0,0,11,14.7,35.86,35.86,0,0,0,6.19,5,15.24,15.24,0,0,0,3.35,1.8,14.25,14.25,0,0,0,5.33,1.63c1,.24-1-2-.84-1.84-.79-1-1.59-2-2.42-2.89A7.06,7.06,0,0,0,139.76,209.06Z" transform="translate(0.01 0)" fill="#ff0" opacity="0.11" style="isolation:isolate"/><path d="M137,208.1c-7.82-1.26-11.56-7.74-14.53-13.78-1.76-3.58-3.33-7.26-5-10.87-.21-.45-.92-.09-.69.42,3.29,7,6,14.94,11.39,20.67a15.92,15.92,0,0,0,3,2.74c2.3,1.44,3.19,1.29,5.86,1.63C137.47,209,137.54,208.18,137,208.1Z" transform="translate(0.01 0)" fill="#ff0" opacity="0.11" style="isolation:isolate"/><path d="M158.19,303.39a1.73,1.73,0,0,0-.76-1c-1.15-1.05-2.33-2.08-3.52-3.09s-2.4-2-3.63-3a1.68,1.68,0,0,0-1.14-.57,1.73,1.73,0,0,0,.76,1c1.15,1,2.32,2.09,3.52,3.09s2.4,2,3.63,3A1.72,1.72,0,0,0,158.19,303.39Z" transform="translate(0.01 0)" fill="#ff0" opacity="0.11" style="isolation:isolate"/><path d="M159.37,305.43a2,2,0,0,0-.76-1.14c-1.17-1.21-2.37-2.4-3.59-3.55s-2.45-2.3-3.7-3.44a2,2,0,0,0-1.18-.71,2,2,0,0,0,.76,1.14c1.18,1.21,2.37,2.4,3.6,3.55s2.44,2.32,3.7,3.44A1.92,1.92,0,0,0,159.37,305.43Z" transform="translate(0.01 0)" fill="#ff0" opacity="0.11" style="isolation:isolate"/><path d="M161.32,305.11c.73,0,.11-1-.39-1C160.2,304.09,160.81,305.11,161.32,305.11Z" transform="translate(0.01 0)" fill="#ff0" opacity="0.11" style="isolation:isolate"/><path d="M160.41,310.3c.74,0-1-2.75-1.67-2.75S159.78,310.3,160.41,310.3Z" transform="translate(0.01 0)" fill="#ff0" opacity="0.11" style="isolation:isolate"/><path d="M158.68,305.93a2.45,2.45,0,0,0-.82-1.33q-1.87-2.19-3.84-4.3c-1.31-1.41-2.65-2.81-4-4.2a2.5,2.5,0,0,0-1.26-.93,2.45,2.45,0,0,0,.82,1.33q1.88,2.19,3.84,4.31c1.31,1.41,2.62,2.81,4,4.2A2.45,2.45,0,0,0,158.68,305.93Z" transform="translate(0.01 0)" fill="#ff0" opacity="0.11" style="isolation:isolate"/><path d="M158.54,304.13a2,2,0,0,0-.83-1.14c-1.25-1.22-2.53-2.4-3.83-3.56s-2.6-2.32-3.93-3.44a2.08,2.08,0,0,0-1.23-.7,2.06,2.06,0,0,0,.83,1.15c1.25,1.21,2.52,2.39,3.83,3.55s2.59,2.32,3.93,3.44A2.08,2.08,0,0,0,158.54,304.13Z" transform="translate(0.01 0)" fill="#ff0" opacity="0.11" style="isolation:isolate"/><path d="M159.33,307.77c.24,0-2.35-3.44-2.28-3.35-.44-.54-1.9-2.87-2.86-2.87-.25,0,2.35,3.44,2.28,3.35C156.91,305.44,158.37,307.77,159.33,307.77Z" transform="translate(0.01 0)" fill="#ff0" opacity="0.11" style="isolation:isolate"/><path d="M161.54,305.92c.6,0-.15-.79-.18-.83-.34-.37-1.08-1.07-1.63-1.07s.15.79.19.83C160.26,305.22,161,305.92,161.54,305.92Z" transform="translate(0.01 0)" fill="#ff0" opacity="0.11" style="isolation:isolate"/><path d="M159.52,307.78a1.77,1.77,0,0,0-.59-1.17c-1-1.27-2-2.52-3-3.73s-2.08-2.45-3.17-3.64a1.8,1.8,0,0,0-1-.78,1.83,1.83,0,0,0,.6,1.17c1,1.26,2,2.51,3,3.73s2.08,2.45,3.16,3.64A1.8,1.8,0,0,0,159.52,307.78Z" transform="translate(0.01 0)" fill="#ff0" opacity="0.11" style="isolation:isolate"/><path d="M158.42,305a2.24,2.24,0,0,0-.8-1.24q-1.85-2-3.78-3.92L150,296a2.31,2.31,0,0,0-1.23-.82,2.24,2.24,0,0,0,.8,1.24q1.85,2,3.78,3.92c1.29,1.28,2.59,2.55,3.88,3.81A2.22,2.22,0,0,0,158.42,305Z" transform="translate(0.01 0)" fill="#ff0" opacity="0.11" style="isolation:isolate"/><path d="M159.93,307a1.58,1.58,0,0,0-.59-1.06c-1-1.12-2-2.22-3-3.28s-2.05-2.14-3.11-3.17a1.52,1.52,0,0,0-1-.65,1.58,1.58,0,0,0,.59,1.06c1,1.11,2,2.21,3,3.28s2.05,2.14,3.11,3.17A1.61,1.61,0,0,0,159.93,307Z" transform="translate(0.01 0)" fill="#ff0" opacity="0.11" style="isolation:isolate"/><path d="M161,310.84c.73,0-1.08-2.76-1.71-2.76S160.39,310.84,161,310.84Z" transform="translate(0.01 0)" fill="#ff0" opacity="0.11" style="isolation:isolate"/><path d="M116.67,240.11l1.14-3.63-.18.38a21.4,21.4,0,0,1,9.63-10.23l-2.9,1.69,8.7-4-8,2.44,11.72-3.37-8.1,1.61,11.93-2.16-8,.8,12-.93h-7.94l12,.3-7.71-.82,11.88,1.53c.25,0,1.08.25,1.31,0s-2.08-.8-2.15-.82c-1.7-.43-3.41-.81-5.12-1.18a16.26,16.26,0,0,0-4.31-.76,52.35,52.35,0,0,0-13.12,2.47A36.12,36.12,0,0,0,116.88,231a39.88,39.88,0,0,0-7.57,9.25,44.45,44.45,0,0,0-4,9.1,2.52,2.52,0,0,0,1.37-.73q2.29-1.74,4.52-3.56c1.49-1.2,3-2.43,4.41-3.69A2.35,2.35,0,0,0,116.67,240.11Z" transform="translate(0.01 0)" fill="#ff0" opacity="0.11" style="isolation:isolate"/><path d="M117.21,241.77a18.63,18.63,0,0,1,3-6.82l-.19.32c8.41-10.28,17.1-13.26,35-9.87.45,0,.49-.08.11-.33a16.36,16.36,0,0,0-2.78-1.13c-1.81-.65-3.64-1.27-5.47-1.86a15.36,15.36,0,0,0-2.9-.79,52.69,52.69,0,0,0-13.14,2.09,35.84,35.84,0,0,0-12.7,7.19,41,41,0,0,0-6.77,7.51,37.58,37.58,0,0,0-4.88,10.37,1.93,1.93,0,0,0,1.28-.45q2.17-1.23,4.29-2.57c1.42-.87,2.83-1.77,4.21-2.7A2,2,0,0,0,117.21,241.77Z" transform="translate(0.01 0)" fill="#ff0" opacity="0.11" style="isolation:isolate"/><path d="M118.72,237.17A17.69,17.69,0,0,1,126.49,226l-2.12,1.57,31.49-4.21c.22,0,1.34.31,1.49,0s-.1-.49-.44-.59c-6.61-1.91-13.21-2.89-20.07-1.55a28.15,28.15,0,0,0-8.75,3.15,29.4,29.4,0,0,0-5.81,4.15,21.77,21.77,0,0,0-7,11.37c-.25.79,1.33-.5,1.17-.36C117.17,238.94,118.44,238.06,118.72,237.17Z" transform="translate(0.01 0)" fill="#ff0" opacity="0.11" style="isolation:isolate"/><path d="M119.83,242.55q.78-6.65,5.66-10,12.33-10.34,31.38-3.45c.46.13.37-.3.29-.52-.14-.4-1.35-.88-1.73-1-5.34-1.3-10.67-2.18-16.18-1.41a33.78,33.78,0,0,0-10.8,3.18c-2.74,1.41-6.75,4.11-8.29,6.91-1.09,2-1.12,4-1.35,6.21C118.74,243.1,119.76,242.92,119.83,242.55Z" transform="translate(0.01 0)" fill="#ff0" opacity="0.11" style="isolation:isolate"/><path d="M116.14,242.66a18.67,18.67,0,0,1,2.92-6.81l-.21.33a21.52,21.52,0,0,1,5-5.21q12.53-9.53,30.19-5.11c.49.09.33-.07.13-.33l-1-.51c-1.17-.52-2.35-1-3.54-1.48-1.82-.74-3.65-1.47-5.5-2.14a5.9,5.9,0,0,0-2.5-.64,49.76,49.76,0,0,0-12.83,2.66,38.92,38.92,0,0,0-9.53,5.27,39.46,39.46,0,0,0-7.33,7.22,37.31,37.31,0,0,0-2.48,3.26l-2,3.38a26.38,26.38,0,0,0-2.74,6.9,2.09,2.09,0,0,0,1.34-.45q2.3-1.26,4.53-2.62c1.49-.91,3-1.82,4.44-2.75A2,2,0,0,0,116.14,242.66Z" transform="translate(0.01 0)" fill="#ff0" opacity="0.11" style="isolation:isolate"/><path d="M116.76,240.91a18.48,18.48,0,0,1,2.91-6.81l-.21.36a24,24,0,0,1,11.23-8.73L127.51,227l6.69-2.5-3.23,1,7-1.81-3.29.65,18.4-.08c.28.05,1.14.34,1.41.08s-2.22-.94-2.29-1c-1.82-.55-3.66-1.05-5.49-1.53-1.3-.34-3.26-1.19-4.63-1.06-6,.58-11.79,1.54-17.16,4.4a37.86,37.86,0,0,0-10,7.4,53.59,53.59,0,0,0-5,6.24,41,41,0,0,0-5,10.75,2.54,2.54,0,0,0,1.43-.67q2.4-1.63,4.74-3.36t4.65-3.48A2.46,2.46,0,0,0,116.76,240.91Z" transform="translate(0.01 0)" fill="#ff0" opacity="0.11" style="isolation:isolate"/><path d="M117.33,242.66a18,18,0,0,1,2.92-6.67q7.66-8.81,18.34-10.12c5.54-.78,10.78,0,16.18,1.21,1.28.29.46-.39-.22-.81s-1.7-.89-2.56-1.3a7.22,7.22,0,0,0-2.24-.88,47.51,47.51,0,0,0-12.55.17,34.63,34.63,0,0,0-11.13,3.84,29.32,29.32,0,0,0-8.6,7.19l-2.09,3a22.31,22.31,0,0,0-2.88,6.62c-.28.8,1.47-.2,1.44-.19.78-.4,1.54-.82,2.29-1.26A3.35,3.35,0,0,0,117.33,242.66Z" transform="translate(0.01 0)" fill="#ff0" opacity="0.11" style="isolation:isolate"/><path d="M119.34,238.92a11.58,11.58,0,0,1,3-6.23,17.4,17.4,0,0,1,11.21-8.32l-2.69,1,25.37-.92c.14,0,1.52.47,1.64.09s-.37-.54-.72-.63a50.24,50.24,0,0,0-12.77-2,36,36,0,0,0-9,1.17,33.24,33.24,0,0,0-8.92,3.72,24.83,24.83,0,0,0-6.13,5.2c-.78,1-1.53,2-2.26,3a19.84,19.84,0,0,0-2.8,6.47c-.26.81,1.44-.4,1.31-.32C117.28,240.75,119.06,239.81,119.34,238.92Z" transform="translate(0.01 0)" fill="#ff0" opacity="0.11" style="isolation:isolate"/><path d="M117.11,243.26c1.51-4.9,3.59-8.58,7.69-11.54,8.75-6.3,18.74-7,30.32-4.42.4.06.45,0,.16-.32a12,12,0,0,0-2.27-1.31q-2.23-1.14-4.51-2.21a11.73,11.73,0,0,0-2.43-1,51.42,51.42,0,0,0-12.9,1.44,35.39,35.39,0,0,0-20.36,14.87,15.4,15.4,0,0,0-1.15,1.85A22.62,22.62,0,0,0,109,247.2a1.08,1.08,0,0,0,1-.15c1.09-.46,2.16-1,3.23-1.49C114,245.23,116.8,244.29,117.11,243.26Z" transform="translate(0.01 0)" fill="#ff0" opacity="0.11" style="isolation:isolate"/><path d="M116.25,241.84a18.48,18.48,0,0,1,2.91-6.81l-.21.34c8.34-10.31,17-13.44,34.9-10.27.48,0,.52-.08.11-.33a18.06,18.06,0,0,0-3-1.2l-5.88-2a17.7,17.7,0,0,0-3.11-.86c-6,.6-11.74,1.66-17.21,4.47a37.78,37.78,0,0,0-10,7.44,53.59,53.59,0,0,0-5,6.24,39.88,39.88,0,0,0-4.94,10.68,2.29,2.29,0,0,0,1.37-.56q2.32-1.5,4.57-3c1.5-1,3-2,4.49-3.11A2.27,2.27,0,0,0,116.25,241.84Z" transform="translate(0.01 0)" fill="#ff0" opacity="0.11" style="isolation:isolate"/><path d="M117.66,242.44a18.56,18.56,0,0,1,5-9.21q12.53-12.06,32.94-6.66c.38,0,.43-.08.14-.33a11,11,0,0,0-2.24-1.13c-1.48-.65-3-1.27-4.46-1.86a10.59,10.59,0,0,0-2.38-.8c-5.8,0-11.5.33-16.95,2.55a36,36,0,0,0-10.29,6.17,35,35,0,0,0-7.27,8.85,29.67,29.67,0,0,0-2.87,6.91,1.15,1.15,0,0,0,1-.21c1.13-.53,2.24-1.1,3.34-1.7C114.45,244.6,117.31,243.53,117.66,242.44Z" transform="translate(0.01 0)" fill="#ff0" opacity="0.11" style="isolation:isolate"/><path d="M120.44,243.05l4.15-8.9a18.57,18.57,0,0,1,4.46-3.1c8.57-4.76,18.36-4.37,28.41-1.44.46.14.38-.28.3-.51-.14-.4-1.34-.9-1.72-1a51.46,51.46,0,0,0-12.22-1.72,33,33,0,0,0-13,2.68,25.25,25.25,0,0,0-8.93,6.25,3.71,3.71,0,0,0-1.33,1.53,15.08,15.08,0,0,0-1.11,6.08C119.45,243.47,120.37,243.44,120.44,243.05Z" transform="translate(0.01 0)" fill="#ff0" opacity="0.11" style="isolation:isolate"/><path d="M946.09,217.77c-23.76.35-47.51.54-71.27.15s-47.55-1.37-71.31-2.56a2.7,2.7,0,0,0,.9,1.35c1.35,1.49,2.73,2.94,4.13,4.38s2.81,2.87,4.25,4.26a2.7,2.7,0,0,0,1.33.94c23.84,1.08,47.69,1.94,71.56,2.25,23.5.3,47,.07,70.52.43a2.62,2.62,0,0,0-.84-1.37q-1.93-2.28-3.94-4.48l-4-4.37A2.67,2.67,0,0,0,946.09,217.77Z" transform="translate(0.01 0)" fill="#ff0" opacity="0.11" style="isolation:isolate"/><path d="M947.08,219.81c-23.75.29-47.49.48-71.23.1s-47.55-1.35-71.31-2.54a1.62,1.62,0,0,0,.69,1c1.08,1.09,2.19,2.16,3.32,3.19s2.28,2.06,3.43,3.07a1.72,1.72,0,0,0,1.09.61c23.84,1.09,47.67,2,71.53,2.27,23.54.31,47.09.09,70.63.37a1.66,1.66,0,0,0-.65-1.07c-1-1.11-2.08-2.2-3.16-3.26s-2.16-2.12-3.28-3.15A1.58,1.58,0,0,0,947.08,219.81Z" transform="translate(0.01 0)" fill="#ff0" opacity="0.11" style="isolation:isolate"/><path d="M944.4,214.57c-23.64.47-47.26.65-70.9.26s-47.51-1.37-71.26-2.57c-.83,0,.53,1.36.54,1.37.58.67,1.18,1.31,1.79,2a3.5,3.5,0,0,0,1.07.88c23.76,1.16,47.53,2.09,71.32,2.45,23.63.36,47.25.07,70.88-.1.38,0-1.5-2.46-1.42-2.36C946,216,945.18,214.56,944.4,214.57Z" transform="translate(0.01 0)" fill="#ff0" opacity="0.11" style="isolation:isolate"/><path d="M943.29,219.33q-17.34,1.39-34.76,1.16-17.85,0-35.7-.27c-23.77-.4-47.51-1.38-71.25-2.59-1,0,.24,1.27.72,1.29,23.76,1.21,47.51,2.19,71.3,2.59q17.86.3,35.73.26a260.71,260.71,0,0,0,34.33-1.46C944.37,220.25,943.79,219.3,943.29,219.33Z" transform="translate(0.01 0)" fill="#ff0" opacity="0.11" style="isolation:isolate"/><path d="M946.72,220.57c-23.75.31-47.49.49-71.23.11s-47.55-1.34-71.31-2.52a2.08,2.08,0,0,0,.89,1.11c1.33,1.16,2.67,2.29,4,3.4s2.71,2.2,4.12,3.27a2.06,2.06,0,0,0,1.27.65c23.85,1.08,47.69,1.93,71.56,2.24,23.56.29,47.11.08,70.67.42a2.13,2.13,0,0,0-.85-1.13c-1.28-1.19-2.58-2.36-3.9-3.49s-2.64-2.28-4-3.38A2.11,2.11,0,0,0,946.72,220.57Z" transform="translate(0.01 0)" fill="#ff0" opacity="0.11" style="isolation:isolate"/><path d="M946.58,218.78c-23.75.34-47.5.52-71.25.13s-47.55-1.35-71.31-2.54a2.44,2.44,0,0,0,.89,1.29c1.33,1.4,2.7,2.78,4.09,4.13s2.79,2.69,4.19,4a2.5,2.5,0,0,0,1.31.87c23.85,1.08,47.69,1.93,71.57,2.23,23.51.3,47,.09,70.53.46a2.5,2.5,0,0,0-.83-1.32q-1.92-2.15-3.91-4.23c-1.31-1.4-2.65-2.78-4-4.12A2.48,2.48,0,0,0,946.58,218.78Z" transform="translate(0.01 0)" fill="#ff0" opacity="0.11" style="isolation:isolate"/><path d="M945.3,220.09c-23.75.3-47.48.52-71.22.13s-47.53-1.36-71.28-2.56c-.94,0,1.08,1.44.89,1.29.76.58,1.53,1.13,2.31,1.66a3.88,3.88,0,0,0,1.31.71c23.8,1.16,47.6,2.09,71.42,2.45,23.66.36,47.32,0,71,.17.92,0-1-1.43-.85-1.33-.74-.6-1.49-1.19-2.27-1.75A3.94,3.94,0,0,0,945.3,220.09Z" transform="translate(0.01 0)" fill="#ff0" opacity="0.11" style="isolation:isolate"/><path d="M945.33,216c-47.46,1.23-94.84.19-142.25-2.21-.76,0,.37,1.15.38,1.16.43.5,1.59,2.12,2.35,2.16,23.76,1.16,47.52,2.1,71.31,2.46,23.5.37,47,.18,70.49-.35.68,0-.15-1-.24-1.11C947.05,217.67,946,216,945.33,216Z" transform="translate(0.01 0)" fill="#ff0" opacity="0.11" style="isolation:isolate"/><path d="M946.58,221.06c-23.68.37-47.37.55-71.06.17s-47.53-1.34-71.29-2.53c-1.1,0,1.59,1.81,1.34,1.62,1,.79,2.11,1.55,3.19,2.29a7.47,7.47,0,0,0,1.76,1c23.82,1.12,47.64,2,71.49,2.36,23.53.33,47.08.08,70.62.18,1,0-1.41-1.77-1.27-1.66-1-.81-2-1.61-3.07-2.38A7.15,7.15,0,0,0,946.58,221.06Z" transform="translate(0.01 0)" fill="#ff0" opacity="0.11" style="isolation:isolate"/><path d="M946.47,219.66c-23.75.32-47.49.51-71.24.12s-47.55-1.34-71.31-2.53a2.27,2.27,0,0,0,.92,1.21q2,1.93,4.14,3.78l4.24,3.66a2.41,2.41,0,0,0,1.31.77c23.85,1.07,47.7,1.93,71.57,2.23,23.54.3,47.07.08,70.61.44a2.26,2.26,0,0,0-.87-1.23c-1.33-1.33-2.67-2.63-4-3.88s-2.71-2.54-4.1-3.77A2.32,2.32,0,0,0,946.47,219.66Z" transform="translate(0.01 0)" fill="#ff0" opacity="0.11" style="isolation:isolate"/><path d="M946.56,220.21c-23.6.41-47.19.57-70.78.19-23.79-.38-47.54-1.34-71.3-2.53-1.05-.05,1.37,1.82,1.21,1.68,1,.83,2,1.64,3,2.44a7.12,7.12,0,0,0,1.66,1.12c23.82,1.12,47.63,2,71.47,2.36,23.61.33,47.23.08,70.84.18a1,1,0,0,0-.43-.79c-.76-.77-1.55-1.5-2.36-2.21S947.63,220.19,946.56,220.21Z" transform="translate(0.01 0)" fill="#ff0" opacity="0.11" style="isolation:isolate"/><path d="M943.74,219.66q-17.32,1.44-34.72,1.18-17.87,0-35.71-.26c-23.77-.41-47.5-1.39-71.24-2.6-.71,0-.16,1,.35,1,23.75,1.21,47.5,2.19,71.29,2.6q17.85.3,35.72.26a283.26,283.26,0,0,0,34.46-1.36C944.38,220.45,944.26,219.63,943.74,219.66Z" transform="translate(0.01 0)" fill="#ff0" opacity="0.11" style="isolation:isolate"/><path d="M816.86,228l3.8.93-.34-.11,3.27,1.72a45.5,45.5,0,0,1,10.76,13.14c1.63,2.87,3.14,5.8,4.63,8.75.64,1.25,0-3.51.13-2.79-.23-1.75-.48-3.49-.76-5.23a13,13,0,0,0-.58-2.69A66.07,66.07,0,0,0,823.4,226.2a43.78,43.78,0,0,0-6.82-4.27c-3.35-1.69-4.06-1.66-7.7-2.49a1.67,1.67,0,0,0,.62,1.1q1.5,1.76,3.09,3.45t3.21,3.34A1.7,1.7,0,0,0,816.86,228Z" transform="translate(0.01 0)" fill="#ff0" opacity="0.11" style="isolation:isolate"/><path d="M818,230.15l3.81.95-.35-.15,3.26,1.75A44.84,44.84,0,0,1,835.2,246c1.58,2.89,3,5.83,4.5,8.79.65,1.32-.09-3.79,0-3-.29-1.87-.61-3.75-1-5.61a15.17,15.17,0,0,0-.68-2.89,66.8,66.8,0,0,0-15.54-17A32.36,32.36,0,0,0,817,222.9a32.79,32.79,0,0,0-7.34-2.44,2,2,0,0,0,.64,1.21q1.54,2,3.18,3.9t3.31,3.79A1.93,1.93,0,0,0,818,230.15Z" transform="translate(0.01 0)" fill="#ff0" opacity="0.11" style="isolation:isolate"/><path d="M819.61,230.15q6.52,0,9,7.21A24.77,24.77,0,0,1,836,247.53c1.13,2.46,2.23,4.93,3.37,7.38.12.25.48.1.6,0s0-.91-.1-1.14c-2.84-5.76-5.25-12-9-17.21a25.55,25.55,0,0,0-4-4.44,8.76,8.76,0,0,0-1.66-1.44,10.38,10.38,0,0,0-5.72-1.51C818.69,229,819.14,230.06,819.61,230.15Z" transform="translate(0.01 0)" fill="#ff0" opacity="0.11" style="isolation:isolate"/><path d="M818.72,235.12a14.06,14.06,0,0,1,9.19,4.77,31.72,31.72,0,0,1,4.36,6c2.62,4.49,4.62,9.35,6.78,14.07.36.8.56.19.59-.41a7.7,7.7,0,0,0-.47-3.46c-3.22-6.21-6.15-12.89-11-18a19.25,19.25,0,0,0-4.21-3.64c-2.48-1.6-4-1.87-6.79-2.53-.66-.16,0,1,0,1C817.44,233.49,818.09,235,818.72,235.12Z" transform="translate(0.01 0)" fill="#ff0" opacity="0.11" style="isolation:isolate"/><path d="M817.34,230.68a15,15,0,0,1,7.07,2.7l-.36-.22a23.64,23.64,0,0,1,5.31,5.16,38.71,38.71,0,0,1,3.27,4.77c2.42,4,4.46,8.1,6.5,12.26.21.41.25.39.35,0v-1.17q-.19-2.06-.45-4.11c-.25-2.1-.52-4.21-.84-6.31a6.63,6.63,0,0,0-.67-2.69,65.75,65.75,0,0,0-14.35-15.24,42.37,42.37,0,0,0-3.65-2.6L816,221.32a22,22,0,0,0-7.33-2.4,2.42,2.42,0,0,0,.67,1.41q1.65,2.38,3.39,4.71t3.52,4.62A2.51,2.51,0,0,0,817.34,230.68Z" transform="translate(0.01 0)" fill="#ff0" opacity="0.11" style="isolation:isolate"/><path d="M817.19,228.79l3.8.93-.36-.14,3.27,1.73a45.18,45.18,0,0,1,10.69,13.16c1.63,2.88,3.13,5.8,4.62,8.75.18.42.3.41.34-.05a16.52,16.52,0,0,0-.29-3.06q-.42-2.93-.91-5.84a16.21,16.21,0,0,0-.65-3,65.57,65.57,0,0,0-14.59-15.51,38.65,38.65,0,0,0-7.22-4.41A35.51,35.51,0,0,0,808.5,219a2.06,2.06,0,0,0,.69,1.23c1.1,1.33,2.22,2.65,3.38,3.93s2.3,2.58,3.49,3.83A2,2,0,0,0,817.19,228.79Z" transform="translate(0.01 0)" fill="#ff0" opacity="0.11" style="isolation:isolate"/><path d="M817.86,232.61a13.32,13.32,0,0,1,8,3.74,26,26,0,0,1,7.88,10.6c1.87,3.48,3.5,7.07,5.16,10.65.51,1.1.29-2.75.33-2.15-.11-1.35-.24-2.7-.4-4a7.71,7.71,0,0,0-.38-2.08c-3.27-5.79-6.89-11.77-11.82-16.33a36.21,36.21,0,0,0-6.16-4.65c-3-1.76-3.91-1.76-7.23-2.6a1,1,0,0,0,.23.89c.55.94,1.13,1.85,1.75,2.75C815.75,230.12,816.81,232.35,817.86,232.61Z" transform="translate(0.01 0)" fill="#ff0" opacity="0.11" style="isolation:isolate"/><path d="M819.93,230.87c11.52,2.76,16,16.08,20.24,25.33.18.4.45.13.59-.08a4,4,0,0,0-.25-1.81c-2.89-5.69-5.38-11.82-9.21-17a27.07,27.07,0,0,0-5.62-5.79c-2.61-1.83-4.25-2-7.27-2.7-.59-.14.07.83.07.82A3.11,3.11,0,0,0,819.93,230.87Z" transform="translate(0.01 0)" fill="#ff0" opacity="0.11" style="isolation:isolate"/><path d="M818.11,232.6l3.78.94-.33-.17a18.14,18.14,0,0,1,6,4.13,37.75,37.75,0,0,1,4.6,6,124.59,124.59,0,0,1,7.27,14c.17.43.28.41.34,0a16.76,16.76,0,0,0-.21-3q-.34-2.91-.77-5.82a16.07,16.07,0,0,0-.58-3,63.64,63.64,0,0,0-14.75-17.27,25.84,25.84,0,0,0-5-3.25,27.18,27.18,0,0,0-7.42-2.65,1.84,1.84,0,0,0,.48,1.24c.87,1.38,1.78,2.73,2.71,4.07s1.86,2.68,2.83,4A1.88,1.88,0,0,0,818.11,232.6Z" transform="translate(0.01 0)" fill="#ff0" opacity="0.11" style="isolation:isolate"/><path d="M817.09,229.65l3.8.94-.36-.18a18.84,18.84,0,0,1,6.11,4.05,40.14,40.14,0,0,1,4.76,5.88,118.18,118.18,0,0,1,7.6,13.88c.21.42.2.3.35-.05v-1.09c-.12-1.27-.26-2.54-.43-3.81-.24-2-.49-3.9-.8-5.85a5.83,5.83,0,0,0-.65-2.49,66.75,66.75,0,0,0-11.17-12.68,54.31,54.31,0,0,0-6.87-5.1c-1.18-.65-2.37-1.28-3.57-1.9a22.42,22.42,0,0,0-7.35-2.39,2.32,2.32,0,0,0,.66,1.32q1.62,2.19,3.33,4.31t3.45,4.22A2.15,2.15,0,0,0,817.09,229.65Z" transform="translate(0.01 0)" fill="#ff0" opacity="0.11" style="isolation:isolate"/><path d="M818.51,231.74l3.77.93-.32-.13,3.22,1.75a44.41,44.41,0,0,1,10.3,13.42c1.53,2.9,2.95,5.86,4.36,8.83.6,1.25,0-3.46.1-2.72-.25-1.7-.52-3.39-.82-5.08a12.77,12.77,0,0,0-.61-2.6c-3.6-5.89-7.65-11.7-13-16.18a40.7,40.7,0,0,0-6.5-4.54c-3.15-1.74-4-1.76-7.44-2.61a1.56,1.56,0,0,0,.49,1.11c.86,1.22,1.74,2.41,2.66,3.58s1.84,2.34,2.8,3.48A1.58,1.58,0,0,0,818.51,231.74Z" transform="translate(0.01 0)" fill="#ff0" opacity="0.11" style="isolation:isolate"/><path d="M819.4,235.76a14,14,0,0,1,9.22,4.8,31.68,31.68,0,0,1,4.33,6.08c2.61,4.52,4.59,9.41,6.76,14.15.34.75.57.15.59-.39a7,7,0,0,0-.47-3.16c-3.23-6.3-6.12-13.07-11-18.34a19.34,19.34,0,0,0-4.15-3.72c-2.45-1.6-4-1.83-6.86-2.44-.64-.14,0,.93,0,1C818.16,234.23,818.78,235.61,819.4,235.76Z" transform="translate(0.01 0)" fill="#ff0" opacity="0.11" style="isolation:isolate"/><path d="M812.48,209.45a1.7,1.7,0,0,0-.76-1q-1.72-1.59-3.52-3.09l-3.63-3a1.73,1.73,0,0,0-1.14-.58,1.66,1.66,0,0,0,.76,1q1.72,1.59,3.52,3.1t3.63,3A1.72,1.72,0,0,0,812.48,209.45Z" transform="translate(0.01 0)" opacity="0.11" style="isolation:isolate"/><path d="M813.66,211.5a2,2,0,0,0-.76-1.14c-1.17-1.21-2.37-2.4-3.59-3.55s-2.44-2.32-3.7-3.44a1.87,1.87,0,0,0-1.18-.71,2,2,0,0,0,.76,1.14c1.18,1.21,2.37,2.39,3.6,3.55s2.44,2.32,3.7,3.44A2,2,0,0,0,813.66,211.5Z" transform="translate(0.01 0)" opacity="0.11" style="isolation:isolate"/><path d="M815.61,211.18c.73,0,.11-1-.39-1C814.49,210.16,815.1,211.18,815.61,211.18Z" transform="translate(0.01 0)" opacity="0.11" style="isolation:isolate"/><path d="M814.7,216.36c.74,0-1-2.74-1.67-2.74S814.07,216.36,814.7,216.36Z" transform="translate(0.01 0)" opacity="0.11" style="isolation:isolate"/><path d="M813,212a2.45,2.45,0,0,0-.82-1.33q-1.87-2.19-3.84-4.3t-4-4.2a2.5,2.5,0,0,0-1.26-.93,2.45,2.45,0,0,0,.82,1.33q1.88,2.19,3.84,4.31t4,4.19A2.33,2.33,0,0,0,813,212Z" transform="translate(0.01 0)" opacity="0.11" style="isolation:isolate"/><path d="M812.83,210.2a2.14,2.14,0,0,0-.83-1.15c-1.25-1.21-2.52-2.39-3.83-3.55s-2.62-2.31-3.93-3.44a2.08,2.08,0,0,0-1.23-.7,2.06,2.06,0,0,0,.83,1.15c1.25,1.21,2.52,2.39,3.83,3.55s2.59,2.32,3.93,3.44A2.08,2.08,0,0,0,812.83,210.2Z" transform="translate(0.01 0)" opacity="0.11" style="isolation:isolate"/><path d="M813.62,213.84c.24,0-2.35-3.44-2.28-3.35-.44-.54-1.9-2.87-2.86-2.87-.25,0,2.35,3.43,2.28,3.35C811.2,211.5,812.66,213.84,813.62,213.84Z" transform="translate(0.01 0)" opacity="0.11" style="isolation:isolate"/><path d="M815.83,212c.6,0-.15-.79-.18-.83-.34-.37-1.08-1.07-1.63-1.07s.15.79.19.83C814.55,211.28,815.28,212,815.83,212Z" transform="translate(0.01 0)" opacity="0.11" style="isolation:isolate"/><path d="M813.81,213.85a1.77,1.77,0,0,0-.59-1.17c-1-1.27-2-2.51-3-3.74s-2.08-2.44-3.17-3.63a1.78,1.78,0,0,0-1-.79,1.83,1.83,0,0,0,.6,1.17q1.5,1.91,3,3.74c1,1.22,2.08,2.45,3.16,3.63A1.75,1.75,0,0,0,813.81,213.85Z" transform="translate(0.01 0)" opacity="0.11" style="isolation:isolate"/><path d="M812.71,211a2.22,2.22,0,0,0-.8-1.23q-1.85-2-3.78-3.92T804.25,202a2.31,2.31,0,0,0-1.23-.82,2.24,2.24,0,0,0,.8,1.24q1.84,2,3.78,3.92c1.29,1.28,2.59,2.55,3.88,3.81A2.2,2.2,0,0,0,812.71,211Z" transform="translate(0.01 0)" opacity="0.11" style="isolation:isolate"/><path d="M814.22,213a1.58,1.58,0,0,0-.59-1.06c-1-1.11-2-2.21-3-3.28s-2-2.14-3.11-3.17a.63.63,0,0,0-.4-.8.63.63,0,0,0-.4,1.2.63.63,0,0,0,.36,0q1.5,1.68,3,3.28c1,1.07,2,2.14,3.11,3.17A1.55,1.55,0,0,0,814.22,213Z" transform="translate(0.01 0)" opacity="0.11" style="isolation:isolate"/><path d="M815.32,216.91c.73,0-1.08-2.76-1.71-2.76S814.68,216.91,815.32,216.91Z" transform="translate(0.01 0)" opacity="0.11" style="isolation:isolate"/><path d="M840.44,194.94a18.47,18.47,0,0,1-2.94,6.81l.21-.3-2.27,2.81a22.84,22.84,0,0,1-4.27,3.44,28.18,28.18,0,0,1-8.5,4,38.59,38.59,0,0,1-20.4,0c-.48-.1-.35,0-.14.32l.94.56c1.15.58,2.31,1.13,3.48,1.66,1.8.84,3.61,1.66,5.43,2.43a5.9,5.9,0,0,0,2.48.77c7.29-.67,14.32-2.22,20.52-6.33a39.19,39.19,0,0,0,6.71-5.48,43.25,43.25,0,0,0,6-7.86,40,40,0,0,0,3.7-8.51,1.79,1.79,0,0,0-1.29.33q-2.21,1-4.37,2.19t-4.29,2.33A1.86,1.86,0,0,0,840.44,194.94Z" transform="translate(0.01 0)" fill="#ff0" opacity="0.11" style="isolation:isolate"/><path d="M840.72,196.62l-1.16,3.63.15-.32a15.81,15.81,0,0,1-2.9,4.58Q826,218.73,803,213.28q-.62,0-.12.33a12.21,12.21,0,0,0,2.46,1c1.61.59,3.23,1.16,4.86,1.69a12.88,12.88,0,0,0,2.59.7,52.73,52.73,0,0,0,13.15-2,35.47,35.47,0,0,0,12.67-7.15,38,38,0,0,0,7.67-9,39.81,39.81,0,0,0,3.93-8.91,1.63,1.63,0,0,0-1.17.46c-1.29.83-2.55,1.69-3.8,2.59s-2.49,1.78-3.7,2.72A1.6,1.6,0,0,0,840.72,196.62Z" transform="translate(0.01 0)" fill="#ff0" opacity="0.11" style="isolation:isolate"/><path d="M837.06,195.11a10.77,10.77,0,0,1-2.95,6.32,11.76,11.76,0,0,1-4.73,5,28.89,28.89,0,0,1-8.31,3.52c-7.16,1.85-14.19,1-21.23-.9-.61-.16-.56.17-.29.52a6.21,6.21,0,0,0,2.74,1.53,51.74,51.74,0,0,0,11.84,1.13,33.86,33.86,0,0,0,12.52-3,24,24,0,0,0,8.68-6.36,13.58,13.58,0,0,0,1.3-1.54A19.41,19.41,0,0,0,839,194.7C839.17,193.94,837.2,194.64,837.06,195.11Z" transform="translate(0.01 0)" fill="#ff0" opacity="0.11" style="isolation:isolate"/><path d="M837.14,201a17.4,17.4,0,0,1-8,11.33l1.67-1.13-30.67,3.47c-.25-.06-1.16-.31-1.35,0s.08.5.38.59a48.26,48.26,0,0,0,12.44,2.18,33.71,33.71,0,0,0,13.14-2.26,29.49,29.49,0,0,0,6.65-3.54,25.05,25.05,0,0,0,4.37-4.24c2.2-2.61,3.09-5.11,4.08-8.3.21-.68-1.06.19-1,.15C838.35,199.61,837.36,200.25,837.14,201Z" transform="translate(0.01 0)" fill="#ff0" opacity="0.11" style="isolation:isolate"/><path d="M840,197.33a18.82,18.82,0,0,1-2.91,6.81l.21-.36a25.1,25.1,0,0,1-14.74,10l3.22-1-7,1.8,3.27-.64-18.39.09c-.29,0-1.15-.34-1.42-.08s2.21,1,2.29,1c1.81.56,3.64,1.06,5.47,1.56,1.28.34,3.25,1.2,4.61,1.07,6-.58,11.79-1.55,17.16-4.42a37.68,37.68,0,0,0,10-7.41,50.81,50.81,0,0,0,5-6.24,41,41,0,0,0,5-10.75,2.47,2.47,0,0,0-1.42.66q-2.39,1.62-4.71,3.33c-1.55,1.14-3.08,2.29-4.61,3.46A2.34,2.34,0,0,0,840,197.33Z" transform="translate(0.01 0)" fill="#ff0" opacity="0.11" style="isolation:isolate"/><path d="M840.63,195.58a18.72,18.72,0,0,1-2.92,6.82l.21-.33a21.56,21.56,0,0,1-5,5.22q-12.51,9.54-30.19,5.15c-.49-.1-.34.06-.14.32l1,.52c1.16.52,2.33,1,3.51,1.49,1.82.74,3.63,1.48,5.47,2.16a5.83,5.83,0,0,0,2.49.65,50.28,50.28,0,0,0,12.83-2.67,38.87,38.87,0,0,0,9.54-5.28,40,40,0,0,0,7.32-7.22,37.2,37.2,0,0,0,2.47-3.26l2-3.38a26.35,26.35,0,0,0,2.73-6.9,2,2,0,0,0-1.33.44c-1.51.83-3,1.7-4.49,2.59s-3,1.78-4.4,2.72A2.11,2.11,0,0,0,840.63,195.58Z" transform="translate(0.01 0)" fill="#ff0" opacity="0.11" style="isolation:isolate"/><path d="M838.52,198.71a13.73,13.73,0,0,1-2,5.12,16.55,16.55,0,0,1-5.89,6.61l1.63-1.16-7.53,4.23,4.57-1.73-8.16,2.86,4.54-1.26-8.35,2,4.51-.79-8.45,1.11,4.4-.34-8.47.26,4.27.09-8.39-.62,4.08.51L801,214.14c-1-.17-.69.27-.14.58a14.4,14.4,0,0,0,4.87,1.2c8.43,1,17.45.47,25-3.95a42.16,42.16,0,0,0,6.33-4.72,24.88,24.88,0,0,0,4.16-4.88,16.58,16.58,0,0,0,1.93-3.21,17.33,17.33,0,0,0,2-5.14c.35-1-2.19,1-2,.84-1.07.79-2.12,1.61-3.16,2.44A7.28,7.28,0,0,0,838.52,198.71Z" transform="translate(0.01 0)" fill="#ff0" opacity="0.11" style="isolation:isolate"/><path d="M838,196.61a15.64,15.64,0,0,1-6.35,10.17q-12.17,10.28-31,3.72c-.61-.16-.39.29-.26.54.25.49,1.86,1,2.38,1.13,7.71,1.64,15.65,1.92,23.11-.94a26.51,26.51,0,0,0,9.31-5.85c2.86-2.86,3.87-5.66,4.92-9.55C840.23,195.14,838.11,196.09,838,196.61Z" transform="translate(0.01 0)" fill="#ff0" opacity="0.11" style="isolation:isolate"/><path d="M839.61,198.93l-1.14,3.6.11-.33a20.08,20.08,0,0,1-6.7,8.21l2.14-1.6-7.75,4.66,6.06-2.61-9.59,3.82,6.07-2L819,215.52l6.08-1.32-10,1.74,6-.68-10,.72,5.85-.07-9.94-.32,5.62.52-9.79-1.35c-.2,0-.82-.13-1,.1s1.47.65,1.53.66a31.63,31.63,0,0,0,6.81,1.3c7.19.17,14.31-.73,20.76-4.15a35.94,35.94,0,0,0,9.92-7.66,38.08,38.08,0,0,0,4.55-6.3c1.73-3,1.88-4,2.94-7.2a1.63,1.63,0,0,0-1.11.55c-1.2.93-2.37,1.88-3.51,2.87s-2.3,2-3.41,3A1.62,1.62,0,0,0,839.61,198.93Z" transform="translate(0.01 0)" fill="#ff0" opacity="0.11" style="isolation:isolate"/><path d="M840.15,196.45a18.72,18.72,0,0,1-2.92,6.82l.22-.35c-8.35,10.31-17.08,13.43-34.93,10.22-.49,0-.53.07-.12.34a19.93,19.93,0,0,0,3.08,1.22q3,1.05,6,2a18.62,18.62,0,0,0,3.19.88c6-.59,11.79-1.68,17.21-4.47a37.93,37.93,0,0,0,8.69-6.18,48.34,48.34,0,0,0,5.32-6.11,24.44,24.44,0,0,0,2.27-3.42,41.93,41.93,0,0,0,3.73-8.65,2.31,2.31,0,0,0-1.39.56c-1.59,1-3.15,1.95-4.7,3s-3.09,2-4.6,3.1A2.21,2.21,0,0,0,840.15,196.45Z" transform="translate(0.01 0)" fill="#ff0" opacity="0.11" style="isolation:isolate"/><path d="M840.14,197.76a13.68,13.68,0,0,1-2,5.16q-5.13,10.19-18.85,11.89l5.44-.89-9.35,1.32,5.36-.31L803,214c-1.61-.28-.34.52.47.79a23.32,23.32,0,0,0,6.2,1.61c6.5.21,12.76-.35,18.79-3a34.36,34.36,0,0,0,10.4-6.85,33.83,33.83,0,0,0,5-6,30.27,30.27,0,0,0,3.85-8.44c.36-1.11-2.44,1.26-2.2,1.08q-1.82,1.4-3.59,2.87A9.88,9.88,0,0,0,840.14,197.76Z" transform="translate(0.01 0)" fill="#ff0" opacity="0.11" style="isolation:isolate"/><path d="M837.64,201.52,800.33,215c-.24-.07-.78-.19-1,.07a.37.37,0,0,0,.11.51.34.34,0,0,0,.15.06c7.89,2.25,16.09,3.28,24.07.63a29.52,29.52,0,0,0,10.06-5.83,19.27,19.27,0,0,0,2-2.14c2.26-2.59,3.07-5.12,4.06-8.33.19-.61-.91.12-.86.09A3.55,3.55,0,0,0,837.64,201.52Z" transform="translate(0.01 0)" fill="#ff0" opacity="0.11" style="isolation:isolate"/></g></g></svg>